Badami-Bold.ufo
<glyph name="exclam" format="2">
  <advance width="212"/>
  <unicode hex="0021"/>
  <outline>
    <contour>
      <point x="147" y="564" type="line"/>
      <point x="64" y="600" type="line"/>
      <point x="80" y="185" type="line"/>
      <point x="139" y="147" type="line"/>
    </contour>
    <contour>
      <point x="109" y="93" type="curve" smooth="yes"/>
      <point x="78" y="93"/>
      <point x="55" y="75"/>
      <point x="55" y="55" type="curve" smooth="yes"/>
      <point x="55" y="16"/>
      <point x="107" y="16"/>
      <point x="109" y="16" type="curve" smooth="yes"/>
      <point x="139" y="16"/>
      <point x="164" y="31"/>
      <point x="164" y="55" type="curve" smooth="yes"/>
      <point x="164" y="78"/>
      <point x="140" y="93"/>
    </contour>
  </outline>
</glyph>
<glyph name="quotedbl" format="2">
  <advance width="340"/>
  <unicode hex="0022"/>
  <outline>
    <contour>
      <point x="264" y="305" type="curve"/>
      <point x="287" y="532" type="line"/>
      <point x="270" y="541" type="line"/>
      <point x="259" y="539"/>
      <point x="205" y="521"/>
      <point x="195" y="514" type="curve"/>
      <point x="221" y="297" type="line"/>
      <point x="233" y="297"/>
      <point x="257" y="301"/>
    </contour>
    <contour>
      <point x="122" y="305" type="curve"/>
      <point x="145" y="532" type="line"/>
      <point x="127" y="541" type="line"/>
      <point x="117" y="539"/>
      <point x="64" y="521"/>
      <point x="53" y="514" type="curve"/>
      <point x="79" y="297" type="line"/>
      <point x="91" y="297"/>
      <point x="114" y="301"/>
    </contour>
  </outline>
</glyph>
<glyph name="numbersign" format="2">
  <advance width="370"/>
  <unicode hex="0023"/>
  <outline>
    <contour>
      <point x="374" y="346" type="curve"/>
      <point x="365" y="355" type="line"/>
      <point x="82" y="355" type="line"/>
      <point x="78" y="345"/>
      <point x="69" y="325"/>
      <point x="67" y="314" type="curve"/>
      <point x="76" y="306" type="line"/>
      <point x="359" y="306" type="line"/>
      <point x="362" y="314"/>
      <point x="372" y="335"/>
    </contour>
    <contour>
      <point x="225" y="62" type="curve"/>
      <point x="340" y="465" type="line"/>
      <point x="330" y="473" type="line"/>
      <point x="318" y="468"/>
      <point x="300" y="465"/>
      <point x="290" y="458" type="curve"/>
      <point x="174" y="53" type="line"/>
      <point x="184" y="46" type="line"/>
      <point x="197" y="50"/>
      <point x="216" y="55"/>
    </contour>
    <contour>
      <point x="111" y="62" type="curve"/>
      <point x="227" y="465" type="line"/>
      <point x="216" y="473" type="line"/>
      <point x="205" y="468"/>
      <point x="187" y="465"/>
      <point x="176" y="458" type="curve"/>
      <point x="61" y="53" type="line"/>
      <point x="71" y="46" type="line"/>
      <point x="83" y="50"/>
      <point x="102" y="55"/>
    </contour>
    <contour>
      <point x="334" y="209" type="curve"/>
      <point x="326" y="219" type="line"/>
      <point x="42" y="219" type="line"/>
      <point x="38" y="209"/>
      <point x="30" y="188"/>
      <point x="28" y="179" type="curve"/>
      <point x="36" y="170" type="line"/>
      <point x="320" y="170" type="line"/>
      <point x="324" y="178"/>
      <point x="332" y="200"/>
    </contour>
  </outline>
</glyph>
<glyph name="dollar" format="2">
  <advance width="361"/>
  <unicode hex="0024"/>
  <outline>
    <contour>
      <point x="200" y="-44" type="curve"/>
      <point x="200" y="472" type="line"/>
      <point x="188" y="482" type="line"/>
      <point x="175" y="479"/>
      <point x="171" y="475"/>
      <point x="158" y="467" type="curve"/>
      <point x="158" y="-50" type="line"/>
      <point x="170" y="-60" type="line"/>
      <point x="182" y="-57"/>
      <point x="191" y="-51"/>
    </contour>
    <contour>
      <point x="164" y="-3" type="curve" smooth="yes"/>
      <point x="284" y="-3"/>
      <point x="332" y="66"/>
      <point x="332" y="128" type="curve" smooth="yes"/>
      <point x="332" y="273"/>
      <point x="99" y="243"/>
      <point x="99" y="331" type="curve" smooth="yes"/>
      <point x="99" y="358"/>
      <point x="125" y="381"/>
      <point x="170" y="381" type="curve" smooth="yes"/>
      <point x="214" y="381"/>
      <point x="243" y="357"/>
      <point x="263" y="314" type="curve"/>
      <point x="287" y="311" type="line"/>
      <point x="299" y="322"/>
      <point x="322" y="380"/>
      <point x="316" y="386" type="curve"/>
      <point x="298" y="405"/>
      <point x="239" y="423"/>
      <point x="186" y="423" type="curve" smooth="yes"/>
      <point x="65" y="423"/>
      <point x="28" y="358"/>
      <point x="28" y="315" type="curve" smooth="yes"/>
      <point x="28" y="180"/>
      <point x="258" y="221"/>
      <point x="258" y="110" type="curve" smooth="yes"/>
      <point x="258" y="66"/>
      <point x="220" y="46"/>
      <point x="183" y="46" type="curve" smooth="yes"/>
      <point x="122" y="46"/>
      <point x="84" y="85"/>
      <point x="58" y="140" type="curve"/>
      <point x="32" y="142" type="line"/>
      <point x="25" y="116"/>
      <point x="24" y="43"/>
      <point x="30" y="38" type="curve"/>
      <point x="72" y="12"/>
      <point x="124" y="-3"/>
    </contour>
  </outline>
</glyph>
<glyph name="percent" format="2">
  <advance width="520"/>
  <unicode hex="0025"/>
  <outline>
    <contour>
      <point x="501" y="108" type="curve"/>
      <point x="501" y="173"/>
      <point x="461" y="226"/>
      <point x="392" y="226" type="curve" smooth="yes"/>
      <point x="323" y="226"/>
      <point x="278" y="172"/>
      <point x="278" y="108" type="curve" smooth="yes"/>
      <point x="278" y="43"/>
      <point x="320" y="-10"/>
      <point x="387" y="-10" type="curve" smooth="yes"/>
      <point x="453" y="-10"/>
      <point x="501" y="43"/>
    </contour>
    <contour>
      <point x="130" y="2" type="curve"/>
      <point x="447" y="420" type="line"/>
      <point x="438" y="430" type="line"/>
      <point x="427" y="428"/>
      <point x="398" y="423"/>
      <point x="388" y="418" type="curve"/>
      <point x="69" y="0" type="line"/>
      <point x="78" y="-10" type="line"/>
      <point x="90" y="-7"/>
      <point x="120" y="-3"/>
    </contour>
    <contour>
      <point x="241" y="312" type="curve"/>
      <point x="241" y="378"/>
      <point x="201" y="431"/>
      <point x="132" y="431" type="curve" smooth="yes"/>
      <point x="63" y="431"/>
      <point x="18" y="377"/>
      <point x="18" y="312" type="curve" smooth="yes"/>
      <point x="18" y="248"/>
      <point x="60" y="194"/>
      <point x="127" y="194" type="curve" smooth="yes"/>
      <point x="194" y="194"/>
      <point x="241" y="248"/>
    </contour>
    <contour>
      <point x="430" y="101" type="curve"/>
      <point x="430" y="39"/>
      <point x="417" y="15"/>
      <point x="392" y="15" type="curve" smooth="yes"/>
      <point x="365" y="15"/>
      <point x="350" y="47"/>
      <point x="350" y="116" type="curve" smooth="yes"/>
      <point x="350" y="177"/>
      <point x="363" y="200"/>
      <point x="387" y="200" type="curve" smooth="yes"/>
      <point x="411" y="200"/>
      <point x="430" y="168"/>
    </contour>
    <contour>
      <point x="170" y="305" type="curve"/>
      <point x="170" y="244"/>
      <point x="157" y="220"/>
      <point x="132" y="220" type="curve" smooth="yes"/>
      <point x="105" y="220"/>
      <point x="90" y="252"/>
      <point x="90" y="320" type="curve" smooth="yes"/>
      <point x="90" y="381"/>
      <point x="103" y="405"/>
      <point x="127" y="405" type="curve" smooth="yes"/>
      <point x="151" y="405"/>
      <point x="170" y="373"/>
    </contour>
  </outline>
</glyph>
<glyph name="ampersand" format="2">
  <advance width="513"/>
  <unicode hex="0026"/>
  <outline>
    <contour>
      <point x="509" y="273" type="curve"/>
      <point x="499" y="288" type="line"/>
      <point x="327" y="288" type="line"/>
      <point x="317" y="285"/>
      <point x="301" y="270"/>
      <point x="296" y="264" type="curve"/>
      <point x="306" y="252" type="line"/>
      <point x="335" y="252"/>
      <point x="363" y="224"/>
      <point x="363" y="183" type="curve" smooth="yes"/>
      <point x="363" y="122"/>
      <point x="294" y="38"/>
      <point x="204" y="38" type="curve" smooth="yes"/>
      <point x="157" y="38"/>
      <point x="108" y="68"/>
      <point x="108" y="136" type="curve" smooth="yes"/>
      <point x="108" y="193"/>
      <point x="134" y="239"/>
      <point x="231" y="301" type="curve"/>
      <point x="289" y="337"/>
      <point x="338" y="390"/>
      <point x="338" y="440" type="curve" smooth="yes"/>
      <point x="338" y="488"/>
      <point x="310" y="531"/>
      <point x="240" y="531" type="curve" smooth="yes"/>
      <point x="167" y="531"/>
      <point x="105" y="471"/>
      <point x="105" y="392" type="curve" smooth="yes"/>
      <point x="105" y="221"/>
      <point x="351" y="-10"/>
      <point x="394" y="-10" type="curve" smooth="yes"/>
      <point x="404" y="-10"/>
      <point x="451" y="1"/>
      <point x="494" y="20" type="curve"/>
      <point x="488" y="43" type="line"/>
      <point x="463" y="37"/>
      <point x="437" y="41"/>
      <point x="414" y="60" type="curve"/>
      <point x="324" y="134"/>
      <point x="175" y="299"/>
      <point x="175" y="413" type="curve" smooth="yes"/>
      <point x="175" y="452"/>
      <point x="189" y="486"/>
      <point x="218" y="486" type="curve" smooth="yes"/>
      <point x="245" y="486"/>
      <point x="263" y="462"/>
      <point x="263" y="428" type="curve" smooth="yes"/>
      <point x="263" y="396"/>
      <point x="248" y="357"/>
      <point x="192" y="326" type="curve" smooth="yes"/>
      <point x="79" y="263"/>
      <point x="25" y="194"/>
      <point x="25" y="128" type="curve" smooth="yes"/>
      <point x="25" y="37"/>
      <point x="87" y="-10"/>
      <point x="186" y="-10" type="curve" smooth="yes"/>
      <point x="317" y="-10"/>
      <point x="422" y="113"/>
      <point x="422" y="198" type="curve" smooth="yes"/>
      <point x="422" y="220"/>
      <point x="420" y="234"/>
      <point x="410" y="249" type="curve"/>
      <point x="426" y="248"/>
      <point x="451" y="240"/>
      <point x="469" y="232" type="curve"/>
      <point x="481" y="240"/>
      <point x="497" y="258"/>
    </contour>
  </outline>
</glyph>
<glyph name="quotesingle" format="2">
  <advance width="194"/>
  <unicode hex="0027"/>
  <outline>
    <contour>
      <point x="120" y="290" type="curve"/>
      <point x="146" y="506" type="line"/>
      <point x="128" y="516" type="line"/>
      <point x="118" y="514"/>
      <point x="58" y="492"/>
      <point x="47" y="486" type="curve"/>
      <point x="76" y="283" type="line"/>
      <point x="87" y="283"/>
      <point x="113" y="287"/>
    </contour>
  </outline>
</glyph>
<glyph name="parenleft" format="2">
  <advance width="236"/>
  <unicode hex="0028"/>
  <outline>
    <contour>
      <point x="209" y="-109" type="curve"/>
      <point x="228" y="-83" type="line"/>
      <point x="162" y="-19"/>
      <point x="127" y="91"/>
      <point x="127" y="227" type="curve" smooth="yes"/>
      <point x="127" y="376"/>
      <point x="172" y="476"/>
      <point x="228" y="531" type="curve"/>
      <point x="209" y="558" type="line"/>
      <point x="103" y="495"/>
      <point x="36" y="370"/>
      <point x="36" y="217" type="curve" smooth="yes"/>
      <point x="36" y="69"/>
      <point x="93" y="-48"/>
    </contour>
  </outline>
</glyph>
<glyph name="asterisk" format="2">
  <advance width="333"/>
  <unicode hex="002A"/>
  <outline>
    <contour>
      <point x="182" y="442" type="line"/>
      <point x="200" y="560" type="line"/>
      <point x="185" y="571" type="line"/>
      <point x="174" y="569"/>
      <point x="143" y="555"/>
      <point x="133" y="550" type="curve"/>
      <point x="150" y="442" type="line"/>
      <point x="57" y="516" type="line"/>
      <point x="40" y="509" type="line"/>
      <point x="36" y="498"/>
      <point x="33" y="465"/>
      <point x="32" y="453" type="curve"/>
      <point x="135" y="414" type="line"/>
      <point x="24" y="371" type="line"/>
      <point x="22" y="352" type="line"/>
      <point x="29" y="345"/>
      <point x="56" y="325"/>
      <point x="66" y="318" type="curve"/>
      <point x="151" y="387" type="line"/>
      <point x="132" y="270" type="line"/>
      <point x="148" y="259" type="line"/>
      <point x="159" y="261"/>
      <point x="189" y="274"/>
      <point x="199" y="280" type="curve"/>
      <point x="183" y="387" type="line"/>
      <point x="275" y="313" type="line"/>
      <point x="292" y="321" type="line"/>
      <point x="296" y="331"/>
      <point x="299" y="364"/>
      <point x="300" y="376" type="curve"/>
      <point x="198" y="415" type="line"/>
      <point x="309" y="459" type="line"/>
      <point x="310" y="477" type="line"/>
      <point x="303" y="485"/>
      <point x="276" y="505"/>
      <point x="266" y="511" type="curve"/>
    </contour>
  </outline>
</glyph>
<glyph name="plus" format="2">
  <advance width="313"/>
  <unicode hex="002B"/>
  <outline>
    <contour>
      <point x="292" y="219" type="curve"/>
      <point x="281" y="230" type="line"/>
      <point x="35" y="230" type="line"/>
      <point x="30" y="220"/>
      <point x="22" y="202"/>
      <point x="20" y="192" type="curve"/>
      <point x="31" y="181" type="line"/>
      <point x="277" y="181" type="line"/>
      <point x="281" y="189"/>
      <point x="290" y="209"/>
    </contour>
    <contour>
      <point x="181" y="83" type="curve"/>
      <point x="181" y="331" type="line"/>
      <point x="171" y="341" type="line"/>
      <point x="160" y="338"/>
      <point x="141" y="331"/>
      <point x="132" y="329" type="curve"/>
      <point x="132" y="80" type="line"/>
      <point x="143" y="70" type="line"/>
      <point x="153" y="72"/>
      <point x="172" y="78"/>
    </contour>
  </outline>
</glyph>
<glyph name="comma" format="2">
  <advance width="270"/>
  <unicode hex="002C"/>
  <outline>
    <contour>
      <point x="169" y="86" type="curve" smooth="yes"/>
      <point x="144" y="86"/>
      <point x="126" y="74"/>
      <point x="113" y="58" type="curve"/>
      <point x="139" y="24"/>
      <point x="152" y="5"/>
      <point x="152" y="0" type="curve" smooth="yes"/>
      <point x="152" y="-21"/>
      <point x="97" y="-79"/>
      <point x="91" y="-85" type="curve"/>
      <point x="109" y="-128" type="line"/>
      <point x="207" y="-20"/>
      <point x="225" y="7"/>
      <point x="225" y="32" type="curve" smooth="yes"/>
      <point x="225" y="86"/>
      <point x="181" y="86"/>
    </contour>
  </outline>
</glyph>
<glyph name="hyphen" format="2">
  <advance width="399"/>
  <unicode hex="002D"/>
  <outline>
    <contour>
      <point x="350" y="169" type="line"/>
      <point x="298" y="233" type="line"/>
      <point x="49" y="233" type="line"/>
      <point x="101" y="169" type="line"/>
    </contour>
  </outline>
</glyph>
<glyph name="period" format="2">
  <advance width="212"/>
  <unicode hex="002E"/>
  <outline>
    <contour>
      <point x="109" y="93" type="curve" smooth="yes"/>
      <point x="78" y="93"/>
      <point x="55" y="75"/>
      <point x="55" y="55" type="curve" smooth="yes"/>
      <point x="55" y="16"/>
      <point x="107" y="16"/>
      <point x="109" y="16" type="curve" smooth="yes"/>
      <point x="139" y="16"/>
      <point x="164" y="31"/>
      <point x="164" y="55" type="curve" smooth="yes"/>
      <point x="164" y="78"/>
      <point x="140" y="93"/>
    </contour>
  </outline>
</glyph>
<glyph name="slash" format="2">
  <advance width="275"/>
  <unicode hex="002F"/>
  <outline>
    <contour>
      <point x="281" y="522" type="line"/>
      <point x="209" y="522" type="line"/>
      <point x="1" y="0" type="line"/>
      <point x="73" y="0" type="line"/>
    </contour>
  </outline>
</glyph>
<glyph name="one" format="2">
  <advance width="434"/>
  <unicode hex="0031"/>
  <outline>
    <contour>
      <point x="105" y="34" type="curve"/>
      <point x="105" y="0" type="line"/>
      <point x="359" y="0" type="line"/>
      <point x="359" y="34" type="line"/>
      <point x="320" y="37"/>
      <point x="297" y="43"/>
      <point x="288" y="51" type="curve" smooth="yes"/>
      <point x="279" y="59"/>
      <point x="275" y="79"/>
      <point x="275" y="111" type="curve" smooth="yes"/>
      <point x="275" y="477" type="line"/>
      <point x="240" y="477" type="line"/>
      <point x="105" y="455" type="line"/>
      <point x="105" y="421" type="line"/>
      <point x="126" y="421" type="line" smooth="yes"/>
      <point x="155" y="421"/>
      <point x="173" y="417"/>
      <point x="180" y="410" type="curve" smooth="yes"/>
      <point x="187" y="402"/>
      <point x="190" y="384"/>
      <point x="190" y="355" type="curve" smooth="yes"/>
      <point x="190" y="88" type="line" smooth="yes"/>
      <point x="190" y="47"/>
      <point x="190" y="47"/>
    </contour>
  </outline>
</glyph>
<glyph name="two" format="2">
  <advance width="361"/>
  <unicode hex="0032"/>
  <outline>
    <contour>
      <point x="317" y="0" type="line"/>
      <point x="322" y="123" type="line"/>
      <point x="295" y="130" type="line"/>
      <point x="293" y="100"/>
      <point x="282" y="60"/>
      <point x="259" y="60" type="curve" smooth="yes"/>
      <point x="120" y="60" type="line"/>
      <point x="269" y="225"/>
      <point x="318" y="279"/>
      <point x="318" y="342" type="curve" smooth="yes"/>
      <point x="318" y="400"/>
      <point x="271" y="430"/>
      <point x="199" y="430" type="curve" smooth="yes"/>
      <point x="112" y="430"/>
      <point x="38" y="369"/>
      <point x="38" y="321" type="curve"/>
      <point x="50" y="298" type="line"/>
      <point x="71" y="300"/>
      <point x="111" y="311"/>
      <point x="126" y="320" type="curve"/>
      <point x="125" y="327"/>
      <point x="125" y="334"/>
      <point x="126" y="341" type="curve" smooth="yes"/>
      <point x="128" y="368"/>
      <point x="145" y="391"/>
      <point x="175" y="391" type="curve" smooth="yes"/>
      <point x="214" y="391"/>
      <point x="230" y="361"/>
      <point x="230" y="322" type="curve" smooth="yes"/>
      <point x="230" y="272"/>
      <point x="192" y="217"/>
      <point x="28" y="25" type="curve"/>
      <point x="39" y="0" type="line"/>
    </contour>
  </outline>
</glyph>
<glyph name="three" format="2">
  <advance width="434"/>
  <unicode hex="0033"/>
  <outline>
    <contour>
      <point x="387" y="369" type="curve" smooth="yes"/>
      <point x="387" y="412"/>
      <point x="348" y="489"/>
      <point x="213" y="489" type="curve" smooth="yes"/>
      <point x="109" y="489"/>
      <point x="47" y="424"/>
      <point x="47" y="371" type="curve" smooth="yes"/>
      <point x="47" y="347"/>
      <point x="60" y="318"/>
      <point x="94" y="318" type="curve" smooth="yes"/>
      <point x="118" y="318"/>
      <point x="141" y="335"/>
      <point x="141" y="360" type="curve" smooth="yes"/>
      <point x="141" y="370"/>
      <point x="129" y="390"/>
      <point x="129" y="398" type="curve" smooth="yes"/>
      <point x="129" y="441"/>
      <point x="192" y="444"/>
      <point x="209" y="444" type="curve" smooth="yes"/>
      <point x="259" y="444"/>
      <point x="295" y="413"/>
      <point x="295" y="364" type="curve" smooth="yes"/>
      <point x="295" y="291"/>
      <point x="222" y="282"/>
      <point x="188" y="282" type="curve" smooth="yes"/>
      <point x="148" y="283" type="line"/>
      <point x="148" y="238" type="line"/>
      <point x="201" y="241" type="line"/>
      <point x="298" y="241"/>
      <point x="316" y="182"/>
      <point x="316" y="138" type="curve" smooth="yes"/>
      <point x="316" y="42"/>
      <point x="232" y="34"/>
      <point x="206" y="34" type="curve" smooth="yes"/>
      <point x="150" y="34"/>
      <point x="112" y="56"/>
      <point x="112" y="81" type="curve"/>
      <point x="113" y="94" type="line"/>
      <point x="118" y="104"/>
      <point x="118" y="104"/>
      <point x="118" y="110" type="curve" smooth="yes"/>
      <point x="118" y="138"/>
      <point x="99" y="157"/>
      <point x="71" y="157" type="curve" smooth="yes"/>
      <point x="37" y="157"/>
      <point x="21" y="129"/>
      <point x="21" y="104" type="curve" smooth="yes"/>
      <point x="21" y="45"/>
      <point x="93" y="-12"/>
      <point x="202" y="-12" type="curve" smooth="yes"/>
      <point x="352" y="-12"/>
      <point x="411" y="76"/>
      <point x="411" y="139" type="curve" smooth="yes"/>
      <point x="411" y="228"/>
      <point x="331" y="257"/>
      <point x="297" y="265" type="curve"/>
      <point x="382" y="292"/>
      <point x="387" y="356"/>
    </contour>
  </outline>
</glyph>
<glyph name="five" format="2">
  <advance width="434"/>
  <unicode hex="0035"/>
  <outline>
    <contour>
      <point x="231" y="328" type="curve" smooth="yes"/>
      <point x="190" y="328"/>
      <point x="153" y="317"/>
      <point x="120" y="294" type="curve"/>
      <point x="120" y="407" type="line"/>
      <point x="357" y="407" type="line"/>
      <point x="371" y="502" type="line"/>
      <point x="330" y="502" type="line"/>
      <point x="326" y="482"/>
      <point x="320" y="478"/>
      <point x="290" y="478" type="curve" smooth="yes"/>
      <point x="62" y="478" type="line"/>
      <point x="62" y="220" type="line"/>
      <point x="103" y="211" type="line"/>
      <point x="130" y="254"/>
      <point x="165" y="275"/>
      <point x="210" y="275" type="curve" smooth="yes"/>
      <point x="267" y="275"/>
      <point x="322" y="239"/>
      <point x="322" y="156" type="curve" smooth="yes"/>
      <point x="322" y="88"/>
      <point x="279" y="34"/>
      <point x="200" y="34" type="curve" smooth="yes"/>
      <point x="199" y="34"/>
      <point x="126" y="34"/>
      <point x="126" y="72" type="curve" smooth="yes"/>
      <point x="126" y="81"/>
      <point x="133" y="94"/>
      <point x="133" y="103" type="curve" smooth="yes"/>
      <point x="133" y="130"/>
      <point x="112" y="149"/>
      <point x="84" y="149" type="curve" smooth="yes"/>
      <point x="53" y="149"/>
      <point x="35" y="126"/>
      <point x="35" y="98" type="curve" smooth="yes"/>
      <point x="35" y="20"/>
      <point x="146" y="-12"/>
      <point x="211" y="-12" type="curve" smooth="yes"/>
      <point x="315" y="-12"/>
      <point x="417" y="47"/>
      <point x="417" y="169" type="curve" smooth="yes"/>
      <point x="417" y="281"/>
      <point x="320" y="328"/>
    </contour>
  </outline>
</glyph>
<glyph name="six" format="2">
  <advance width="434"/>
  <unicode hex="0036"/>
  <outline>
    <contour>
      <point x="244" y="309" type="curve" smooth="yes"/>
      <point x="191" y="309"/>
      <point x="149" y="293"/>
      <point x="118" y="261" type="curve"/>
      <point x="118" y="269" type="line" smooth="yes"/>
      <point x="118" y="310"/>
      <point x="127" y="441"/>
      <point x="244" y="441" type="curve" smooth="yes"/>
      <point x="296" y="441"/>
      <point x="308" y="425"/>
      <point x="308" y="410" type="curve" smooth="yes"/>
      <point x="308" y="385"/>
      <point x="320" y="350"/>
      <point x="360" y="350" type="curve" smooth="yes"/>
      <point x="385" y="350"/>
      <point x="405" y="367"/>
      <point x="405" y="392" type="curve" smooth="yes"/>
      <point x="405" y="454"/>
      <point x="307" y="489"/>
      <point x="246" y="489" type="curve" smooth="yes"/>
      <point x="212" y="489"/>
      <point x="179" y="481"/>
      <point x="148" y="466" type="curve" smooth="yes"/>
      <point x="59" y="423"/>
      <point x="24" y="334"/>
      <point x="24" y="221" type="curve" smooth="yes"/>
      <point x="24" y="0"/>
      <point x="190" y="-12"/>
      <point x="225" y="-12" type="curve" smooth="yes"/>
      <point x="326" y="-12"/>
      <point x="421" y="50"/>
      <point x="421" y="153" type="curve" smooth="yes"/>
      <point x="421" y="257"/>
      <point x="333" y="309"/>
    </contour>
    <contour>
      <point x="223" y="36" type="curve" smooth="yes"/>
      <point x="156" y="36"/>
      <point x="123" y="86"/>
      <point x="123" y="142" type="curve" smooth="yes"/>
      <point x="123" y="250"/>
      <point x="205" y="259"/>
      <point x="231" y="259" type="curve" smooth="yes"/>
      <point x="301" y="259"/>
      <point x="329" y="201"/>
      <point x="329" y="150" type="curve" smooth="yes"/>
      <point x="329" y="43"/>
      <point x="246" y="36"/>
    </contour>
  </outline>
</glyph>
<glyph name="nine" format="2">
  <advance width="361"/>
  <unicode hex="0039"/>
  <outline>
    <contour>
      <point x="334" y="254" type="curve"/>
      <point x="334" y="378"/>
      <point x="272" y="430"/>
      <point x="186" y="430" type="curve" smooth="yes"/>
      <point x="94" y="430"/>
      <point x="29" y="347"/>
      <point x="29" y="277" type="curve" smooth="yes"/>
      <point x="29" y="207"/>
      <point x="73" y="147"/>
      <point x="155" y="147" type="curve" smooth="yes"/>
      <point x="206" y="147"/>
      <point x="252" y="183"/>
      <point x="276" y="231" type="curve"/>
      <point x="272" y="278" type="line"/>
      <point x="254" y="239"/>
      <point x="221" y="198"/>
      <point x="178" y="198" type="curve" smooth="yes"/>
      <point x="154" y="198"/>
      <point x="115" y="220"/>
      <point x="115" y="298" type="curve" smooth="yes"/>
      <point x="115" y="353"/>
      <point x="138" y="386"/>
      <point x="177" y="386" type="curve" smooth="yes"/>
      <point x="210" y="386"/>
      <point x="245" y="359"/>
      <point x="245" y="223" type="curve" smooth="yes"/>
      <point x="245" y="126"/>
      <point x="212" y="52"/>
      <point x="62" y="16" type="curve"/>
      <point x="71" y="-14" type="line"/>
      <point x="247" y="5"/>
      <point x="334" y="113"/>
    </contour>
  </outline>
</glyph>
<glyph name="less" format="2">
  <advance width="336"/>
  <unicode hex="003C"/>
  <outline>
    <contour>
      <point x="316" y="323" type="curve"/>
      <point x="305" y="334" type="line"/>
      <point x="33" y="234" type="line"/>
      <point x="29" y="225"/>
      <point x="22" y="203"/>
      <point x="20" y="193" type="curve"/>
      <point x="31" y="180" type="line"/>
      <point x="303" y="279" type="line"/>
      <point x="306" y="288"/>
      <point x="313" y="313"/>
    </contour>
    <contour>
      <point x="316" y="120" type="curve"/>
      <point x="308" y="135" type="line"/>
      <point x="33" y="234" type="line"/>
      <point x="29" y="225"/>
      <point x="22" y="203"/>
      <point x="20" y="193" type="curve"/>
      <point x="31" y="180" type="line"/>
      <point x="280" y="90" type="line"/>
      <point x="295" y="99"/>
      <point x="305" y="110"/>
    </contour>
  </outline>
</glyph>
<glyph name="equal" format="2">
  <advance width="324"/>
  <unicode hex="003D"/>
  <outline>
    <contour>
      <point x="305" y="262" type="curve"/>
      <point x="294" y="273" type="line"/>
      <point x="34" y="273" type="line"/>
      <point x="30" y="264"/>
      <point x="20" y="244"/>
      <point x="18" y="234" type="curve"/>
      <point x="29" y="223" type="line"/>
      <point x="290" y="223" type="line"/>
      <point x="293" y="230"/>
      <point x="303" y="252"/>
    </contour>
    <contour>
      <point x="305" y="157" type="curve"/>
      <point x="294" y="168" type="line"/>
      <point x="34" y="168" type="line"/>
      <point x="30" y="159"/>
      <point x="20" y="139"/>
      <point x="18" y="129" type="curve"/>
      <point x="29" y="118" type="line"/>
      <point x="290" y="118" type="line"/>
      <point x="293" y="126"/>
      <point x="303" y="147"/>
    </contour>
  </outline>
</glyph>
<glyph name="greater" format="2">
  <advance width="336"/>
  <unicode hex="003E"/>
  <outline>
    <contour>
      <point x="316" y="231" type="curve"/>
      <point x="305" y="243" type="line"/>
      <point x="56" y="334" type="line"/>
      <point x="44" y="326"/>
      <point x="31" y="313"/>
      <point x="20" y="304" type="curve"/>
      <point x="28" y="288" type="line"/>
      <point x="228" y="215" type="line"/>
      <point x="33" y="144" type="line"/>
      <point x="29" y="135"/>
      <point x="23" y="110"/>
      <point x="20" y="101" type="curve"/>
      <point x="31" y="90" type="line"/>
      <point x="303" y="189" type="line"/>
      <point x="307" y="200"/>
      <point x="313" y="219"/>
    </contour>
  </outline>
</glyph>
<glyph name="at" format="2">
  <advance width="640"/>
  <unicode hex="0040"/>
  <outline>
    <contour>
      <point x="610" y="206" type="curve"/>
      <point x="610" y="399"/>
      <point x="505" y="495"/>
      <point x="351" y="495" type="curve" smooth="yes"/>
      <point x="172" y="495"/>
      <point x="29" y="343"/>
      <point x="29" y="170" type="curve" smooth="yes"/>
      <point x="29" y="-26"/>
      <point x="153" y="-146"/>
      <point x="331" y="-146" type="curve" smooth="yes"/>
      <point x="445" y="-146"/>
      <point x="522" y="-93"/>
      <point x="557" y="-54" type="curve"/>
      <point x="543" y="-26" type="line"/>
      <point x="513" y="-51"/>
      <point x="438" y="-89"/>
      <point x="348" y="-89" type="curve" smooth="yes"/>
      <point x="214" y="-89"/>
      <point x="102" y="9"/>
      <point x="102" y="191" type="curve" smooth="yes"/>
      <point x="102" y="324"/>
      <point x="187" y="438"/>
      <point x="336" y="438" type="curve" smooth="yes"/>
      <point x="462" y="438"/>
      <point x="548" y="353"/>
      <point x="548" y="187" type="curve" smooth="yes"/>
      <point x="548" y="105"/>
      <point x="510" y="52"/>
      <point x="485" y="52" type="curve" smooth="yes"/>
      <point x="464" y="52"/>
      <point x="455" y="69"/>
      <point x="455" y="104" type="curve" smooth="yes"/>
      <point x="455" y="259" type="line" smooth="yes"/>
      <point x="455" y="288"/>
      <point x="461" y="323"/>
      <point x="466" y="340" type="curve"/>
      <point x="455" y="351" type="line"/>
      <point x="436" y="336"/>
      <point x="420" y="327"/>
      <point x="398" y="318" type="curve"/>
      <point x="373" y="346"/>
      <point x="358" y="351"/>
      <point x="336" y="351" type="curve" smooth="yes"/>
      <point x="237" y="351"/>
      <point x="177" y="250"/>
      <point x="177" y="160" type="curve" smooth="yes"/>
      <point x="177" y="46"/>
      <point x="235" y="-10"/>
      <point x="285" y="-10" type="curve" smooth="yes"/>
      <point x="324" y="-10"/>
      <point x="340" y="1"/>
      <point x="380" y="52" type="curve"/>
      <point x="389" y="4"/>
      <point x="410" y="-10"/>
      <point x="438" y="-10" type="curve" smooth="yes"/>
      <point x="517" y="-10"/>
      <point x="610" y="81"/>
    </contour>
    <contour>
      <point x="378" y="267" type="curve"/>
      <point x="378" y="98" type="line"/>
      <point x="348" y="60"/>
      <point x="337" y="51"/>
      <point x="318" y="51" type="curve" smooth="yes"/>
      <point x="289" y="51"/>
      <point x="254" y="88"/>
      <point x="254" y="172" type="curve" smooth="yes"/>
      <point x="254" y="263"/>
      <point x="282" y="305"/>
      <point x="328" y="305" type="curve" smooth="yes"/>
      <point x="354" y="305"/>
      <point x="366" y="291"/>
    </contour>
  </outline>
</glyph>
<glyph name="A" format="2">
  <advance width="462"/>
  <unicode hex="0041"/>
  <anchor x="227" y="0" name="H"/>
  <anchor x="227" y="501" name="U"/>
  <outline>
    <contour>
      <point x="142" y="159" type="line"/>
      <point x="288" y="159" type="line"/>
      <point x="327" y="47" type="line" smooth="yes"/>
      <point x="333" y="31"/>
      <point x="320" y="25"/>
      <point x="282" y="23" type="curve"/>
      <point x="282" y="0" type="line"/>
      <point x="455" y="0" type="line"/>
      <point x="455" y="23" type="line"/>
      <point x="423" y="26"/>
      <point x="413" y="34"/>
      <point x="409" y="47" type="curve" smooth="yes"/>
      <point x="255" y="482" type="line"/>
      <point x="234" y="474"/>
      <point x="205" y="462"/>
      <point x="186" y="445" type="curve"/>
      <point x="56" y="47" type="line" smooth="yes"/>
      <point x="51" y="33"/>
      <point x="32" y="28"/>
      <point x="0" y="23" type="curve"/>
      <point x="0" y="0" type="line"/>
      <point x="157" y="0" type="line"/>
      <point x="157" y="23" type="line"/>
      <point x="117" y="27"/>
      <point x="100" y="32"/>
      <point x="105" y="47" type="curve" smooth="yes"/>
    </contour>
    <contour>
      <point x="274" y="199" type="line"/>
      <point x="155" y="199" type="line"/>
      <point x="213" y="375" type="line"/>
    </contour>
  </outline>
</glyph>
<glyph name="B" format="2">
  <advance width="437"/>
  <unicode hex="0042"/>
  <anchor x="205" y="501" name="U"/>
  <outline>
    <contour>
      <point x="399" y="130" type="curve"/>
      <point x="399" y="198"/>
      <point x="349" y="252"/>
      <point x="280" y="264" type="curve"/>
      <point x="330" y="281"/>
      <point x="358" y="321"/>
      <point x="358" y="373" type="curve" smooth="yes"/>
      <point x="358" y="435"/>
      <point x="293" y="472"/>
      <point x="186" y="472" type="curve" smooth="yes"/>
      <point x="129" y="472"/>
      <point x="54" y="461"/>
      <point x="12" y="450" type="curve"/>
      <point x="16" y="422" type="line"/>
      <point x="57" y="429"/>
      <point x="125" y="436"/>
      <point x="164" y="436" type="curve" smooth="yes"/>
      <point x="251" y="436"/>
      <point x="278" y="404"/>
      <point x="278" y="355" type="curve" smooth="yes"/>
      <point x="278" y="313"/>
      <point x="258" y="269"/>
      <point x="157" y="269" type="curve" smooth="yes"/>
      <point x="124" y="269" type="line"/>
      <point x="128" y="226" type="line"/>
      <point x="148" y="231"/>
      <point x="169" y="235"/>
      <point x="201" y="235" type="curve" smooth="yes"/>
      <point x="286" y="235"/>
      <point x="315" y="175"/>
      <point x="315" y="121" type="curve" smooth="yes"/>
      <point x="315" y="66"/>
      <point x="276" y="31"/>
      <point x="205" y="31" type="curve" smooth="yes"/>
      <point x="183" y="31"/>
      <point x="159" y="33"/>
      <point x="144" y="41" type="curve"/>
      <point x="45" y="0" type="line"/>
      <point x="95" y="-2"/>
      <point x="171" y="-5"/>
      <point x="217" y="-5" type="curve"/>
      <point x="329" y="-5"/>
      <point x="399" y="47"/>
    </contour>
    <contour>
      <point x="16" y="0" type="line"/>
      <point x="195" y="0" type="line"/>
      <point x="195" y="21" type="line"/>
      <point x="160" y="27"/>
      <point x="148" y="37"/>
      <point x="148" y="43" type="curve" smooth="yes"/>
      <point x="148" y="450" type="line"/>
      <point x="67" y="443" type="line"/>
      <point x="67" y="45" type="line" smooth="yes"/>
      <point x="67" y="38"/>
      <point x="49" y="29"/>
      <point x="16" y="23" type="curve"/>
    </contour>
  </outline>
</glyph>
<glyph name="C" format="2">
  <advance width="413"/>
  <unicode hex="0043"/>
  <anchor x="218" y="0" name="H"/>
  <anchor x="230" y="501" name="U"/>
  <outline>
    <contour>
      <point x="385" y="77" type="curve"/>
      <point x="383" y="80"/>
      <point x="373" y="96"/>
      <point x="368" y="99" type="curve"/>
      <point x="316" y="56"/>
      <point x="270" y="43"/>
      <point x="244" y="43" type="curve" smooth="yes"/>
      <point x="178" y="43"/>
      <point x="102" y="101"/>
      <point x="102" y="228" type="curve" smooth="yes"/>
      <point x="102" y="380"/>
      <point x="173" y="426"/>
      <point x="224" y="426" type="curve" smooth="yes"/>
      <point x="264" y="426"/>
      <point x="297" y="408"/>
      <point x="321" y="372" type="curve"/>
      <point x="342" y="368" type="line"/>
      <point x="353" y="380"/>
      <point x="384" y="431"/>
      <point x="378" y="435" type="curve" smooth="yes"/>
      <point x="353" y="455"/>
      <point x="303" y="472"/>
      <point x="251" y="472" type="curve" smooth="yes"/>
      <point x="123" y="472"/>
      <point x="21" y="370"/>
      <point x="21" y="214" type="curve" smooth="yes"/>
      <point x="21" y="72"/>
      <point x="116" y="-10"/>
      <point x="212" y="-10" type="curve" smooth="yes"/>
      <point x="266" y="-10"/>
      <point x="323" y="12"/>
    </contour>
  </outline>
</glyph>
<glyph name="D" format="2">
  <advance width="466"/>
  <unicode hex="0044"/>
  <anchor x="211" y="501" name="U"/>
  <outline>
    <contour>
      <point x="16" y="0" type="line"/>
      <point x="30" y="0" type="line" smooth="yes"/>
      <point x="98" y="0"/>
      <point x="135" y="0"/>
      <point x="192" y="0" type="curve" smooth="yes"/>
      <point x="219" y="0" type="line" smooth="yes"/>
      <point x="314" y="0"/>
      <point x="435" y="64"/>
      <point x="435" y="247" type="curve" smooth="yes"/>
      <point x="435" y="389"/>
      <point x="349" y="472"/>
      <point x="204" y="472" type="curve" smooth="yes"/>
      <point x="142" y="472"/>
      <point x="58" y="462"/>
      <point x="12" y="450" type="curve"/>
      <point x="16" y="420" type="line"/>
      <point x="31" y="422"/>
      <point x="48" y="425"/>
      <point x="67" y="427" type="curve"/>
      <point x="67" y="45" type="line" smooth="yes"/>
      <point x="67" y="38"/>
      <point x="49" y="29"/>
      <point x="16" y="23" type="curve"/>
    </contour>
    <contour>
      <point x="207" y="36" type="curve" smooth="yes"/>
      <point x="177" y="36"/>
      <point x="148" y="39"/>
      <point x="148" y="60" type="curve" smooth="yes"/>
      <point x="148" y="435" type="line"/>
      <point x="158" y="435"/>
      <point x="168" y="436"/>
      <point x="178" y="436" type="curve" smooth="yes"/>
      <point x="288" y="436"/>
      <point x="348" y="362"/>
      <point x="348" y="233" type="curve" smooth="yes"/>
      <point x="348" y="95"/>
      <point x="267" y="36"/>
    </contour>
  </outline>
</glyph>
<glyph name="E" format="2">
  <advance width="386"/>
  <unicode hex="0045"/>
  <anchor x="192" y="0" name="H"/>
  <anchor x="192" y="501" name="U"/>
  <outline>
    <contour>
      <point x="343" y="450" type="curve"/>
      <point x="329" y="461" type="line"/>
      <point x="139" y="461" type="line"/>
      <point x="129" y="421" type="line"/>
      <point x="275" y="421" type="line" smooth="yes"/>
      <point x="292" y="421"/>
      <point x="302" y="400"/>
      <point x="305" y="355" type="curve"/>
      <point x="328" y="355" type="line"/>
      <point x="334" y="373"/>
      <point x="342" y="425"/>
    </contour>
    <contour>
      <point x="306" y="257" type="curve"/>
      <point x="294" y="269" type="line"/>
      <point x="132" y="269" type="line"/>
      <point x="124" y="232" type="line"/>
      <point x="199" y="232" type="line" smooth="yes"/>
      <point x="240" y="232"/>
      <point x="257" y="227"/>
      <point x="272" y="212" type="curve"/>
      <point x="283" y="220"/>
      <point x="298" y="243"/>
    </contour>
    <contour>
      <point x="367" y="104" type="curve"/>
      <point x="344" y="112" type="line"/>
      <point x="323" y="55"/>
      <point x="307" y="40"/>
      <point x="262" y="40" type="curve" smooth="yes"/>
      <point x="223" y="40" type="line" smooth="yes"/>
      <point x="158" y="40"/>
      <point x="148" y="49"/>
      <point x="148" y="63" type="curve" smooth="yes"/>
      <point x="148" y="423" type="line" smooth="yes"/>
      <point x="148" y="430"/>
      <point x="168" y="435"/>
      <point x="201" y="438" type="curve"/>
      <point x="201" y="461" type="line"/>
      <point x="16" y="461" type="line"/>
      <point x="16" y="438" type="line"/>
      <point x="51" y="431"/>
      <point x="67" y="421"/>
      <point x="67" y="415" type="curve" smooth="yes"/>
      <point x="67" y="45" type="line" smooth="yes"/>
      <point x="67" y="38"/>
      <point x="49" y="29"/>
      <point x="16" y="23" type="curve"/>
      <point x="16" y="0" type="line"/>
      <point x="352" y="0" type="line"/>
      <point x="356" y="14"/>
      <point x="364" y="61"/>
    </contour>
  </outline>
</glyph>
<glyph name="F" format="2">
  <advance width="362"/>
  <unicode hex="0046"/>
  <outline>
    <contour>
      <point x="339" y="428" type="curve"/>
      <point x="325" y="439" type="line"/>
      <point x="141" y="439" type="line"/>
      <point x="131" y="397" type="line"/>
      <point x="269" y="397" type="line" smooth="yes"/>
      <point x="287" y="397"/>
      <point x="297" y="374"/>
      <point x="298" y="331" type="curve"/>
      <point x="325" y="331" type="line"/>
      <point x="330" y="349"/>
      <point x="338" y="404"/>
    </contour>
    <contour>
      <point x="290" y="243" type="curve"/>
      <point x="277" y="256" type="line"/>
      <point x="124" y="256" type="line"/>
      <point x="84" y="219" type="line"/>
      <point x="189" y="219" type="line" smooth="yes"/>
      <point x="227" y="219"/>
      <point x="244" y="213"/>
      <point x="257" y="200" type="curve"/>
      <point x="267" y="207"/>
      <point x="281" y="228"/>
    </contour>
    <contour>
      <point x="14" y="0" type="line"/>
      <point x="208" y="0" type="line"/>
      <point x="208" y="25" type="line"/>
      <point x="162" y="34"/>
      <point x="149" y="41"/>
      <point x="149" y="46" type="curve" smooth="yes"/>
      <point x="149" y="400" type="line" smooth="yes"/>
      <point x="149" y="406"/>
      <point x="173" y="410"/>
      <point x="200" y="413" type="curve"/>
      <point x="200" y="439" type="line"/>
      <point x="14" y="439" type="line"/>
      <point x="14" y="413" type="line"/>
      <point x="48" y="407"/>
      <point x="62" y="397"/>
      <point x="62" y="392" type="curve" smooth="yes"/>
      <point x="62" y="46" type="line" smooth="yes"/>
      <point x="62" y="40"/>
      <point x="46" y="31"/>
      <point x="14" y="25" type="curve"/>
    </contour>
  </outline>
</glyph>
<glyph name="G" format="2">
  <advance width="446"/>
  <unicode hex="0047"/>
  <anchor x="230" y="0" name="H"/>
  <anchor x="238" y="501" name="U"/>
  <outline>
    <contour>
      <point x="430" y="203" type="curve"/>
      <point x="430" y="227" type="line"/>
      <point x="252" y="227" type="line"/>
      <point x="252" y="203" type="line"/>
      <point x="308" y="194"/>
      <point x="316" y="184"/>
      <point x="316" y="173" type="curve" smooth="yes"/>
      <point x="316" y="35" type="line" smooth="yes"/>
      <point x="316" y="29"/>
      <point x="393" y="60"/>
      <point x="393" y="60" type="curve"/>
      <point x="393" y="173" type="line" smooth="yes"/>
      <point x="393" y="185"/>
      <point x="402" y="197"/>
    </contour>
    <contour>
      <point x="394" y="435" type="curve"/>
      <point x="362" y="458"/>
      <point x="305" y="472"/>
      <point x="273" y="472" type="curve" smooth="yes"/>
      <point x="132" y="472"/>
      <point x="21" y="375"/>
      <point x="21" y="213" type="curve" smooth="yes"/>
      <point x="21" y="62"/>
      <point x="126" y="-11"/>
      <point x="229" y="-10" type="curve" smooth="yes"/>
      <point x="274" y="-10"/>
      <point x="321" y="0"/>
      <point x="393" y="60" type="curve"/>
      <point x="390" y="63"/>
      <point x="356" y="79"/>
      <point x="350" y="82" type="curve"/>
      <point x="324" y="58"/>
      <point x="293" y="42"/>
      <point x="243" y="42" type="curve" smooth="yes"/>
      <point x="173" y="42"/>
      <point x="102" y="101"/>
      <point x="102" y="233" type="curve" smooth="yes"/>
      <point x="102" y="385"/>
      <point x="189" y="428"/>
      <point x="226" y="428" type="curve" smooth="yes"/>
      <point x="270" y="428"/>
      <point x="303" y="416"/>
      <point x="336" y="374" type="curve"/>
      <point x="355" y="370" type="line"/>
      <point x="368" y="381"/>
      <point x="401" y="429"/>
    </contour>
  </outline>
</glyph>
<glyph name="H" format="2">
  <advance width="505"/>
  <unicode hex="0048"/>
  <anchor x="108" y="0" name="H"/>
  <anchor x="249" y="501" name="U"/>
  <outline>
    <contour>
      <point x="298" y="0" type="line"/>
      <point x="481" y="0" type="line"/>
      <point x="481" y="23" type="line"/>
      <point x="446" y="29"/>
      <point x="430" y="39"/>
      <point x="430" y="45" type="curve" smooth="yes"/>
      <point x="430" y="415" type="line" smooth="yes"/>
      <point x="430" y="422"/>
      <point x="448" y="431"/>
      <point x="481" y="438" type="curve"/>
      <point x="481" y="461" type="line"/>
      <point x="298" y="461" type="line"/>
      <point x="298" y="438" type="line"/>
      <point x="333" y="431"/>
      <point x="349" y="421"/>
      <point x="349" y="415" type="curve" smooth="yes"/>
      <point x="349" y="45" type="line" smooth="yes"/>
      <point x="349" y="38"/>
      <point x="331" y="29"/>
      <point x="298" y="23" type="curve"/>
    </contour>
    <contour>
      <point x="138" y="221" type="line"/>
      <point x="357" y="221" type="line"/>
      <point x="357" y="261" type="line"/>
      <point x="138" y="261" type="line"/>
    </contour>
    <contour>
      <point x="16" y="0" type="line"/>
      <point x="199" y="0" type="line"/>
      <point x="199" y="23" type="line"/>
      <point x="164" y="29"/>
      <point x="148" y="39"/>
      <point x="148" y="45" type="curve" smooth="yes"/>
      <point x="148" y="415" type="line" smooth="yes"/>
      <point x="148" y="422"/>
      <point x="166" y="431"/>
      <point x="199" y="438" type="curve"/>
      <point x="199" y="461" type="line"/>
      <point x="16" y="461" type="line"/>
      <point x="16" y="438" type="line"/>
      <point x="51" y="431"/>
      <point x="67" y="421"/>
      <point x="67" y="415" type="curve" smooth="yes"/>
      <point x="67" y="45" type="line" smooth="yes"/>
      <point x="67" y="38"/>
      <point x="49" y="29"/>
      <point x="16" y="23" type="curve"/>
    </contour>
  </outline>
</glyph>
<glyph name="I" format="2">
  <advance width="233"/>
  <unicode hex="0049"/>
  <outline>
    <contour>
      <point x="21" y="0" type="line"/>
      <point x="204" y="0" type="line"/>
      <point x="204" y="25" type="line"/>
      <point x="171" y="31"/>
      <point x="156" y="41"/>
      <point x="156" y="46" type="curve" smooth="yes"/>
      <point x="156" y="392" type="line" smooth="yes"/>
      <point x="156" y="398"/>
      <point x="173" y="407"/>
      <point x="204" y="413" type="curve"/>
      <point x="204" y="439" type="line"/>
      <point x="21" y="439" type="line"/>
      <point x="21" y="413" type="line"/>
      <point x="55" y="407"/>
      <point x="69" y="397"/>
      <point x="69" y="392" type="curve" smooth="yes"/>
      <point x="69" y="46" type="line" smooth="yes"/>
      <point x="69" y="40"/>
      <point x="53" y="31"/>
      <point x="21" y="25" type="curve"/>
    </contour>
  </outline>
</glyph>
<glyph name="J" format="2">
  <advance width="243"/>
  <unicode hex="004A"/>
  <anchor x="126" y="501" name="U"/>
  <outline>
    <contour>
      <point x="219" y="438" type="curve"/>
      <point x="219" y="461" type="line"/>
      <point x="18" y="461" type="line"/>
      <point x="18" y="438" type="line"/>
      <point x="76" y="429"/>
      <point x="87" y="421"/>
      <point x="87" y="415" type="curve" smooth="yes"/>
      <point x="87" y="43" type="line" smooth="yes"/>
      <point x="87" y="-71"/>
      <point x="58" y="-92"/>
      <point x="32" y="-92" type="curve" smooth="yes"/>
      <point x="13" y="-92"/>
      <point x="-5" y="-85"/>
      <point x="-32" y="-64" type="curve"/>
      <point x="-46" y="-69"/>
      <point x="-87" y="-105"/>
      <point x="-87" y="-115" type="curve" smooth="yes"/>
      <point x="-87" y="-125"/>
      <point x="-47" y="-148"/>
      <point x="-9" y="-148" type="curve" smooth="yes"/>
      <point x="19" y="-148"/>
      <point x="60" y="-132"/>
      <point x="86" y="-110" type="curve" smooth="yes"/>
      <point x="124" y="-79"/>
      <point x="168" y="-40"/>
      <point x="168" y="69" type="curve" smooth="yes"/>
      <point x="168" y="415" type="line" smooth="yes"/>
      <point x="168" y="422"/>
      <point x="186" y="431"/>
    </contour>
  </outline>
</glyph>
<glyph name="K" format="2">
  <advance width="453"/>
  <unicode hex="004B"/>
  <anchor x="108" y="0" name="H"/>
  <anchor x="225" y="501" name="U"/>
  <outline>
    <contour>
      <point x="428" y="438" type="curve"/>
      <point x="428" y="461" type="line"/>
      <point x="267" y="461" type="line"/>
      <point x="267" y="438" type="line"/>
      <point x="305" y="435"/>
      <point x="311" y="432"/>
      <point x="288" y="405" type="curve" smooth="yes"/>
      <point x="144" y="235" type="line"/>
      <point x="200" y="235" type="line"/>
      <point x="369" y="415" type="line" smooth="yes"/>
      <point x="385" y="431"/>
      <point x="396" y="434"/>
    </contour>
    <contour>
      <point x="451" y="17" type="curve"/>
      <point x="449" y="40" type="line"/>
      <point x="424" y="37"/>
      <point x="404" y="37"/>
      <point x="388" y="55" type="curve" smooth="yes"/>
      <point x="196" y="264" type="line"/>
      <point x="144" y="235" type="line"/>
      <point x="325" y="10" type="line" smooth="yes"/>
      <point x="335" y="-1"/>
      <point x="345" y="-5"/>
      <point x="359" y="-5" type="curve" smooth="yes"/>
      <point x="383" y="-5"/>
      <point x="423" y="8"/>
    </contour>
    <contour>
      <point x="16" y="0" type="line"/>
      <point x="199" y="0" type="line"/>
      <point x="199" y="23" type="line"/>
      <point x="164" y="29"/>
      <point x="148" y="39"/>
      <point x="148" y="45" type="curve" smooth="yes"/>
      <point x="148" y="415" type="line" smooth="yes"/>
      <point x="148" y="422"/>
      <point x="166" y="431"/>
      <point x="199" y="438" type="curve"/>
      <point x="199" y="461" type="line"/>
      <point x="16" y="461" type="line"/>
      <point x="16" y="438" type="line"/>
      <point x="51" y="431"/>
      <point x="67" y="421"/>
      <point x="67" y="415" type="curve" smooth="yes"/>
      <point x="67" y="45" type="line" smooth="yes"/>
      <point x="67" y="38"/>
      <point x="49" y="29"/>
      <point x="16" y="23" type="curve"/>
    </contour>
  </outline>
</glyph>
<glyph name="L" format="2">
  <advance width="373"/>
  <unicode hex="004C"/>
  <anchor x="190" y="0" name="H"/>
  <anchor x="178" y="501" name="U"/>
  <outline>
    <contour>
      <point x="364" y="104" type="curve"/>
      <point x="340" y="112" type="line"/>
      <point x="320" y="55"/>
      <point x="306" y="40"/>
      <point x="261" y="40" type="curve" smooth="yes"/>
      <point x="216" y="40" type="line" smooth="yes"/>
      <point x="162" y="40"/>
      <point x="148" y="50"/>
      <point x="148" y="67" type="curve" smooth="yes"/>
      <point x="148" y="415" type="line" smooth="yes"/>
      <point x="148" y="422"/>
      <point x="166" y="431"/>
      <point x="199" y="438" type="curve"/>
      <point x="199" y="461" type="line"/>
      <point x="16" y="461" type="line"/>
      <point x="16" y="438" type="line"/>
      <point x="51" y="431"/>
      <point x="67" y="421"/>
      <point x="67" y="415" type="curve" smooth="yes"/>
      <point x="67" y="45" type="line" smooth="yes"/>
      <point x="67" y="38"/>
      <point x="49" y="29"/>
      <point x="16" y="23" type="curve"/>
      <point x="16" y="0" type="line"/>
      <point x="348" y="0" type="line"/>
      <point x="352" y="14"/>
      <point x="360" y="61"/>
    </contour>
  </outline>
</glyph>
<glyph name="M" format="2">
  <advance width="624"/>
  <unicode hex="004D"/>
  <anchor x="507" y="0" name="H"/>
  <anchor x="308" y="501" name="U"/>
  <outline>
    <contour>
      <point x="413" y="0" type="line"/>
      <point x="596" y="0" type="line"/>
      <point x="596" y="23" type="line"/>
      <point x="561" y="29"/>
      <point x="543" y="39"/>
      <point x="543" y="45" type="curve" smooth="yes"/>
      <point x="540" y="437" type="line"/>
      <point x="465" y="416" type="line"/>
      <point x="468" y="45" type="line" smooth="yes"/>
      <point x="468" y="38"/>
      <point x="446" y="29"/>
      <point x="413" y="23" type="curve"/>
    </contour>
    <contour>
      <point x="587" y="438" type="curve"/>
      <point x="587" y="461" type="line"/>
      <point x="470" y="461" type="line" smooth="yes"/>
      <point x="461" y="461"/>
      <point x="457" y="459"/>
      <point x="444" y="430" type="curve" smooth="yes"/>
      <point x="297" y="95" type="line" smooth="yes"/>
      <point x="290" y="80"/>
      <point x="295" y="61"/>
      <point x="307" y="0" type="curve"/>
      <point x="308" y="0" type="line"/>
      <point x="474" y="378" type="line" smooth="yes"/>
      <point x="488" y="410"/>
      <point x="554" y="438"/>
    </contour>
    <contour>
      <point x="316" y="96" type="curve" smooth="yes"/>
      <point x="168" y="430" type="line" smooth="yes"/>
      <point x="156" y="457"/>
      <point x="152" y="461"/>
      <point x="143" y="461" type="curve" smooth="yes"/>
      <point x="23" y="461" type="line"/>
      <point x="23" y="438" type="line"/>
      <point x="50" y="438"/>
      <point x="93" y="427"/>
      <point x="112" y="383" type="curve" smooth="yes"/>
      <point x="279" y="0" type="line"/>
      <point x="307" y="0" type="line"/>
      <point x="319" y="61"/>
      <point x="322" y="81"/>
    </contour>
    <contour>
      <point x="20" y="0" type="line"/>
      <point x="172" y="0" type="line"/>
      <point x="172" y="23" type="line"/>
      <point x="136" y="29"/>
      <point x="120" y="39"/>
      <point x="120" y="45" type="curve" smooth="yes"/>
      <point x="124" y="439" type="line"/>
      <point x="75" y="430" type="line"/>
      <point x="71" y="45" type="line" smooth="yes"/>
      <point x="71" y="38"/>
      <point x="53" y="29"/>
      <point x="20" y="23" type="curve"/>
    </contour>
  </outline>
</glyph>
<glyph name="N" format="2">
  <advance width="494"/>
  <unicode hex="004E"/>
  <anchor x="388" y="0" name="H"/>
  <anchor x="247" y="501" name="U"/>
  <outline>
    <contour>
      <point x="477" y="438" type="curve"/>
      <point x="477" y="461" type="line"/>
      <point x="324" y="461" type="line"/>
      <point x="324" y="438" type="line"/>
      <point x="363" y="432"/>
      <point x="375" y="421"/>
      <point x="375" y="415" type="curve" smooth="yes"/>
      <point x="375" y="26" type="line"/>
      <point x="426" y="11" type="line"/>
      <point x="426" y="415" type="line" smooth="yes"/>
      <point x="426" y="422"/>
      <point x="442" y="433"/>
    </contour>
    <contour>
      <point x="426" y="-10" type="curve"/>
      <point x="426" y="49" type="line"/>
      <point x="426" y="49"/>
      <point x="390" y="94"/>
      <point x="379" y="109" type="curve" smooth="yes"/>
      <point x="145" y="432" type="line" smooth="yes"/>
      <point x="127" y="458"/>
      <point x="124" y="461"/>
      <point x="110" y="461" type="curve" smooth="yes"/>
      <point x="16" y="461" type="line"/>
      <point x="16" y="438" type="line"/>
      <point x="42" y="434"/>
      <point x="67" y="418"/>
      <point x="87" y="390" type="curve" smooth="yes"/>
      <point x="353" y="20" type="line" smooth="yes"/>
      <point x="364" y="5"/>
      <point x="387" y="-7"/>
    </contour>
    <contour>
      <point x="16" y="0" type="line"/>
      <point x="170" y="0" type="line"/>
      <point x="170" y="23" type="line"/>
      <point x="132" y="28"/>
      <point x="119" y="39"/>
      <point x="119" y="45" type="curve" smooth="yes"/>
      <point x="119" y="447" type="line"/>
      <point x="67" y="430" type="line"/>
      <point x="67" y="45" type="line" smooth="yes"/>
      <point x="67" y="38"/>
      <point x="52" y="27"/>
      <point x="16" y="23" type="curve"/>
    </contour>
  </outline>
</glyph>
<glyph name="O" format="2">
  <advance width="461"/>
  <unicode hex="004F"/>
  <anchor x="219" y="0" name="H"/>
  <anchor x="231" y="501" name="U"/>
  <outline>
    <contour>
      <point x="216" y="-10" type="curve" smooth="yes"/>
      <point x="332" y="-10"/>
      <point x="431" y="104"/>
      <point x="431" y="236" type="curve" smooth="yes"/>
      <point x="431" y="356"/>
      <point x="364" y="472"/>
      <point x="237" y="472" type="curve" smooth="yes"/>
      <point x="113" y="472"/>
      <point x="22" y="357"/>
      <point x="22" y="224" type="curve" smooth="yes"/>
      <point x="22" y="101"/>
      <point x="95" y="-10"/>
    </contour>
    <contour>
      <point x="230" y="36" type="curve" smooth="yes"/>
      <point x="161" y="36"/>
      <point x="102" y="125"/>
      <point x="102" y="234" type="curve" smooth="yes"/>
      <point x="102" y="354"/>
      <point x="145" y="426"/>
      <point x="221" y="426" type="curve" smooth="yes"/>
      <point x="299" y="426"/>
      <point x="351" y="331"/>
      <point x="351" y="230" type="curve" smooth="yes"/>
      <point x="351" y="101"/>
      <point x="300" y="36"/>
    </contour>
  </outline>
</glyph>
<glyph name="P" format="2">
  <advance width="414"/>
  <unicode hex="0050"/>
  <anchor x="198" y="501" name="U"/>
  <outline>
    <contour>
      <point x="385" y="342" type="curve"/>
      <point x="385" y="426"/>
      <point x="312" y="472"/>
      <point x="201" y="472" type="curve" smooth="yes"/>
      <point x="138" y="472"/>
      <point x="63" y="463"/>
      <point x="12" y="450" type="curve"/>
      <point x="16" y="420" type="line"/>
      <point x="63" y="428"/>
      <point x="129" y="436"/>
      <point x="180" y="436" type="curve" smooth="yes"/>
      <point x="252" y="436"/>
      <point x="304" y="400"/>
      <point x="304" y="327" type="curve" smooth="yes"/>
      <point x="304" y="258"/>
      <point x="256" y="227"/>
      <point x="213" y="227" type="curve" smooth="yes"/>
      <point x="196" y="227"/>
      <point x="180" y="228"/>
      <point x="160" y="238" type="curve"/>
      <point x="171" y="203" type="line"/>
      <point x="187" y="195"/>
      <point x="209" y="192"/>
      <point x="231" y="192" type="curve" smooth="yes"/>
      <point x="294" y="192"/>
      <point x="385" y="241"/>
    </contour>
    <contour>
      <point x="16" y="0" type="line"/>
      <point x="210" y="0" type="line"/>
      <point x="210" y="23" type="line"/>
      <point x="159" y="31"/>
      <point x="148" y="39"/>
      <point x="148" y="45" type="curve" smooth="yes"/>
      <point x="148" y="437" type="line"/>
      <point x="67" y="437" type="line"/>
      <point x="67" y="45" type="line" smooth="yes"/>
      <point x="67" y="38"/>
      <point x="49" y="29"/>
      <point x="16" y="23" type="curve"/>
    </contour>
  </outline>
</glyph>
<glyph name="Q" format="2">
  <advance width="461"/>
  <unicode hex="0051"/>
  <anchor x="233" y="501" name="U"/>
  <outline>
    <contour>
      <point x="431" y="236" type="curve"/>
      <point x="431" y="356"/>
      <point x="363" y="472"/>
      <point x="237" y="472" type="curve" smooth="yes"/>
      <point x="113" y="472"/>
      <point x="21" y="357"/>
      <point x="21" y="224" type="curve" smooth="yes"/>
      <point x="21" y="98"/>
      <point x="99" y="-10"/>
      <point x="216" y="-10" type="curve" smooth="yes"/>
      <point x="332" y="-10"/>
      <point x="431" y="104"/>
    </contour>
    <contour>
      <point x="502" y="-44" type="curve"/>
      <point x="487" y="-24" type="line"/>
      <point x="458" y="-46"/>
      <point x="447" y="-51"/>
      <point x="435" y="-51" type="curve" smooth="yes"/>
      <point x="386" y="-51"/>
      <point x="330" y="2"/>
      <point x="266" y="17" type="curve" smooth="yes"/>
      <point x="254" y="21"/>
      <point x="188" y="7"/>
      <point x="188" y="7" type="curve"/>
      <point x="269" y="-5"/>
      <point x="351" y="-117"/>
      <point x="432" y="-117" type="curve" smooth="yes"/>
      <point x="447" y="-117"/>
      <point x="479" y="-87"/>
    </contour>
    <contour>
      <point x="350" y="230" type="curve"/>
      <point x="350" y="101"/>
      <point x="300" y="36"/>
      <point x="230" y="36" type="curve" smooth="yes"/>
      <point x="160" y="36"/>
      <point x="102" y="125"/>
      <point x="102" y="234" type="curve" smooth="yes"/>
      <point x="102" y="354"/>
      <point x="145" y="426"/>
      <point x="221" y="426" type="curve" smooth="yes"/>
      <point x="298" y="426"/>
      <point x="350" y="331"/>
    </contour>
  </outline>
</glyph>
<glyph name="R" format="2">
  <advance width="442"/>
  <unicode hex="0052"/>
  <anchor x="108" y="0" name="H"/>
  <anchor x="199" y="501" name="U"/>
  <outline>
    <contour>
      <point x="365" y="361" type="curve"/>
      <point x="365" y="424"/>
      <point x="312" y="472"/>
      <point x="186" y="472" type="curve" smooth="yes"/>
      <point x="118" y="472"/>
      <point x="61" y="461"/>
      <point x="12" y="450" type="curve"/>
      <point x="16" y="420" type="line"/>
      <point x="66" y="428"/>
      <point x="128" y="436"/>
      <point x="171" y="436" type="curve" smooth="yes"/>
      <point x="256" y="436"/>
      <point x="284" y="398"/>
      <point x="284" y="350" type="curve" smooth="yes"/>
      <point x="284" y="289"/>
      <point x="250" y="254"/>
      <point x="180" y="254" type="curve" smooth="yes"/>
      <point x="168" y="254"/>
      <point x="158" y="254"/>
      <point x="141" y="257" type="curve"/>
      <point x="143" y="221" type="line"/>
      <point x="158" y="217"/>
      <point x="173" y="216"/>
      <point x="187" y="216" type="curve" smooth="yes"/>
      <point x="285" y="216"/>
      <point x="365" y="267"/>
    </contour>
    <contour>
      <point x="442" y="17" type="curve"/>
      <point x="437" y="40" type="line"/>
      <point x="404" y="37"/>
      <point x="391" y="41"/>
      <point x="376" y="61" type="curve" smooth="yes"/>
      <point x="248" y="248" type="line"/>
      <point x="199" y="224" type="line"/>
      <point x="310" y="15" type="line" smooth="yes"/>
      <point x="316" y="4"/>
      <point x="332" y="-5"/>
      <point x="346" y="-5" type="curve" smooth="yes"/>
      <point x="365" y="-5"/>
      <point x="410" y="6"/>
    </contour>
    <contour>
      <point x="16" y="0" type="line"/>
      <point x="199" y="0" type="line"/>
      <point x="199" y="23" type="line"/>
      <point x="164" y="29"/>
      <point x="148" y="39"/>
      <point x="148" y="45" type="curve" smooth="yes"/>
      <point x="148" y="441" type="line"/>
      <point x="67" y="441" type="line"/>
      <point x="67" y="45" type="line" smooth="yes"/>
      <point x="67" y="38"/>
      <point x="49" y="29"/>
      <point x="16" y="23" type="curve"/>
    </contour>
  </outline>
</glyph>
<glyph name="S" format="2">
  <advance width="375"/>
  <unicode hex="0053"/>
  <anchor x="183" y="0" name="H"/>
  <anchor x="191" y="501" name="U"/>
  <outline>
    <contour>
      <point x="291" y="375" type="line"/>
      <point x="303" y="385"/>
      <point x="328" y="432"/>
      <point x="321" y="438" type="curve"/>
      <point x="303" y="458"/>
      <point x="253" y="472"/>
      <point x="203" y="472" type="curve" smooth="yes"/>
      <point x="88" y="472"/>
      <point x="42" y="398"/>
      <point x="42" y="352" type="curve" smooth="yes"/>
      <point x="42" y="210"/>
      <point x="272" y="234"/>
      <point x="272" y="114" type="curve" smooth="yes"/>
      <point x="272" y="68"/>
      <point x="229" y="38"/>
      <point x="185" y="38" type="curve" smooth="yes"/>
      <point x="135" y="38"/>
      <point x="90" y="73"/>
      <point x="68" y="131" type="curve"/>
      <point x="46" y="133" type="line"/>
      <point x="36" y="99"/>
      <point x="37" y="28"/>
      <point x="44" y="24" type="curve" smooth="yes"/>
      <point x="78" y="2"/>
      <point x="134" y="-10"/>
      <point x="168" y="-10" type="curve" smooth="yes"/>
      <point x="287" y="-10"/>
      <point x="344" y="72"/>
      <point x="344" y="138" type="curve" smooth="yes"/>
      <point x="344" y="282"/>
      <point x="112" y="280"/>
      <point x="112" y="373" type="curve" smooth="yes"/>
      <point x="112" y="401"/>
      <point x="133" y="431"/>
      <point x="183" y="431" type="curve" smooth="yes"/>
      <point x="211" y="431"/>
      <point x="247" y="418"/>
      <point x="270" y="377" type="curve"/>
    </contour>
  </outline>
</glyph>
<glyph name="T" format="2">
  <advance width="427"/>
  <unicode hex="0054"/>
  <anchor x="208" y="0" name="H"/>
  <anchor x="207" y="501" name="U"/>
  <outline>
    <contour>
      <point x="413" y="450" type="curve"/>
      <point x="400" y="461" type="line"/>
      <point x="231" y="461" type="line"/>
      <point x="220" y="421" type="line"/>
      <point x="344" y="421" type="line" smooth="yes"/>
      <point x="365" y="421"/>
      <point x="366" y="396"/>
      <point x="376" y="351" type="curve"/>
      <point x="400" y="351" type="line"/>
      <point x="406" y="382"/>
      <point x="412" y="425"/>
    </contour>
    <contour>
      <point x="70" y="421" type="curve" smooth="yes"/>
      <point x="215" y="421" type="line"/>
      <point x="208" y="461" type="line"/>
      <point x="15" y="461" type="line"/>
      <point x="10" y="435"/>
      <point x="4" y="386"/>
      <point x="1" y="357" type="curve"/>
      <point x="24" y="348" type="line"/>
      <point x="46" y="405"/>
      <point x="55" y="421"/>
    </contour>
    <contour>
      <point x="110" y="0" type="line"/>
      <point x="307" y="0" type="line"/>
      <point x="307" y="23" type="line"/>
      <point x="262" y="32"/>
      <point x="249" y="43"/>
      <point x="249" y="49" type="curve" smooth="yes"/>
      <point x="249" y="423" type="line" smooth="yes"/>
      <point x="249" y="430"/>
      <point x="268" y="431"/>
      <point x="301" y="438" type="curve"/>
      <point x="301" y="461" type="line"/>
      <point x="119" y="461" type="line"/>
      <point x="119" y="438" type="line"/>
      <point x="154" y="431"/>
      <point x="168" y="429"/>
      <point x="168" y="423" type="curve" smooth="yes"/>
      <point x="168" y="49" type="line" smooth="yes"/>
      <point x="168" y="42"/>
      <point x="155" y="32"/>
      <point x="110" y="23" type="curve"/>
    </contour>
  </outline>
</glyph>
<glyph name="U" format="2">
  <advance width="497"/>
  <unicode hex="0055"/>
  <anchor x="251" y="0" name="H"/>
  <anchor x="251" y="501" name="U"/>
  <outline>
    <contour>
      <point x="476" y="438" type="curve"/>
      <point x="476" y="461" type="line"/>
      <point x="314" y="461" type="line"/>
      <point x="314" y="438" type="line"/>
      <point x="350" y="431"/>
      <point x="366" y="421"/>
      <point x="366" y="415" type="curve" smooth="yes"/>
      <point x="366" y="180" type="line" smooth="yes"/>
      <point x="366" y="108"/>
      <point x="336" y="38"/>
      <point x="267" y="38" type="curve" smooth="yes"/>
      <point x="183" y="38"/>
      <point x="148" y="90"/>
      <point x="148" y="184" type="curve" smooth="yes"/>
      <point x="148" y="415" type="line" smooth="yes"/>
      <point x="148" y="422"/>
      <point x="166" y="431"/>
      <point x="199" y="438" type="curve"/>
      <point x="199" y="461" type="line"/>
      <point x="16" y="461" type="line"/>
      <point x="16" y="438" type="line"/>
      <point x="51" y="431"/>
      <point x="67" y="421"/>
      <point x="67" y="415" type="curve" smooth="yes"/>
      <point x="67" y="162" type="line" smooth="yes"/>
      <point x="67" y="43"/>
      <point x="146" y="-10"/>
      <point x="247" y="-10" type="curve" smooth="yes"/>
      <point x="353" y="-10"/>
      <point x="424" y="63"/>
      <point x="424" y="191" type="curve" smooth="yes"/>
      <point x="424" y="415" type="line" smooth="yes"/>
      <point x="424" y="422"/>
      <point x="443" y="431"/>
    </contour>
  </outline>
</glyph>
<glyph name="V" format="2">
  <advance width="474"/>
  <unicode hex="0056"/>
  <outline>
    <contour>
      <point x="462" y="413" type="curve"/>
      <point x="462" y="439" type="line"/>
      <point x="312" y="439" type="line"/>
      <point x="312" y="413" type="line"/>
      <point x="350" y="409"/>
      <point x="361" y="404"/>
      <point x="356" y="390" type="curve" smooth="yes"/>
      <point x="253" y="99" type="line"/>
      <point x="140" y="391" type="line" smooth="yes"/>
      <point x="135" y="404"/>
      <point x="145" y="411"/>
      <point x="182" y="413" type="curve"/>
      <point x="182" y="439" type="line"/>
      <point x="4" y="439" type="line"/>
      <point x="4" y="413" type="line"/>
      <point x="33" y="410"/>
      <point x="46" y="403"/>
      <point x="51" y="390" type="curve" smooth="yes"/>
      <point x="209" y="-10" type="line"/>
      <point x="232" y="-5"/>
      <point x="270" y="7"/>
      <point x="277" y="28" type="curve" smooth="yes"/>
      <point x="408" y="390" type="line"/>
      <point x="413" y="403"/>
      <point x="431" y="408"/>
    </contour>
  </outline>
</glyph>
<glyph name="W" format="2">
  <advance width="607"/>
  <unicode hex="0057"/>
  <outline>
    <contour>
      <point x="604" y="413" type="curve"/>
      <point x="604" y="439" type="line"/>
      <point x="448" y="439" type="line"/>
      <point x="448" y="413" type="line"/>
      <point x="479" y="408"/>
      <point x="504" y="403"/>
      <point x="502" y="392" type="curve"/>
      <point x="445" y="134" type="line"/>
      <point x="329" y="439" type="line"/>
      <point x="294" y="439" type="line"/>
      <point x="192" y="134" type="line"/>
      <point x="132" y="389" type="line" smooth="yes"/>
      <point x="130" y="399"/>
      <point x="132" y="409"/>
      <point x="177" y="413" type="curve"/>
      <point x="177" y="439" type="line"/>
      <point x="6" y="439" type="line"/>
      <point x="6" y="413" type="line"/>
      <point x="40" y="408"/>
      <point x="52" y="401"/>
      <point x="55" y="389" type="curve" smooth="yes"/>
      <point x="145" y="-10" type="line"/>
      <point x="164" y="-6"/>
      <point x="194" y="0"/>
      <point x="201" y="20" type="curve" smooth="yes"/>
      <point x="301" y="305" type="line"/>
      <point x="420" y="-10" type="line"/>
      <point x="434" y="-7"/>
      <point x="467" y="0"/>
      <point x="471" y="20" type="curve" smooth="yes"/>
      <point x="551" y="392" type="line" smooth="yes"/>
      <point x="552" y="399"/>
      <point x="562" y="405"/>
    </contour>
  </outline>
</glyph>
<glyph name="X" format="2">
  <advance width="468"/>
  <unicode hex="0058"/>
  <anchor x="234" y="501" name="U"/>
  <outline>
    <contour>
      <point x="441" y="438" type="curve"/>
      <point x="441" y="461" type="line"/>
      <point x="275" y="461" type="line"/>
      <point x="275" y="438" type="line"/>
      <point x="318" y="435"/>
      <point x="329" y="429"/>
      <point x="316" y="407" type="curve" smooth="yes"/>
      <point x="212" y="242" type="line"/>
      <point x="235" y="187" type="line"/>
      <point x="374" y="407" type="line" smooth="yes"/>
      <point x="387" y="428"/>
      <point x="405" y="434"/>
    </contour>
    <contour>
      <point x="273" y="0" type="line"/>
      <point x="459" y="0" type="line"/>
      <point x="459" y="23" type="line"/>
      <point x="430" y="26"/>
      <point x="417" y="32"/>
      <point x="403" y="53" type="curve" smooth="yes"/>
      <point x="161" y="407" type="line" smooth="yes"/>
      <point x="146" y="428"/>
      <point x="158" y="434"/>
      <point x="200" y="438" type="curve"/>
      <point x="200" y="461" type="line"/>
      <point x="13" y="461" type="line"/>
      <point x="13" y="438" type="line"/>
      <point x="45" y="433"/>
      <point x="55" y="429"/>
      <point x="70" y="407" type="curve" smooth="yes"/>
      <point x="312" y="53" type="line" smooth="yes"/>
      <point x="325" y="34"/>
      <point x="316" y="27"/>
      <point x="273" y="23" type="curve"/>
    </contour>
    <contour>
      <point x="134" y="53" type="curve" smooth="yes"/>
      <point x="236" y="211" type="line"/>
      <point x="218" y="275" type="line"/>
      <point x="76" y="53" type="line" smooth="yes"/>
      <point x="63" y="34"/>
      <point x="41" y="25"/>
      <point x="9" y="23" type="curve"/>
      <point x="9" y="0" type="line"/>
      <point x="174" y="0" type="line"/>
      <point x="174" y="23" type="line"/>
      <point x="129" y="26"/>
      <point x="120" y="32"/>
    </contour>
  </outline>
</glyph>
<glyph name="Y" format="2">
  <advance width="454"/>
  <unicode hex="0059"/>
  <anchor x="226" y="501" name="U"/>
  <outline>
    <contour>
      <point x="441" y="438" type="curve"/>
      <point x="441" y="461" type="line"/>
      <point x="291" y="461" type="line"/>
      <point x="291" y="438" type="line"/>
      <point x="328" y="433"/>
      <point x="339" y="427"/>
      <point x="331" y="414" type="curve" smooth="yes"/>
      <point x="242" y="248" type="line"/>
      <point x="208" y="318"/>
      <point x="161" y="401"/>
      <point x="125" y="448" type="curve" smooth="yes"/>
      <point x="117" y="459"/>
      <point x="103" y="465"/>
      <point x="91" y="465" type="curve" smooth="yes"/>
      <point x="71" y="465"/>
      <point x="28" y="459"/>
      <point x="0" y="455" type="curve"/>
      <point x="1" y="432" type="line"/>
      <point x="42" y="432"/>
      <point x="50" y="424"/>
      <point x="59" y="414" type="curve"/>
      <point x="96" y="364"/>
      <point x="159" y="258"/>
      <point x="194" y="177" type="curve"/>
      <point x="258" y="177" type="line"/>
      <point x="386" y="414" type="line" smooth="yes"/>
      <point x="393" y="426"/>
      <point x="408" y="432"/>
    </contour>
    <contour>
      <point x="128" y="0" type="line"/>
      <point x="325" y="0" type="line"/>
      <point x="325" y="23" type="line"/>
      <point x="280" y="32"/>
      <point x="266" y="43"/>
      <point x="266" y="49" type="curve" smooth="yes"/>
      <point x="266" y="233" type="line"/>
      <point x="186" y="233" type="line"/>
      <point x="186" y="49" type="line" smooth="yes"/>
      <point x="186" y="42"/>
      <point x="172" y="32"/>
      <point x="128" y="23" type="curve"/>
    </contour>
  </outline>
</glyph>
<glyph name="Z" format="2">
  <advance width="389"/>
  <unicode hex="005A"/>
  <outline>
    <contour>
      <point x="363" y="123" type="curve"/>
      <point x="334" y="130" type="line"/>
      <point x="316" y="73"/>
      <point x="306" y="45"/>
      <point x="286" y="45" type="curve" smooth="yes"/>
      <point x="127" y="45" type="line"/>
      <point x="360" y="421" type="line"/>
      <point x="349" y="439" type="line"/>
      <point x="115" y="439" type="line" smooth="yes"/>
      <point x="88" y="439"/>
      <point x="75" y="439"/>
      <point x="49" y="445" type="curve"/>
      <point x="36" y="319" type="line"/>
      <point x="67" y="312" type="line"/>
      <point x="77" y="360"/>
      <point x="101" y="394"/>
      <point x="116" y="394" type="curve" smooth="yes"/>
      <point x="252" y="394" type="line"/>
      <point x="17" y="18" type="line"/>
      <point x="30" y="0" type="line"/>
      <point x="359" y="0" type="line"/>
      <point x="360" y="27"/>
      <point x="362" y="93"/>
    </contour>
  </outline>
</glyph>
<glyph name="bracketleft" format="2">
  <advance width="240"/>
  <unicode hex="005B"/>
  <outline>
    <contour>
      <point x="232" y="-78" type="curve"/>
      <point x="217" y="-66" type="line"/>
      <point x="123" y="-66" type="line"/>
      <point x="123" y="507" type="line"/>
      <point x="219" y="507" type="line"/>
      <point x="222" y="513"/>
      <point x="229" y="534"/>
      <point x="231" y="546" type="curve"/>
      <point x="217" y="558" type="line"/>
      <point x="43" y="558" type="line"/>
      <point x="43" y="-116" type="line"/>
      <point x="219" y="-116" type="line"/>
      <point x="222" y="-108"/>
      <point x="230" y="-88"/>
    </contour>
  </outline>
</glyph>
<glyph name="backslash" format="2">
  <advance width="351"/>
  <unicode hex="005C"/>
  <outline>
    <contour>
      <point x="320" y="-122" type="curve"/>
      <point x="335" y="-111" type="line"/>
      <point x="82" y="566" type="line"/>
      <point x="68" y="574"/>
      <point x="46" y="582"/>
      <point x="31" y="585" type="curve"/>
      <point x="16" y="576" type="line"/>
      <point x="269" y="-102" type="line"/>
      <point x="278" y="-108"/>
      <point x="308" y="-119"/>
    </contour>
  </outline>
</glyph>
<glyph name="bracketright" format="2">
  <advance width="230"/>
  <unicode hex="005D"/>
  <outline>
    <contour>
      <point x="25" y="-122" type="line"/>
      <point x="197" y="-122" type="line"/>
      <point x="197" y="585" type="line"/>
      <point x="23" y="585" type="line"/>
      <point x="19" y="577"/>
      <point x="12" y="558"/>
      <point x="10" y="548" type="curve"/>
      <point x="25" y="536" type="line"/>
      <point x="124" y="536" type="line"/>
      <point x="124" y="-73" type="line"/>
      <point x="23" y="-73" type="line"/>
      <point x="19" y="-79"/>
      <point x="13" y="-99"/>
      <point x="11" y="-110" type="curve"/>
    </contour>
  </outline>
</glyph>
<glyph name="asciicircum" format="2">
  <advance width="351"/>
  <unicode hex="005E"/>
  <outline>
    <contour>
      <point x="316" y="221" type="curve"/>
      <point x="193" y="540" type="line"/>
      <point x="180" y="534"/>
      <point x="158" y="520"/>
      <point x="147" y="509" type="curve"/>
      <point x="34" y="206" type="line"/>
      <point x="42" y="197" type="line"/>
      <point x="52" y="201"/>
      <point x="70" y="212"/>
      <point x="80" y="221" type="curve"/>
      <point x="167" y="458" type="line"/>
      <point x="266" y="206" type="line"/>
      <point x="279" y="197" type="line"/>
      <point x="295" y="204"/>
      <point x="304" y="210"/>
    </contour>
  </outline>
</glyph>
<glyph name="underscore" format="2">
  <advance width="282"/>
  <unicode hex="005F"/>
  <outline>
    <contour>
      <point x="296" y="-56" type="curve"/>
      <point x="285" y="-45" type="line"/>
      <point x="2" y="-45" type="line"/>
      <point x="-1" y="-54"/>
      <point x="-10" y="-74"/>
      <point x="-13" y="-84" type="curve"/>
      <point x="-2" y="-95" type="line"/>
      <point x="280" y="-95" type="line"/>
      <point x="284" y="-88"/>
      <point x="294" y="-66"/>
    </contour>
  </outline>
</glyph>
<glyph name="grave" format="2">
  <advance width="227"/>
  <unicode hex="0060"/>
  <anchor x="114" y="491" name="U"/>
  <outline>
    <contour>
      <point x="157" y="378" type="curve"/>
      <point x="81" y="527" type="line"/>
      <point x="70" y="526"/>
      <point x="13" y="515"/>
      <point x="4" y="513" type="curve"/>
      <point x="-5" y="494" type="line"/>
      <point x="127" y="362" type="line"/>
      <point x="135" y="364"/>
      <point x="151" y="373"/>
    </contour>
  </outline>
</glyph>
<glyph name="a" format="2">
  <advance width="364"/>
  <unicode hex="0061"/>
  <anchor x="156" y="0" name="H"/>
  <anchor x="184" y="384" name="U"/>
  <outline>
    <contour>
      <point x="361" y="37" type="curve"/>
      <point x="353" y="61" type="line"/>
      <point x="334" y="53"/>
      <point x="326" y="51"/>
      <point x="319" y="51" type="curve" smooth="yes"/>
      <point x="310" y="51"/>
      <point x="305" y="59"/>
      <point x="305" y="79" type="curve" smooth="yes"/>
      <point x="305" y="266" type="line" smooth="yes"/>
      <point x="305" y="316"/>
      <point x="274" y="351"/>
      <point x="212" y="351" type="curve" smooth="yes"/>
      <point x="137" y="351"/>
      <point x="57" y="306"/>
      <point x="34" y="251" type="curve"/>
      <point x="41" y="233" type="line"/>
      <point x="53" y="230"/>
      <point x="126" y="250"/>
      <point x="125" y="259" type="curve" smooth="yes"/>
      <point x="122" y="288"/>
      <point x="149" y="307"/>
      <point x="175" y="307" type="curve" smooth="yes"/>
      <point x="216" y="308"/>
      <point x="228" y="284"/>
      <point x="228" y="253" type="curve" smooth="yes"/>
      <point x="228" y="60" type="line" smooth="yes"/>
      <point x="228" y="16"/>
      <point x="241" y="-10"/>
      <point x="260" y="-10" type="curve" smooth="yes"/>
      <point x="277" y="-10"/>
      <point x="319" y="8"/>
    </contour>
    <contour>
      <point x="231" y="175" type="curve"/>
      <point x="231" y="208" type="line"/>
      <point x="112" y="190"/>
      <point x="81" y="170"/>
      <point x="57" y="146" type="curve" smooth="yes"/>
      <point x="39" y="128"/>
      <point x="25" y="106"/>
      <point x="25" y="71" type="curve" smooth="yes"/>
      <point x="25" y="15"/>
      <point x="68" y="-10"/>
      <point x="107" y="-10" type="curve" smooth="yes"/>
      <point x="140" y="-10"/>
      <point x="188" y="6"/>
      <point x="234" y="55" type="curve"/>
      <point x="231" y="91" type="line"/>
      <point x="193" y="57"/>
      <point x="166" y="47"/>
      <point x="143" y="47" type="curve" smooth="yes"/>
      <point x="130" y="47"/>
      <point x="107" y="56"/>
      <point x="107" y="91" type="curve" smooth="yes"/>
      <point x="107" y="112"/>
      <point x="116" y="126"/>
      <point x="128" y="139" type="curve" smooth="yes"/>
      <point x="143" y="154"/>
      <point x="162" y="163"/>
    </contour>
  </outline>
</glyph>
<glyph name="b" format="2">
  <advance width="395"/>
  <unicode hex="0062"/>
  <anchor x="183" y="0" name="H"/>
  <anchor x="202" y="593" name="U"/>
  <outline>
    <contour>
      <point x="366" y="183" type="curve"/>
      <point x="366" y="287"/>
      <point x="320" y="351"/>
      <point x="249" y="351" type="curve" smooth="yes"/>
      <point x="221" y="351"/>
      <point x="173" y="332"/>
      <point x="124" y="284" type="curve"/>
      <point x="124" y="553" type="line"/>
      <point x="119" y="558"/>
      <point x="114" y="562"/>
      <point x="109" y="567" type="curve"/>
      <point x="75" y="552"/>
      <point x="43" y="545"/>
      <point x="1" y="538" type="curve"/>
      <point x="1" y="516" type="line"/>
      <point x="41" y="511"/>
      <point x="47" y="510"/>
      <point x="47" y="467" type="curve" smooth="yes"/>
      <point x="47" y="35" type="line"/>
      <point x="100" y="7"/>
      <point x="154" y="-10"/>
      <point x="179" y="-10" type="curve" smooth="yes"/>
      <point x="277" y="-10"/>
      <point x="366" y="98"/>
    </contour>
    <contour>
      <point x="295" y="151" type="curve"/>
      <point x="295" y="94"/>
      <point x="268" y="45"/>
      <point x="214" y="45" type="curve" smooth="yes"/>
      <point x="199" y="45"/>
      <point x="163" y="54"/>
      <point x="124" y="78" type="curve"/>
      <point x="124" y="239" type="line"/>
      <point x="161" y="280"/>
      <point x="194" y="292"/>
      <point x="211" y="292" type="curve" smooth="yes"/>
      <point x="256" y="292"/>
      <point x="295" y="248"/>
    </contour>
  </outline>
</glyph>
<glyph name="c" format="2">
  <advance width="336"/>
  <unicode hex="0063"/>
  <anchor x="184" y="0" name="H"/>
  <anchor x="184" y="384" name="U"/>
  <outline>
    <contour>
      <point x="320" y="69" type="curve"/>
      <point x="302" y="90" type="line"/>
      <point x="250" y="49"/>
      <point x="231" y="45"/>
      <point x="203" y="45" type="curve" smooth="yes"/>
      <point x="149" y="45"/>
      <point x="102" y="94"/>
      <point x="102" y="173" type="curve" smooth="yes"/>
      <point x="102" y="267"/>
      <point x="144" y="307"/>
      <point x="190" y="307" type="curve" smooth="yes"/>
      <point x="233" y="307"/>
      <point x="256" y="280"/>
      <point x="269" y="242" type="curve"/>
      <point x="290" y="238" type="line"/>
      <point x="299" y="252"/>
      <point x="318" y="310"/>
      <point x="316" y="322" type="curve"/>
      <point x="300" y="339"/>
      <point x="251" y="351"/>
      <point x="219" y="351" type="curve" smooth="yes"/>
      <point x="107" y="351"/>
      <point x="25" y="267"/>
      <point x="25" y="162" type="curve" smooth="yes"/>
      <point x="25" y="53"/>
      <point x="97" y="-10"/>
      <point x="173" y="-10" type="curve" smooth="yes"/>
      <point x="219" y="-10"/>
      <point x="256" y="-3"/>
    </contour>
  </outline>
</glyph>
<glyph name="d" format="2">
  <advance width="410"/>
  <unicode hex="0064"/>
  <anchor x="202" y="0" name="H"/>
  <anchor x="200" y="618" name="U"/>
  <outline>
    <contour>
      <point x="406" y="38" type="curve"/>
      <point x="398" y="61" type="line"/>
      <point x="370" y="49"/>
      <point x="363" y="49"/>
      <point x="358" y="53" type="curve" smooth="yes"/>
      <point x="352" y="58"/>
      <point x="349" y="69"/>
      <point x="349" y="104" type="curve" smooth="yes"/>
      <point x="349" y="554" type="line"/>
      <point x="336" y="567" type="line"/>
      <point x="311" y="559"/>
      <point x="270" y="548"/>
      <point x="221" y="543" type="curve"/>
      <point x="221" y="522" type="line"/>
      <point x="271" y="518"/>
      <point x="272" y="513"/>
      <point x="272" y="459" type="curve" smooth="yes"/>
      <point x="272" y="106" type="line" smooth="yes"/>
      <point x="272" y="26"/>
      <point x="284" y="-10"/>
      <point x="307" y="-10" type="curve" smooth="yes"/>
      <point x="320" y="-10"/>
      <point x="361" y="8"/>
    </contour>
    <contour>
      <point x="299" y="84" type="curve"/>
      <point x="298" y="87"/>
      <point x="290" y="105"/>
      <point x="284" y="108" type="curve"/>
      <point x="250" y="75"/>
      <point x="222" y="51"/>
      <point x="189" y="51" type="curve" smooth="yes"/>
      <point x="149" y="51"/>
      <point x="102" y="100"/>
      <point x="102" y="179" type="curve" smooth="yes"/>
      <point x="102" y="266"/>
      <point x="140" y="305"/>
      <point x="194" y="305" type="curve" smooth="yes"/>
      <point x="229" y="305"/>
      <point x="258" y="287"/>
      <point x="275" y="257" type="curve"/>
      <point x="291" y="266"/>
      <point x="296" y="280"/>
      <point x="296" y="309" type="curve"/>
      <point x="258" y="345"/>
      <point x="231" y="351"/>
      <point x="201" y="351" type="curve" smooth="yes"/>
      <point x="97" y="351"/>
      <point x="25" y="255"/>
      <point x="25" y="162" type="curve" smooth="yes"/>
      <point x="25" y="53"/>
      <point x="94" y="-10"/>
      <point x="156" y="-10" type="curve" smooth="yes"/>
      <point x="212" y="-10"/>
      <point x="243" y="19"/>
    </contour>
  </outline>
</glyph>
<glyph name="e" format="2">
  <advance width="357"/>
  <unicode hex="0065"/>
  <anchor x="189" y="0" name="H"/>
  <anchor x="192" y="384" name="U"/>
  <outline>
    <contour>
      <point x="331" y="202" type="curve"/>
      <point x="331" y="275"/>
      <point x="293" y="351"/>
      <point x="197" y="351" type="curve" smooth="yes"/>
      <point x="164" y="351"/>
      <point x="127" y="336"/>
      <point x="102" y="318" type="curve" smooth="yes"/>
      <point x="52" y="283"/>
      <point x="25" y="226"/>
      <point x="25" y="160" type="curve" smooth="yes"/>
      <point x="25" y="57"/>
      <point x="93" y="-10"/>
      <point x="173" y="-10" type="curve" smooth="yes"/>
      <point x="229" y="-10"/>
      <point x="262" y="1"/>
      <point x="329" y="71" type="curve"/>
      <point x="327" y="75"/>
      <point x="318" y="88"/>
      <point x="312" y="91" type="curve"/>
      <point x="255" y="50"/>
      <point x="232" y="45"/>
      <point x="201" y="45" type="curve" smooth="yes"/>
      <point x="139" y="45"/>
      <point x="104" y="105"/>
      <point x="104" y="180" type="curve" smooth="yes"/>
      <point x="104" y="257"/>
      <point x="130" y="309"/>
      <point x="185" y="309" type="curve" smooth="yes"/>
      <point x="239" y="309"/>
      <point x="253" y="253"/>
      <point x="253" y="225" type="curve" smooth="yes"/>
      <point x="253" y="215"/>
      <point x="250" y="212"/>
      <point x="239" y="212" type="curve" smooth="yes"/>
      <point x="67" y="212" type="line"/>
      <point x="66" y="173" type="line"/>
      <point x="284" y="173" type="line"/>
      <point x="299" y="180"/>
      <point x="322" y="192"/>
    </contour>
  </outline>
</glyph>
<glyph name="f" format="2">
  <advance width="247"/>
  <unicode hex="0066"/>
  <anchor x="109" y="0" name="H"/>
  <anchor x="168" y="593" name="U"/>
  <outline>
    <contour>
      <point x="317" y="532" type="curve"/>
      <point x="317" y="540"/>
      <point x="274" y="567"/>
      <point x="235" y="567" type="curve" smooth="yes"/>
      <point x="209" y="567"/>
      <point x="167" y="553"/>
      <point x="135" y="522" type="curve" smooth="yes"/>
      <point x="96" y="487"/>
      <point x="69" y="444"/>
      <point x="69" y="351" type="curve" smooth="yes"/>
      <point x="69" y="340" type="line"/>
      <point x="43" y="340" type="line"/>
      <point x="14" y="310" type="line"/>
      <point x="24" y="298" type="line"/>
      <point x="69" y="298" type="line"/>
      <point x="69" y="44" type="line" smooth="yes"/>
      <point x="69" y="38"/>
      <point x="53" y="28"/>
      <point x="20" y="23" type="curve"/>
      <point x="20" y="0" type="line"/>
      <point x="221" y="0" type="line"/>
      <point x="221" y="23" type="line"/>
      <point x="164" y="33"/>
      <point x="146" y="38"/>
      <point x="146" y="44" type="curve" smooth="yes"/>
      <point x="146" y="298" type="line"/>
      <point x="185" y="298"/>
      <point x="203" y="291"/>
      <point x="215" y="285" type="curve"/>
      <point x="224" y="291"/>
      <point x="242" y="312"/>
      <point x="251" y="328" type="curve"/>
      <point x="238" y="340" type="line"/>
      <point x="146" y="340" type="line"/>
      <point x="146" y="372" type="line" smooth="yes"/>
      <point x="146" y="487"/>
      <point x="173" y="514"/>
      <point x="199" y="514" type="curve" smooth="yes"/>
      <point x="213" y="514"/>
      <point x="238" y="503"/>
      <point x="261" y="477" type="curve"/>
      <point x="275" y="484"/>
      <point x="317" y="518"/>
    </contour>
  </outline>
</glyph>
<glyph name="g" format="2">
  <advance width="380"/>
  <unicode hex="0067"/>
  <anchor x="189" y="-172" name="H"/>
  <anchor x="189" y="384" name="U"/>
  <outline>
    <contour>
      <point x="371" y="-40" type="curve" smooth="yes"/>
      <point x="371" y="3"/>
      <point x="341" y="34"/>
      <point x="229" y="47" type="curve"/>
      <point x="153" y="57"/>
      <point x="143" y="65"/>
      <point x="143" y="75" type="curve" smooth="yes"/>
      <point x="143" y="79"/>
      <point x="151" y="98"/>
      <point x="193" y="128" type="curve"/>
      <point x="132" y="121" type="line"/>
      <point x="75" y="85"/>
      <point x="59" y="59"/>
      <point x="59" y="48" type="curve" smooth="yes"/>
      <point x="59" y="25"/>
      <point x="102" y="1"/>
      <point x="198" y="-10" type="curve" smooth="yes"/>
      <point x="280" y="-20"/>
      <point x="296" y="-39"/>
      <point x="296" y="-61" type="curve" smooth="yes"/>
      <point x="296" y="-100"/>
      <point x="264" y="-133"/>
      <point x="203" y="-133" type="curve" smooth="yes"/>
      <point x="137" y="-133"/>
      <point x="84" y="-103"/>
      <point x="84" y="-67" type="curve" smooth="yes"/>
      <point x="84" y="-51"/>
      <point x="89" y="-30"/>
      <point x="160" y="10" type="curve"/>
      <point x="158" y="20"/>
      <point x="122" y="22"/>
      <point x="122" y="22" type="curve"/>
      <point x="26" y="-26"/>
      <point x="7" y="-55"/>
      <point x="7" y="-82" type="curve" smooth="yes"/>
      <point x="7" y="-153"/>
      <point x="106" y="-181"/>
      <point x="180" y="-181" type="curve" smooth="yes"/>
      <point x="271" y="-181"/>
      <point x="371" y="-113"/>
    </contour>
    <contour>
      <point x="378" y="338" type="curve"/>
      <point x="369" y="351" type="line"/>
      <point x="346" y="343"/>
      <point x="304" y="328"/>
      <point x="249" y="324" type="curve"/>
      <point x="264" y="292" type="line"/>
      <point x="305" y="291"/>
      <point x="331" y="294"/>
      <point x="357" y="298" type="curve"/>
      <point x="367" y="310"/>
      <point x="374" y="327"/>
    </contour>
    <contour>
      <point x="320" y="234" type="curve" smooth="yes"/>
      <point x="320" y="298"/>
      <point x="263" y="351"/>
      <point x="186" y="351" type="curve" smooth="yes"/>
      <point x="106" y="351"/>
      <point x="32" y="292"/>
      <point x="32" y="220" type="curve" smooth="yes"/>
      <point x="32" y="152"/>
      <point x="92" y="108"/>
      <point x="170" y="108" type="curve" smooth="yes"/>
      <point x="248" y="108"/>
      <point x="320" y="160"/>
    </contour>
    <contour>
      <point x="247" y="219" type="curve" smooth="yes"/>
      <point x="247" y="173"/>
      <point x="218" y="150"/>
      <point x="190" y="150" type="curve" smooth="yes"/>
      <point x="132" y="150"/>
      <point x="106" y="191"/>
      <point x="106" y="241" type="curve" smooth="yes"/>
      <point x="106" y="287"/>
      <point x="139" y="311"/>
      <point x="163" y="311" type="curve" smooth="yes"/>
      <point x="218" y="311"/>
      <point x="247" y="269"/>
    </contour>
  </outline>
</glyph>
<glyph name="h" format="2">
  <advance width="415"/>
  <unicode hex="0068"/>
  <anchor x="106" y="0" name="H"/>
  <anchor x="211" y="565" name="U"/>
  <outline>
    <contour>
      <point x="231" y="0" type="line"/>
      <point x="407" y="0" type="line"/>
      <point x="407" y="25" type="line"/>
      <point x="370" y="34"/>
      <point x="360" y="40"/>
      <point x="360" y="46" type="curve" smooth="yes"/>
      <point x="360" y="245" type="line" smooth="yes"/>
      <point x="360" y="310"/>
      <point x="324" y="334"/>
      <point x="283" y="334" type="curve" smooth="yes"/>
      <point x="247" y="334"/>
      <point x="199" y="316"/>
      <point x="146" y="272" type="curve"/>
      <point x="146" y="526" type="line"/>
      <point x="130" y="540" type="line"/>
      <point x="96" y="526"/>
      <point x="69" y="520"/>
      <point x="16" y="512" type="curve"/>
      <point x="16" y="488" type="line"/>
      <point x="61" y="483"/>
      <point x="62" y="480"/>
      <point x="62" y="442" type="curve" smooth="yes"/>
      <point x="62" y="46" type="line" smooth="yes"/>
      <point x="62" y="39"/>
      <point x="47" y="33"/>
      <point x="16" y="25" type="curve"/>
      <point x="16" y="0" type="line"/>
      <point x="192" y="0" type="line"/>
      <point x="192" y="25" type="line"/>
      <point x="162" y="31"/>
      <point x="146" y="39"/>
      <point x="146" y="46" type="curve" smooth="yes"/>
      <point x="146" y="222" type="line"/>
      <point x="182" y="253"/>
      <point x="211" y="271"/>
      <point x="237" y="271" type="curve" smooth="yes"/>
      <point x="265" y="271"/>
      <point x="277" y="256"/>
      <point x="277" y="199" type="curve" smooth="yes"/>
      <point x="277" y="46" type="line" smooth="yes"/>
      <point x="277" y="40"/>
      <point x="264" y="34"/>
      <point x="231" y="25" type="curve"/>
    </contour>
  </outline>
</glyph>
<glyph name="i" format="2">
  <advance width="214"/>
  <unicode hex="0069"/>
  <anchor x="109" y="0" name="H"/>
  <anchor x="109" y="366" name="U"/>
  <outline>
    <contour>
      <point x="164" y="439" type="curve" smooth="yes"/>
      <point x="164" y="466"/>
      <point x="141" y="478"/>
      <point x="116" y="478" type="curve" smooth="yes"/>
      <point x="84" y="478"/>
      <point x="58" y="457"/>
      <point x="58" y="425" type="curve" smooth="yes"/>
      <point x="58" y="398"/>
      <point x="80" y="386"/>
      <point x="106" y="386" type="curve" smooth="yes"/>
      <point x="139" y="386"/>
      <point x="164" y="408"/>
    </contour>
    <contour>
      <point x="21" y="0" type="line"/>
      <point x="197" y="0" type="line"/>
      <point x="197" y="25" type="line"/>
      <point x="164" y="31"/>
      <point x="151" y="41"/>
      <point x="151" y="46" type="curve" smooth="yes"/>
      <point x="151" y="334" type="line"/>
      <point x="129" y="334" type="line"/>
      <point x="97" y="323"/>
      <point x="61" y="315"/>
      <point x="21" y="309" type="curve"/>
      <point x="21" y="285" type="line"/>
      <point x="67" y="280"/>
      <point x="68" y="273"/>
      <point x="68" y="225" type="curve" smooth="yes"/>
      <point x="68" y="46" type="line" smooth="yes"/>
      <point x="68" y="40"/>
      <point x="53" y="31"/>
      <point x="21" y="25" type="curve"/>
    </contour>
  </outline>
</glyph>
<glyph name="j" format="2">
  <advance width="205"/>
  <unicode hex="006A"/>
  <anchor x="108" y="366" name="U"/>
  <outline>
    <contour>
      <point x="164" y="439" type="curve" smooth="yes"/>
      <point x="164" y="466"/>
      <point x="141" y="478"/>
      <point x="116" y="478" type="curve" smooth="yes"/>
      <point x="83" y="478"/>
      <point x="57" y="457"/>
      <point x="57" y="425" type="curve" smooth="yes"/>
      <point x="57" y="398"/>
      <point x="80" y="386"/>
      <point x="105" y="386" type="curve" smooth="yes"/>
      <point x="139" y="386"/>
      <point x="164" y="408"/>
    </contour>
    <contour>
      <point x="149" y="37" type="curve" smooth="yes"/>
      <point x="149" y="334" type="line"/>
      <point x="126" y="334" type="line"/>
      <point x="89" y="322"/>
      <point x="69" y="316"/>
      <point x="20" y="309" type="curve"/>
      <point x="20" y="285" type="line"/>
      <point x="65" y="280"/>
      <point x="66" y="273"/>
      <point x="66" y="225" type="curve" smooth="yes"/>
      <point x="66" y="14" type="line" smooth="yes"/>
      <point x="66" y="-89"/>
      <point x="45" y="-111"/>
      <point x="20" y="-111" type="curve" smooth="yes"/>
      <point x="3" y="-111"/>
      <point x="-25" y="-100"/>
      <point x="-40" y="-82" type="curve"/>
      <point x="-53" y="-89"/>
      <point x="-100" y="-126"/>
      <point x="-100" y="-139" type="curve" smooth="yes"/>
      <point x="-100" y="-150"/>
      <point x="-55" y="-171"/>
      <point x="-18" y="-171" type="curve" smooth="yes"/>
      <point x="6" y="-171"/>
      <point x="45" y="-153"/>
      <point x="70" y="-134" type="curve" smooth="yes"/>
      <point x="107" y="-105"/>
      <point x="149" y="-69"/>
    </contour>
  </outline>
</glyph>
<glyph name="k" format="2">
  <advance width="391"/>
  <unicode hex="006B"/>
  <outline>
    <contour>
      <point x="381" y="298" type="curve"/>
      <point x="381" y="324" type="line"/>
      <point x="226" y="324" type="line"/>
      <point x="226" y="298" type="line"/>
      <point x="250" y="298"/>
      <point x="266" y="295"/>
      <point x="236" y="268" type="curve" smooth="yes"/>
      <point x="141" y="183" type="line"/>
      <point x="186" y="172" type="line"/>
      <point x="320" y="274" type="line" smooth="yes"/>
      <point x="341" y="289"/>
      <point x="361" y="296"/>
    </contour>
    <contour>
      <point x="14" y="0" type="line"/>
      <point x="182" y="0" type="line"/>
      <point x="182" y="25" type="line"/>
      <point x="148" y="36"/>
      <point x="144" y="39"/>
      <point x="144" y="46" type="curve" smooth="yes"/>
      <point x="144" y="526" type="line"/>
      <point x="128" y="540" type="line"/>
      <point x="97" y="526"/>
      <point x="59" y="519"/>
      <point x="14" y="512" type="curve"/>
      <point x="14" y="488" type="line"/>
      <point x="54" y="483"/>
      <point x="60" y="482"/>
      <point x="60" y="441" type="curve" smooth="yes"/>
      <point x="60" y="46" type="line" smooth="yes"/>
      <point x="60" y="38"/>
      <point x="45" y="33"/>
      <point x="14" y="25" type="curve"/>
    </contour>
    <contour>
      <point x="394" y="11" type="curve"/>
      <point x="392" y="36" type="line"/>
      <point x="364" y="34"/>
      <point x="354" y="36"/>
      <point x="341" y="51" type="curve" smooth="yes"/>
      <point x="201" y="209" type="line"/>
      <point x="141" y="183" type="line"/>
      <point x="268" y="14" type="line" smooth="yes"/>
      <point x="279" y="1"/>
      <point x="292" y="-3"/>
      <point x="311" y="-3" type="curve" smooth="yes"/>
      <point x="321" y="-3"/>
      <point x="366" y="5"/>
    </contour>
  </outline>
</glyph>
<glyph name="l" format="2">
  <advance width="217"/>
  <unicode hex="006C"/>
  <anchor x="111" y="0" name="H"/>
  <anchor x="111" y="618" name="U"/>
  <outline>
    <contour>
      <point x="20" y="0" type="line"/>
      <point x="203" y="0" type="line"/>
      <point x="203" y="23" type="line"/>
      <point x="163" y="29"/>
      <point x="150" y="38"/>
      <point x="150" y="45" type="curve" smooth="yes"/>
      <point x="150" y="553" type="line"/>
      <point x="135" y="567" type="line"/>
      <point x="99" y="551"/>
      <point x="68" y="545"/>
      <point x="23" y="538" type="curve"/>
      <point x="23" y="516" type="line"/>
      <point x="64" y="511"/>
      <point x="73" y="510"/>
      <point x="73" y="467" type="curve" smooth="yes"/>
      <point x="73" y="45" type="line" smooth="yes"/>
      <point x="73" y="37"/>
      <point x="62" y="30"/>
      <point x="20" y="23" type="curve"/>
    </contour>
  </outline>
</glyph>
<glyph name="m" format="2">
  <advance width="622"/>
  <unicode hex="006D"/>
  <anchor x="523" y="0" name="H"/>
  <anchor x="315" y="384" name="U"/>
  <outline>
    <contour>
      <point x="439" y="0" type="line"/>
      <point x="613" y="0" type="line"/>
      <point x="613" y="23" type="line"/>
      <point x="575" y="32"/>
      <point x="562" y="38"/>
      <point x="562" y="45" type="curve" smooth="yes"/>
      <point x="562" y="262" type="line" smooth="yes"/>
      <point x="562" y="326"/>
      <point x="523" y="351"/>
      <point x="477" y="351" type="curve" smooth="yes"/>
      <point x="441" y="351"/>
      <point x="399" y="331"/>
      <point x="349" y="279" type="curve"/>
      <point x="348" y="285" type="line" smooth="yes"/>
      <point x="345" y="328"/>
      <point x="316" y="351"/>
      <point x="270" y="351" type="curve" smooth="yes"/>
      <point x="235" y="351"/>
      <point x="194" y="332"/>
      <point x="143" y="278" type="curve"/>
      <point x="139" y="336" type="line"/>
      <point x="124" y="351" type="line"/>
      <point x="92" y="338"/>
      <point x="64" y="329"/>
      <point x="18" y="324" type="curve"/>
      <point x="18" y="302" type="line"/>
      <point x="65" y="296"/>
      <point x="67" y="293"/>
      <point x="67" y="254" type="curve" smooth="yes"/>
      <point x="67" y="45" type="line" smooth="yes"/>
      <point x="67" y="37"/>
      <point x="50" y="31"/>
      <point x="18" y="23" type="curve"/>
      <point x="18" y="0" type="line"/>
      <point x="192" y="0" type="line"/>
      <point x="192" y="23" type="line"/>
      <point x="160" y="29"/>
      <point x="144" y="38"/>
      <point x="144" y="45" type="curve" smooth="yes"/>
      <point x="144" y="231" type="line"/>
      <point x="182" y="273"/>
      <point x="213" y="294"/>
      <point x="238" y="294" type="curve" smooth="yes"/>
      <point x="266" y="294"/>
      <point x="276" y="284"/>
      <point x="276" y="224" type="curve" smooth="yes"/>
      <point x="276" y="45" type="line" smooth="yes"/>
      <point x="276" y="38"/>
      <point x="266" y="32"/>
      <point x="231" y="23" type="curve"/>
      <point x="231" y="0" type="line"/>
      <point x="401" y="0" type="line"/>
      <point x="401" y="23" type="line"/>
      <point x="362" y="32"/>
      <point x="353" y="38"/>
      <point x="353" y="45" type="curve" smooth="yes"/>
      <point x="353" y="231" type="line"/>
      <point x="386" y="272"/>
      <point x="420" y="294"/>
      <point x="445" y="294" type="curve" smooth="yes"/>
      <point x="473" y="294"/>
      <point x="485" y="284"/>
      <point x="485" y="224" type="curve" smooth="yes"/>
      <point x="485" y="45" type="line" smooth="yes"/>
      <point x="485" y="38"/>
      <point x="474" y="32"/>
      <point x="439" y="23" type="curve"/>
    </contour>
  </outline>
</glyph>
<glyph name="n" format="2">
  <advance width="415"/>
  <unicode hex="006E"/>
  <outline>
    <contour>
      <point x="231" y="0" type="line"/>
      <point x="407" y="0" type="line"/>
      <point x="407" y="25" type="line"/>
      <point x="370" y="34"/>
      <point x="360" y="40"/>
      <point x="360" y="46" type="curve" smooth="yes"/>
      <point x="360" y="245" type="line" smooth="yes"/>
      <point x="360" y="310"/>
      <point x="324" y="334"/>
      <point x="283" y="334" type="curve" smooth="yes"/>
      <point x="247" y="334"/>
      <point x="198" y="316"/>
      <point x="145" y="269" type="curve"/>
      <point x="141" y="319" type="line"/>
      <point x="126" y="334" type="line"/>
      <point x="92" y="321"/>
      <point x="61" y="314"/>
      <point x="16" y="309" type="curve"/>
      <point x="16" y="285" type="line"/>
      <point x="62" y="279"/>
      <point x="62" y="276"/>
      <point x="62" y="240" type="curve" smooth="yes"/>
      <point x="62" y="46" type="line" smooth="yes"/>
      <point x="62" y="39"/>
      <point x="47" y="33"/>
      <point x="16" y="25" type="curve"/>
      <point x="16" y="0" type="line"/>
      <point x="192" y="0" type="line"/>
      <point x="192" y="25" type="line"/>
      <point x="162" y="31"/>
      <point x="146" y="39"/>
      <point x="146" y="46" type="curve" smooth="yes"/>
      <point x="146" y="222" type="line"/>
      <point x="191" y="261"/>
      <point x="218" y="271"/>
      <point x="240" y="271" type="curve" smooth="yes"/>
      <point x="268" y="271"/>
      <point x="277" y="256"/>
      <point x="277" y="205" type="curve" smooth="yes"/>
      <point x="277" y="46" type="line" smooth="yes"/>
      <point x="277" y="40"/>
      <point x="264" y="34"/>
      <point x="231" y="25" type="curve"/>
    </contour>
  </outline>
</glyph>
<glyph name="o" format="2">
  <advance width="374"/>
  <unicode hex="006F"/>
  <outline>
    <contour>
      <point x="352" y="169" type="curve" smooth="yes"/>
      <point x="352" y="264"/>
      <point x="289" y="334"/>
      <point x="194" y="334" type="curve" smooth="yes"/>
      <point x="94" y="334"/>
      <point x="22" y="247"/>
      <point x="22" y="154" type="curve" smooth="yes"/>
      <point x="22" y="59"/>
      <point x="85" y="-10"/>
      <point x="180" y="-10" type="curve" smooth="yes"/>
      <point x="273" y="-10"/>
      <point x="352" y="76"/>
    </contour>
    <contour>
      <point x="264" y="153" type="curve" smooth="yes"/>
      <point x="264" y="76"/>
      <point x="246" y="33"/>
      <point x="190" y="33" type="curve" smooth="yes"/>
      <point x="147" y="33"/>
      <point x="110" y="91"/>
      <point x="110" y="164" type="curve" smooth="yes"/>
      <point x="110" y="236"/>
      <point x="126" y="291"/>
      <point x="184" y="291" type="curve" smooth="yes"/>
      <point x="232" y="291"/>
      <point x="264" y="227"/>
    </contour>
  </outline>
</glyph>
<glyph name="p" format="2">
  <advance width="411"/>
  <unicode hex="0070"/>
  <anchor x="106" y="-176" name="H"/>
  <anchor x="201" y="384" name="U"/>
  <outline>
    <contour>
      <point x="244" y="-10" type="curve" smooth="yes"/>
      <point x="308" y="-10"/>
      <point x="386" y="89"/>
      <point x="386" y="182" type="curve" smooth="yes"/>
      <point x="386" y="294"/>
      <point x="332" y="351"/>
      <point x="265" y="351" type="curve" smooth="yes"/>
      <point x="237" y="351"/>
      <point x="194" y="333"/>
      <point x="142" y="282" type="curve"/>
      <point x="139" y="336" type="line"/>
      <point x="124" y="351" type="line"/>
      <point x="90" y="338"/>
      <point x="66" y="331"/>
      <point x="18" y="324" type="curve"/>
      <point x="18" y="302" type="line"/>
      <point x="64" y="299"/>
      <point x="67" y="291"/>
      <point x="67" y="254" type="curve" smooth="yes"/>
      <point x="67" y="-130" type="line" smooth="yes"/>
      <point x="67" y="-138"/>
      <point x="50" y="-145"/>
      <point x="18" y="-152" type="curve"/>
      <point x="18" y="-175" type="line"/>
      <point x="206" y="-175" type="line"/>
      <point x="206" y="-152" type="line"/>
      <point x="160" y="-145"/>
      <point x="144" y="-137"/>
      <point x="144" y="-130" type="curve" smooth="yes"/>
      <point x="144" y="32" type="line"/>
      <point x="184" y="2"/>
      <point x="216" y="-10"/>
    </contour>
    <contour>
      <point x="228" y="294" type="curve" smooth="yes"/>
      <point x="271" y="294"/>
      <point x="314" y="246"/>
      <point x="314" y="156" type="curve" smooth="yes"/>
      <point x="314" y="84"/>
      <point x="284" y="45"/>
      <point x="242" y="45" type="curve" smooth="yes"/>
      <point x="217" y="45"/>
      <point x="193" y="50"/>
      <point x="144" y="81" type="curve"/>
      <point x="144" y="239" type="line"/>
      <point x="187" y="284"/>
      <point x="210" y="294"/>
    </contour>
  </outline>
</glyph>
<glyph name="q" format="2">
  <advance width="402"/>
  <unicode hex="0071"/>
  <anchor x="211" y="384" name="U"/>
  <outline>
    <contour>
      <point x="208" y="-175" type="line"/>
      <point x="396" y="-175" type="line"/>
      <point x="396" y="-152" type="line"/>
      <point x="359" y="-145"/>
      <point x="347" y="-137"/>
      <point x="347" y="-130" type="curve" smooth="yes"/>
      <point x="347" y="257" type="line" smooth="yes"/>
      <point x="347" y="301"/>
      <point x="359" y="338"/>
      <point x="359" y="338" type="curve"/>
      <point x="346" y="351" type="line"/>
      <point x="333" y="339"/>
      <point x="286" y="310"/>
      <point x="270" y="305" type="curve"/>
      <point x="270" y="-130" type="line" smooth="yes"/>
      <point x="270" y="-138"/>
      <point x="254" y="-145"/>
      <point x="208" y="-152" type="curve"/>
    </contour>
    <contour>
      <point x="298" y="84" type="curve"/>
      <point x="295" y="87"/>
      <point x="288" y="105"/>
      <point x="282" y="108" type="curve"/>
      <point x="248" y="75"/>
      <point x="220" y="51"/>
      <point x="187" y="51" type="curve" smooth="yes"/>
      <point x="147" y="51"/>
      <point x="102" y="98"/>
      <point x="102" y="181" type="curve" smooth="yes"/>
      <point x="102" y="267"/>
      <point x="143" y="305"/>
      <point x="192" y="305" type="curve" smooth="yes"/>
      <point x="223" y="305"/>
      <point x="258" y="286"/>
      <point x="273" y="255" type="curve"/>
      <point x="289" y="264"/>
      <point x="295" y="278"/>
      <point x="295" y="307" type="curve"/>
      <point x="257" y="345"/>
      <point x="231" y="351"/>
      <point x="201" y="351" type="curve" smooth="yes"/>
      <point x="175" y="351"/>
      <point x="140" y="339"/>
      <point x="113" y="322" type="curve" smooth="yes"/>
      <point x="78" y="300"/>
      <point x="25" y="248"/>
      <point x="25" y="162" type="curve" smooth="yes"/>
      <point x="25" y="53"/>
      <point x="94" y="-10"/>
      <point x="150" y="-10" type="curve" smooth="yes"/>
      <point x="208" y="-10"/>
      <point x="241" y="19"/>
    </contour>
  </outline>
</glyph>
<glyph name="r" format="2">
  <advance width="316"/>
  <unicode hex="0072"/>
  <anchor x="102" y="0" name="H"/>
  <anchor x="175" y="366" name="U"/>
  <outline>
    <contour>
      <point x="305" y="319" type="curve" smooth="yes"/>
      <point x="288" y="329"/>
      <point x="267" y="334"/>
      <point x="250" y="334" type="curve" smooth="yes"/>
      <point x="209" y="334"/>
      <point x="170" y="305"/>
      <point x="145" y="269" type="curve"/>
      <point x="141" y="319" type="line"/>
      <point x="126" y="334" type="line"/>
      <point x="87" y="321"/>
      <point x="67" y="317"/>
      <point x="16" y="309" type="curve"/>
      <point x="16" y="285" type="line"/>
      <point x="42" y="283"/>
      <point x="48" y="281"/>
      <point x="54" y="275" type="curve" smooth="yes"/>
      <point x="58" y="271"/>
      <point x="62" y="262"/>
      <point x="62" y="231" type="curve" smooth="yes"/>
      <point x="62" y="46" type="line" smooth="yes"/>
      <point x="62" y="39"/>
      <point x="47" y="32"/>
      <point x="16" y="25" type="curve"/>
      <point x="16" y="0" type="line"/>
      <point x="208" y="0" type="line"/>
      <point x="208" y="25" type="line"/>
      <point x="164" y="31"/>
      <point x="146" y="39"/>
      <point x="146" y="46" type="curve" smooth="yes"/>
      <point x="146" y="199" type="line"/>
      <point x="174" y="260"/>
      <point x="200" y="270"/>
      <point x="218" y="270" type="curve" smooth="yes"/>
      <point x="240" y="270"/>
      <point x="253" y="239"/>
      <point x="256" y="201" type="curve"/>
      <point x="282" y="201" type="line"/>
      <point x="293" y="226"/>
      <point x="313" y="314"/>
    </contour>
  </outline>
</glyph>
<glyph name="s" format="2">
  <advance width="305"/>
  <unicode hex="0073"/>
  <anchor x="148" y="0" name="H"/>
  <anchor x="153" y="384" name="U"/>
  <outline>
    <contour>
      <point x="276" y="103" type="curve" smooth="yes"/>
      <point x="276" y="158"/>
      <point x="229" y="182"/>
      <point x="186" y="204" type="curve" smooth="yes"/>
      <point x="129" y="233"/>
      <point x="103" y="248"/>
      <point x="103" y="276" type="curve" smooth="yes"/>
      <point x="103" y="296"/>
      <point x="121" y="314"/>
      <point x="151" y="314" type="curve" smooth="yes"/>
      <point x="181" y="314"/>
      <point x="205" y="295"/>
      <point x="221" y="254" type="curve"/>
      <point x="242" y="251" type="line"/>
      <point x="252" y="265"/>
      <point x="269" y="318"/>
      <point x="263" y="323" type="curve" smooth="yes"/>
      <point x="241" y="340"/>
      <point x="195" y="351"/>
      <point x="157" y="351" type="curve" smooth="yes"/>
      <point x="95" y="351"/>
      <point x="34" y="315"/>
      <point x="34" y="254" type="curve" smooth="yes"/>
      <point x="34" y="208"/>
      <point x="77" y="182"/>
      <point x="117" y="160" type="curve" smooth="yes"/>
      <point x="172" y="132"/>
      <point x="206" y="113"/>
      <point x="206" y="77" type="curve" smooth="yes"/>
      <point x="206" y="47"/>
      <point x="186" y="31"/>
      <point x="152" y="31" type="curve" smooth="yes"/>
      <point x="107" y="31"/>
      <point x="70" y="64"/>
      <point x="62" y="112" type="curve"/>
      <point x="37" y="116" type="line"/>
      <point x="28" y="85"/>
      <point x="28" y="19"/>
      <point x="34" y="15" type="curve" smooth="yes"/>
      <point x="67" y="-2"/>
      <point x="108" y="-10"/>
      <point x="137" y="-10" type="curve" smooth="yes"/>
      <point x="175" y="-10"/>
      <point x="276" y="0"/>
    </contour>
  </outline>
</glyph>
<glyph name="t" format="2">
  <advance width="270"/>
  <unicode hex="0074"/>
  <anchor x="132" y="0" name="H"/>
  <anchor x="132" y="483" name="U"/>
  <outline>
    <contour>
      <point x="262" y="52" type="curve"/>
      <point x="247" y="76" type="line"/>
      <point x="208" y="54"/>
      <point x="186" y="49"/>
      <point x="169" y="49" type="curve" smooth="yes"/>
      <point x="147" y="49"/>
      <point x="135" y="66"/>
      <point x="135" y="119" type="curve" smooth="yes"/>
      <point x="135" y="298" type="line"/>
      <point x="158" y="298" type="line" smooth="yes"/>
      <point x="188" y="298"/>
      <point x="213" y="291"/>
      <point x="225" y="285" type="curve"/>
      <point x="235" y="291"/>
      <point x="253" y="312"/>
      <point x="262" y="328" type="curve"/>
      <point x="249" y="340" type="line"/>
      <point x="135" y="340" type="line"/>
      <point x="135" y="459" type="line"/>
      <point x="122" y="470" type="line"/>
      <point x="58" y="421" type="line"/>
      <point x="58" y="340" type="line"/>
      <point x="32" y="340" type="line"/>
      <point x="3" y="310" type="line"/>
      <point x="13" y="298" type="line"/>
      <point x="58" y="298" type="line"/>
      <point x="58" y="86" type="line" smooth="yes"/>
      <point x="58" y="18"/>
      <point x="92" y="-10"/>
      <point x="131" y="-10" type="curve" smooth="yes"/>
      <point x="156" y="-10"/>
      <point x="203" y="9"/>
    </contour>
  </outline>
</glyph>
<glyph name="u" format="2">
  <advance width="413"/>
  <unicode hex="0075"/>
  <anchor x="197" y="0" name="H"/>
  <anchor x="207" y="384" name="U"/>
  <outline>
    <contour>
      <point x="409" y="37" type="curve"/>
      <point x="402" y="61" type="line"/>
      <point x="377" y="50"/>
      <point x="367" y="48"/>
      <point x="361" y="52" type="curve" smooth="yes"/>
      <point x="355" y="57"/>
      <point x="353" y="70"/>
      <point x="353" y="100" type="curve" smooth="yes"/>
      <point x="353" y="335" type="line"/>
      <point x="340" y="351" type="line"/>
      <point x="308" y="342"/>
      <point x="271" y="333"/>
      <point x="227" y="329" type="curve"/>
      <point x="227" y="307" type="line"/>
      <point x="272" y="305"/>
      <point x="276" y="298"/>
      <point x="276" y="254" type="curve" smooth="yes"/>
      <point x="276" y="95" type="line"/>
      <point x="235" y="57"/>
      <point x="206" y="45"/>
      <point x="182" y="45" type="curve" smooth="yes"/>
      <point x="152" y="45"/>
      <point x="135" y="61"/>
      <point x="135" y="124" type="curve" smooth="yes"/>
      <point x="135" y="335" type="line"/>
      <point x="123" y="351" type="line"/>
      <point x="85" y="338"/>
      <point x="57" y="333"/>
      <point x="13" y="329" type="curve"/>
      <point x="13" y="307" type="line"/>
      <point x="57" y="302"/>
      <point x="58" y="301"/>
      <point x="58" y="254" type="curve" smooth="yes"/>
      <point x="58" y="102" type="line" smooth="yes"/>
      <point x="58" y="10"/>
      <point x="104" y="-10"/>
      <point x="149" y="-10" type="curve" smooth="yes"/>
      <point x="180" y="-10"/>
      <point x="215" y="-1"/>
      <point x="276" y="53" type="curve"/>
      <point x="281" y="3"/>
      <point x="295" y="-10"/>
      <point x="313" y="-10" type="curve" smooth="yes"/>
      <point x="325" y="-10"/>
      <point x="373" y="13"/>
    </contour>
  </outline>
</glyph>
<glyph name="v" format="2">
  <advance width="362"/>
  <unicode hex="0076"/>
  <outline>
    <contour>
      <point x="358" y="298" type="curve"/>
      <point x="358" y="324" type="line"/>
      <point x="245" y="324" type="line"/>
      <point x="245" y="298" type="line"/>
      <point x="276" y="293"/>
      <point x="279" y="289"/>
      <point x="273" y="275" type="curve" smooth="yes"/>
      <point x="203" y="99" type="line"/>
      <point x="128" y="275" type="line" smooth="yes"/>
      <point x="121" y="289"/>
      <point x="126" y="294"/>
      <point x="162" y="298" type="curve"/>
      <point x="162" y="324" type="line"/>
      <point x="4" y="324" type="line"/>
      <point x="4" y="298" type="line"/>
      <point x="27" y="293"/>
      <point x="35" y="287"/>
      <point x="40" y="275" type="curve" smooth="yes"/>
      <point x="163" y="-10" type="line"/>
      <point x="186" y="-5"/>
      <point x="215" y="7"/>
      <point x="223" y="28" type="curve" smooth="yes"/>
      <point x="322" y="275" type="line" smooth="yes"/>
      <point x="327" y="288"/>
      <point x="330" y="292"/>
    </contour>
  </outline>
</glyph>
<glyph name="w" format="2">
  <advance width="535"/>
  <unicode hex="0077"/>
  <anchor x="277" y="384" name="U"/>
  <outline>
    <contour>
      <point x="529" y="317" type="curve"/>
      <point x="529" y="340" type="line"/>
      <point x="410" y="340" type="line"/>
      <point x="410" y="317" type="line"/>
      <point x="443" y="312"/>
      <point x="448" y="305"/>
      <point x="445" y="294" type="curve" smooth="yes"/>
      <point x="389" y="101" type="line"/>
      <point x="296" y="340" type="line"/>
      <point x="290" y="340"/>
      <point x="271" y="340"/>
      <point x="271" y="340" type="curve"/>
      <point x="259" y="236" type="line"/>
      <point x="359" y="-10" type="line"/>
      <point x="372" y="-8"/>
      <point x="405" y="0"/>
      <point x="411" y="21" type="curve" smooth="yes"/>
      <point x="492" y="294" type="line" smooth="yes"/>
      <point x="495" y="306"/>
      <point x="500" y="310"/>
    </contour>
    <contour>
      <point x="193" y="21" type="curve" smooth="yes"/>
      <point x="296" y="287" type="line"/>
      <point x="292" y="340" type="line"/>
      <point x="292" y="340"/>
      <point x="275" y="340"/>
      <point x="269" y="340" type="curve"/>
      <point x="180" y="101" type="line"/>
      <point x="121" y="294" type="line" smooth="yes"/>
      <point x="117" y="303"/>
      <point x="119" y="312"/>
      <point x="163" y="317" type="curve"/>
      <point x="163" y="340" type="line"/>
      <point x="5" y="340" type="line"/>
      <point x="5" y="317" type="line"/>
      <point x="29" y="312"/>
      <point x="42" y="303"/>
      <point x="45" y="294" type="curve"/>
      <point x="143" y="-10" type="line"/>
      <point x="156" y="-8"/>
      <point x="186" y="0"/>
    </contour>
  </outline>
</glyph>
<glyph name="x" format="2">
  <advance width="386"/>
  <unicode hex="0078"/>
  <anchor x="299" y="0" name="H"/>
  <anchor x="193" y="384" name="U"/>
  <outline>
    <contour>
      <point x="371" y="317" type="curve"/>
      <point x="371" y="340" type="line"/>
      <point x="232" y="340" type="line"/>
      <point x="232" y="317" type="line"/>
      <point x="262" y="314"/>
      <point x="271" y="309"/>
      <point x="253" y="286" type="curve" smooth="yes"/>
      <point x="181" y="188" type="line"/>
      <point x="209" y="160" type="line"/>
      <point x="303" y="285" type="line" smooth="yes"/>
      <point x="316" y="303"/>
      <point x="332" y="314"/>
    </contour>
    <contour>
      <point x="212" y="0" type="line"/>
      <point x="381" y="0" type="line"/>
      <point x="381" y="23" type="line"/>
      <point x="348" y="27"/>
      <point x="335" y="41"/>
      <point x="324" y="56" type="curve"/>
      <point x="158" y="286" type="line" smooth="yes"/>
      <point x="141" y="309"/>
      <point x="151" y="314"/>
      <point x="181" y="317" type="curve"/>
      <point x="181" y="340" type="line"/>
      <point x="9" y="340" type="line"/>
      <point x="9" y="317" type="line"/>
      <point x="47" y="314"/>
      <point x="57" y="303"/>
      <point x="69" y="285" type="curve" smooth="yes"/>
      <point x="237" y="54" type="line" smooth="yes"/>
      <point x="256" y="28"/>
      <point x="236" y="25"/>
      <point x="212" y="23" type="curve"/>
    </contour>
    <contour>
      <point x="115" y="54" type="curve" smooth="yes"/>
      <point x="192" y="156" type="line"/>
      <point x="164" y="185" type="line"/>
      <point x="67" y="56" type="line" smooth="yes"/>
      <point x="55" y="41"/>
      <point x="42" y="28"/>
      <point x="5" y="23" type="curve"/>
      <point x="5" y="0" type="line"/>
      <point x="146" y="0" type="line"/>
      <point x="146" y="23" type="line"/>
      <point x="123" y="25"/>
      <point x="96" y="28"/>
    </contour>
  </outline>
</glyph>
<glyph name="y" format="2">
  <advance width="377"/>
  <unicode hex="0079"/>
  <anchor x="197" y="384" name="U"/>
  <outline>
    <contour>
      <point x="371" y="317" type="curve"/>
      <point x="371" y="340" type="line"/>
      <point x="250" y="340" type="line"/>
      <point x="250" y="317" type="line"/>
      <point x="283" y="312"/>
      <point x="289" y="307"/>
      <point x="283" y="292" type="curve" smooth="yes"/>
      <point x="207" y="92" type="line"/>
      <point x="127" y="292" type="line" smooth="yes"/>
      <point x="121" y="308"/>
      <point x="127" y="312"/>
      <point x="163" y="317" type="curve"/>
      <point x="163" y="340" type="line"/>
      <point x="5" y="340" type="line"/>
      <point x="5" y="317" type="line"/>
      <point x="29" y="312"/>
      <point x="40" y="305"/>
      <point x="46" y="292" type="curve" smooth="yes"/>
      <point x="168" y="-8" type="line"/>
      <point x="157" y="-33" type="line" smooth="yes"/>
      <point x="139" y="-75"/>
      <point x="115" y="-101"/>
      <point x="97" y="-108" type="curve" smooth="yes"/>
      <point x="78" y="-114"/>
      <point x="53" y="-112"/>
      <point x="29" y="-97" type="curve"/>
      <point x="13" y="-107"/>
      <point x="-20" y="-150"/>
      <point x="-20" y="-158" type="curve" smooth="yes"/>
      <point x="-20" y="-167"/>
      <point x="12" y="-181"/>
      <point x="50" y="-181" type="curve" smooth="yes"/>
      <point x="108" y="-181"/>
      <point x="167" y="-136"/>
      <point x="208" y="-28" type="curve" smooth="yes"/>
      <point x="331" y="292" type="line" smooth="yes"/>
      <point x="336" y="307"/>
      <point x="342" y="310"/>
    </contour>
  </outline>
</glyph>
<glyph name="z" format="2">
  <advance width="337"/>
  <unicode hex="007A"/>
  <anchor x="171" y="0" name="H"/>
  <anchor x="182" y="384" name="U"/>
  <outline>
    <contour>
      <point x="316" y="110" type="curve"/>
      <point x="293" y="116" type="line"/>
      <point x="280" y="66"/>
      <point x="272" y="40"/>
      <point x="257" y="40" type="curve" smooth="yes"/>
      <point x="121" y="40" type="line"/>
      <point x="319" y="324" type="line"/>
      <point x="311" y="340" type="line"/>
      <point x="114" y="340" type="line" smooth="yes"/>
      <point x="83" y="340"/>
      <point x="71" y="340"/>
      <point x="50" y="346" type="curve"/>
      <point x="41" y="236" type="line"/>
      <point x="65" y="230" type="line"/>
      <point x="76" y="281"/>
      <point x="95" y="300"/>
      <point x="115" y="300" type="curve" smooth="yes"/>
      <point x="221" y="300" type="line"/>
      <point x="24" y="16" type="line"/>
      <point x="33" y="0" type="line"/>
      <point x="312" y="0" type="line"/>
      <point x="314" y="17"/>
      <point x="316" y="80"/>
    </contour>
  </outline>
</glyph>
<glyph name="braceleft" format="2">
  <advance width="250"/>
  <unicode hex="007B"/>
  <outline>
    <contour>
      <point x="241" y="531" type="curve"/>
      <point x="227" y="558" type="line"/>
      <point x="149" y="526"/>
      <point x="90" y="484"/>
      <point x="90" y="422" type="curve" smooth="yes"/>
      <point x="90" y="370"/>
      <point x="104" y="352"/>
      <point x="104" y="300" type="curve" smooth="yes"/>
      <point x="104" y="266"/>
      <point x="81" y="240"/>
      <point x="29" y="226" type="curve"/>
      <point x="35" y="197" type="line"/>
      <point x="49" y="199"/>
      <point x="45" y="199"/>
      <point x="58" y="199" type="curve" smooth="yes"/>
      <point x="87" y="199"/>
      <point x="104" y="184"/>
      <point x="104" y="147" type="curve" smooth="yes"/>
      <point x="104" y="94"/>
      <point x="90" y="69"/>
      <point x="90" y="19" type="curve" smooth="yes"/>
      <point x="90" y="-47"/>
      <point x="139" y="-78"/>
      <point x="224" y="-109" type="curve"/>
      <point x="238" y="-78" type="line"/>
      <point x="188" y="-50"/>
      <point x="179" y="-28"/>
      <point x="179" y="9" type="curve" smooth="yes"/>
      <point x="179" y="50"/>
      <point x="194" y="83"/>
      <point x="194" y="134" type="curve" smooth="yes"/>
      <point x="194" y="185"/>
      <point x="172" y="219"/>
      <point x="126" y="227" type="curve"/>
      <point x="165" y="244"/>
      <point x="194" y="283"/>
      <point x="194" y="321" type="curve" smooth="yes"/>
      <point x="194" y="370"/>
      <point x="179" y="393"/>
      <point x="179" y="441" type="curve" smooth="yes"/>
      <point x="179" y="476"/>
      <point x="205" y="508"/>
    </contour>
  </outline>
</glyph>
<glyph name="bar" format="2">
  <advance width="183"/>
  <unicode hex="007C"/>
  <outline>
    <contour>
      <point x="120" y="-144" type="curve"/>
      <point x="120" y="601" type="line"/>
      <point x="105" y="611" type="line"/>
      <point x="91" y="607"/>
      <point x="75" y="599"/>
      <point x="62" y="591" type="curve"/>
      <point x="62" y="-155" type="line"/>
      <point x="76" y="-165" type="line"/>
      <point x="88" y="-161"/>
      <point x="112" y="-152"/>
    </contour>
  </outline>
</glyph>
<glyph name="braceright" format="2">
  <advance width="259"/>
  <unicode hex="007D"/>
  <outline>
    <contour>
      <point x="226" y="234" type="curve"/>
      <point x="219" y="262" type="line"/>
      <point x="205" y="259"/>
      <point x="209" y="259"/>
      <point x="196" y="259" type="curve" smooth="yes"/>
      <point x="163" y="259"/>
      <point x="144" y="276"/>
      <point x="144" y="316" type="curve" smooth="yes"/>
      <point x="144" y="372"/>
      <point x="159" y="394"/>
      <point x="159" y="448" type="curve" smooth="yes"/>
      <point x="159" y="518"/>
      <point x="114" y="553"/>
      <point x="26" y="585" type="curve"/>
      <point x="14" y="556" type="line"/>
      <point x="65" y="527"/>
      <point x="76" y="503"/>
      <point x="76" y="458" type="curve" smooth="yes"/>
      <point x="76" y="413"/>
      <point x="61" y="384"/>
      <point x="61" y="329" type="curve" smooth="yes"/>
      <point x="61" y="275"/>
      <point x="82" y="240"/>
      <point x="131" y="231" type="curve"/>
      <point x="89" y="213"/>
      <point x="61" y="173"/>
      <point x="61" y="132" type="curve" smooth="yes"/>
      <point x="61" y="79"/>
      <point x="76" y="61"/>
      <point x="76" y="8" type="curve" smooth="yes"/>
      <point x="76" y="-32"/>
      <point x="48" y="-66"/>
      <point x="10" y="-90" type="curve"/>
      <point x="24" y="-115" type="line"/>
      <point x="102" y="-82"/>
      <point x="159" y="-36"/>
      <point x="159" y="29" type="curve" smooth="yes"/>
      <point x="159" y="85"/>
      <point x="144" y="98"/>
      <point x="144" y="154" type="curve" smooth="yes"/>
      <point x="144" y="191"/>
      <point x="170" y="219"/>
    </contour>
  </outline>
</glyph>
<glyph name="asciitilde" format="2">
  <advance width="348"/>
  <unicode hex="007E"/>
  <outline>
    <contour>
      <point x="336" y="272" type="curve"/>
      <point x="312" y="283" type="line"/>
      <point x="293" y="245"/>
      <point x="268" y="228"/>
      <point x="248" y="228" type="curve" smooth="yes"/>
      <point x="211" y="228"/>
      <point x="171" y="283"/>
      <point x="122" y="283" type="curve" smooth="yes"/>
      <point x="73" y="283"/>
      <point x="31" y="218"/>
      <point x="11" y="172" type="curve"/>
      <point x="35" y="160" type="line"/>
      <point x="55" y="199"/>
      <point x="78" y="216"/>
      <point x="98" y="216" type="curve" smooth="yes"/>
      <point x="138" y="216"/>
      <point x="186" y="161"/>
      <point x="225" y="161" type="curve" smooth="yes"/>
      <point x="275" y="161"/>
      <point x="317" y="226"/>
    </contour>
  </outline>
</glyph>
<glyph name="exclamdown" format="2">
  <advance width="220"/>
  <unicode hex="00A1"/>
  <outline>
    <contour>
      <point x="165" y="287" type="curve"/>
      <point x="165" y="320"/>
      <point x="142" y="334"/>
      <point x="115" y="334" type="curve" smooth="yes"/>
      <point x="79" y="334"/>
      <point x="51" y="312"/>
      <point x="51" y="275" type="curve" smooth="yes"/>
      <point x="51" y="242"/>
      <point x="75" y="228"/>
      <point x="101" y="228" type="curve" smooth="yes"/>
      <point x="135" y="228"/>
      <point x="165" y="251"/>
    </contour>
    <contour>
      <point x="158" y="-156" type="curve"/>
      <point x="131" y="183" type="line"/>
      <point x="121" y="190" type="line"/>
      <point x="109" y="187"/>
      <point x="93" y="183"/>
      <point x="85" y="177" type="curve"/>
      <point x="57" y="-184" type="line"/>
      <point x="75" y="-195" type="line"/>
      <point x="93" y="-189"/>
      <point x="137" y="-168"/>
    </contour>
  </outline>
</glyph>
<glyph name="cent" format="2">
  <advance width="370"/>
  <unicode hex="00A2"/>
  <outline>
    <contour>
      <point x="219" y="0" type="curve"/>
      <point x="219" y="446" type="line"/>
      <point x="208" y="455" type="line"/>
      <point x="193" y="452"/>
      <point x="192" y="449"/>
      <point x="179" y="440" type="curve"/>
      <point x="179" y="-4" type="line"/>
      <point x="190" y="-15" type="line"/>
      <point x="202" y="-11"/>
      <point x="210" y="-6"/>
    </contour>
    <contour>
      <point x="336" y="130" type="curve"/>
      <point x="316" y="152" type="line"/>
      <point x="266" y="105"/>
      <point x="245" y="99"/>
      <point x="214" y="99" type="curve" smooth="yes"/>
      <point x="156" y="99"/>
      <point x="106" y="141"/>
      <point x="106" y="225" type="curve" smooth="yes"/>
      <point x="106" y="316"/>
      <point x="154" y="350"/>
      <point x="201" y="350" type="curve" smooth="yes"/>
      <point x="251" y="350"/>
      <point x="277" y="316"/>
      <point x="286" y="299" type="curve"/>
      <point x="306" y="294" type="line"/>
      <point x="315" y="306"/>
      <point x="335" y="354"/>
      <point x="333" y="365" type="curve"/>
      <point x="316" y="384"/>
      <point x="266" y="395"/>
      <point x="234" y="395" type="curve" smooth="yes"/>
      <point x="117" y="395"/>
      <point x="34" y="318"/>
      <point x="34" y="214" type="curve" smooth="yes"/>
      <point x="34" y="105"/>
      <point x="117" y="47"/>
      <point x="188" y="47" type="curve" smooth="yes"/>
      <point x="238" y="47"/>
      <point x="272" y="57"/>
    </contour>
  </outline>
</glyph>
<glyph name="sterling" format="2">
  <advance width="370"/>
  <unicode hex="00A3"/>
  <outline>
    <contour>
      <point x="337" y="426" type="curve"/>
      <point x="291" y="449"/>
      <point x="259" y="452"/>
      <point x="234" y="452" type="curve" smooth="yes"/>
      <point x="117" y="452"/>
      <point x="57" y="355"/>
      <point x="68" y="211" type="curve" smooth="yes"/>
      <point x="79" y="67"/>
      <point x="66" y="50"/>
      <point x="19" y="12" type="curve"/>
      <point x="31" y="-10" type="line"/>
      <point x="103" y="34"/>
      <point x="268" y="-36"/>
      <point x="333" y="0" type="curve"/>
      <point x="337" y="14"/>
      <point x="347" y="63"/>
      <point x="350" y="105" type="curve"/>
      <point x="327" y="114" type="line"/>
      <point x="306" y="57"/>
      <point x="290" y="47"/>
      <point x="244" y="46" type="curve" smooth="yes"/>
      <point x="190" y="44"/>
      <point x="183" y="51"/>
      <point x="116" y="46" type="curve"/>
      <point x="146" y="88"/>
      <point x="162" y="145"/>
      <point x="154" y="217" type="curve" smooth="yes"/>
      <point x="134" y="398"/>
      <point x="184" y="410"/>
      <point x="217" y="410" type="curve" smooth="yes"/>
      <point x="263" y="410"/>
      <point x="291" y="377"/>
      <point x="298" y="316" type="curve"/>
      <point x="322" y="316" type="line"/>
      <point x="328" y="335"/>
      <point x="336" y="401"/>
    </contour>
    <contour>
      <point x="250" y="192" type="line"/>
      <point x="263" y="223" type="line"/>
      <point x="252" y="233" type="line"/>
      <point x="29" y="233" type="line"/>
      <point x="26" y="225"/>
      <point x="20" y="210"/>
      <point x="17" y="203" type="curve"/>
      <point x="27" y="192" type="line"/>
    </contour>
  </outline>
</glyph>
<glyph name="currency" format="2">
  <advance width="370"/>
  <unicode hex="00A4"/>
  <outline>
    <contour>
      <point x="133" y="272" type="curve"/>
      <point x="148" y="287"/>
      <point x="166" y="294"/>
      <point x="185" y="294" type="curve" smooth="yes"/>
      <point x="204" y="294"/>
      <point x="222" y="287"/>
      <point x="237" y="272" type="curve" smooth="yes"/>
      <point x="251" y="258"/>
      <point x="259" y="239"/>
      <point x="259" y="220" type="curve" smooth="yes"/>
      <point x="259" y="201"/>
      <point x="251" y="182"/>
      <point x="237" y="168" type="curve" smooth="yes"/>
      <point x="223" y="153"/>
      <point x="204" y="146"/>
      <point x="185" y="146" type="curve" smooth="yes"/>
      <point x="166" y="146"/>
      <point x="148" y="153"/>
      <point x="133" y="168" type="curve" smooth="yes"/>
      <point x="118" y="182"/>
      <point x="111" y="201"/>
      <point x="111" y="220" type="curve" smooth="yes"/>
      <point x="111" y="238"/>
      <point x="119" y="258"/>
    </contour>
    <contour>
      <point x="104" y="302" type="curve"/>
      <point x="81" y="279"/>
      <point x="69" y="249"/>
      <point x="69" y="219" type="curve" smooth="yes"/>
      <point x="69" y="190"/>
      <point x="80" y="161"/>
      <point x="103" y="138" type="curve" smooth="yes"/>
      <point x="126" y="115"/>
      <point x="155" y="104"/>
      <point x="185" y="104" type="curve" smooth="yes"/>
      <point x="215" y="104"/>
      <point x="245" y="115"/>
      <point x="267" y="138" type="curve" smooth="yes"/>
      <point x="289" y="160"/>
      <point x="301" y="190"/>
      <point x="301" y="219" type="curve" smooth="yes"/>
      <point x="301" y="249"/>
      <point x="289" y="279"/>
      <point x="266" y="302" type="curve" smooth="yes"/>
      <point x="243" y="325"/>
      <point x="215" y="336"/>
      <point x="185" y="336" type="curve" smooth="yes"/>
      <point x="156" y="336"/>
      <point x="127" y="325"/>
    </contour>
    <contour>
      <point x="137" y="143" type="line"/>
      <point x="123" y="172" type="line"/>
      <point x="108" y="171" type="line"/>
      <point x="43" y="106" type="line"/>
      <point x="47" y="97"/>
      <point x="52" y="87"/>
      <point x="57" y="79" type="curve"/>
      <point x="71" y="78" type="line"/>
    </contour>
    <contour>
      <point x="106" y="271" type="line"/>
      <point x="134" y="285" type="line"/>
      <point x="134" y="300" type="line"/>
      <point x="72" y="361" type="line"/>
      <point x="62" y="357"/>
      <point x="52" y="352"/>
      <point x="44" y="348" type="curve"/>
      <point x="43" y="333" type="line"/>
    </contour>
    <contour>
      <point x="297" y="78" type="line"/>
      <point x="326" y="92" type="line"/>
      <point x="326" y="107" type="line"/>
      <point x="264" y="169" type="line"/>
      <point x="255" y="165"/>
      <point x="244" y="160"/>
      <point x="236" y="155" type="curve"/>
      <point x="235" y="140" type="line"/>
    </contour>
    <contour>
      <point x="325" y="333" type="line"/>
      <point x="312" y="361" type="line"/>
      <point x="297" y="361" type="line"/>
      <point x="232" y="296" type="line"/>
      <point x="236" y="287"/>
      <point x="241" y="276"/>
      <point x="246" y="268" type="curve"/>
      <point x="260" y="267" type="line"/>
    </contour>
  </outline>
</glyph>
<glyph name="yen" format="2">
  <advance width="370"/>
  <unicode hex="00A5"/>
  <outline>
    <contour>
      <point x="84" y="0" type="line"/>
      <point x="282" y="0" type="line"/>
      <point x="282" y="23" type="line"/>
      <point x="236" y="32"/>
      <point x="223" y="43"/>
      <point x="223" y="49" type="curve" smooth="yes"/>
      <point x="223" y="147" type="line"/>
      <point x="318" y="147" type="line"/>
      <point x="330" y="179" type="line"/>
      <point x="321" y="188" type="line"/>
      <point x="223" y="188" type="line"/>
      <point x="223" y="199" type="line"/>
      <point x="327" y="393" type="line" smooth="yes"/>
      <point x="333" y="406"/>
      <point x="348" y="411"/>
      <point x="382" y="417" type="curve"/>
      <point x="382" y="440" type="line"/>
      <point x="231" y="440" type="line"/>
      <point x="231" y="417" type="line"/>
      <point x="269" y="413"/>
      <point x="279" y="406"/>
      <point x="272" y="393" type="curve" smooth="yes"/>
      <point x="199" y="257" type="line"/>
      <point x="165" y="328"/>
      <point x="135" y="380"/>
      <point x="99" y="428" type="curve" smooth="yes"/>
      <point x="91" y="438"/>
      <point x="77" y="444"/>
      <point x="65" y="444" type="curve" smooth="yes"/>
      <point x="44" y="444"/>
      <point x="0" y="439"/>
      <point x="-28" y="435" type="curve"/>
      <point x="-26" y="411" type="line"/>
      <point x="14" y="411"/>
      <point x="23" y="404"/>
      <point x="31" y="393" type="curve" smooth="yes"/>
      <point x="65" y="349"/>
      <point x="108" y="274"/>
      <point x="142" y="199" type="curve"/>
      <point x="142" y="188" type="line"/>
      <point x="42" y="188" type="line"/>
      <point x="39" y="180"/>
      <point x="33" y="164"/>
      <point x="31" y="156" type="curve"/>
      <point x="39" y="147" type="line"/>
      <point x="142" y="147" type="line"/>
      <point x="142" y="49" type="line" smooth="yes"/>
      <point x="142" y="42"/>
      <point x="128" y="32"/>
      <point x="84" y="23" type="curve"/>
    </contour>
  </outline>
</glyph>
<glyph name="brokenbar" format="2">
  <advance width="183"/>
  <unicode hex="00A6"/>
  <outline>
    <contour>
      <point x="121" y="277" type="curve"/>
      <point x="121" y="601" type="line"/>
      <point x="106" y="611" type="line"/>
      <point x="91" y="607"/>
      <point x="75" y="599"/>
      <point x="61" y="591" type="curve"/>
      <point x="61" y="266" type="line"/>
      <point x="76" y="256" type="line"/>
      <point x="88" y="260"/>
      <point x="112" y="269"/>
    </contour>
    <contour>
      <point x="121" y="-145" type="curve"/>
      <point x="121" y="175" type="line"/>
      <point x="106" y="186" type="line"/>
      <point x="91" y="181"/>
      <point x="75" y="173"/>
      <point x="61" y="165" type="curve"/>
      <point x="61" y="-155" type="line"/>
      <point x="76" y="-165" type="line"/>
      <point x="88" y="-161"/>
      <point x="112" y="-152"/>
    </contour>
  </outline>
</glyph>
<glyph name="section" format="2">
  <advance width="357"/>
  <unicode hex="00A7"/>
  <outline>
    <contour>
      <point x="161" y="-10" type="curve" smooth="yes"/>
      <point x="202" y="-10"/>
      <point x="300" y="-1"/>
      <point x="300" y="96" type="curve" smooth="yes"/>
      <point x="300" y="148"/>
      <point x="244" y="174"/>
      <point x="204" y="194" type="curve"/>
      <point x="140" y="230"/>
      <point x="110" y="247"/>
      <point x="110" y="288" type="curve" smooth="yes"/>
      <point x="110" y="315"/>
      <point x="136" y="343"/>
      <point x="164" y="345" type="curve"/>
      <point x="134" y="377" type="line"/>
      <point x="82" y="367"/>
      <point x="36" y="318"/>
      <point x="36" y="271" type="curve" smooth="yes"/>
      <point x="36" y="207"/>
      <point x="87" y="172"/>
      <point x="131" y="148" type="curve" smooth="yes"/>
      <point x="174" y="126"/>
      <point x="223" y="106"/>
      <point x="223" y="69" type="curve" smooth="yes"/>
      <point x="223" y="42"/>
      <point x="207" y="31"/>
      <point x="173" y="31" type="curve" smooth="yes"/>
      <point x="133" y="31"/>
      <point x="99" y="64"/>
      <point x="89" y="114" type="curve"/>
      <point x="61" y="117" type="line"/>
      <point x="52" y="83"/>
      <point x="52" y="18"/>
      <point x="58" y="15" type="curve"/>
      <point x="89" y="-1"/>
      <point x="131" y="-10"/>
    </contour>
    <contour>
      <point x="241" y="120" type="line"/>
      <point x="278" y="129"/>
      <point x="320" y="171"/>
      <point x="320" y="233" type="curve" smooth="yes"/>
      <point x="320" y="303"/>
      <point x="268" y="335"/>
      <point x="222" y="359" type="curve" smooth="yes"/>
      <point x="170" y="387"/>
      <point x="134" y="401"/>
      <point x="134" y="432" type="curve" smooth="yes"/>
      <point x="134" y="452"/>
      <point x="150" y="465"/>
      <point x="178" y="465" type="curve" smooth="yes"/>
      <point x="209" y="465"/>
      <point x="231" y="442"/>
      <point x="243" y="401" type="curve"/>
      <point x="267" y="398" type="line"/>
      <point x="278" y="413"/>
      <point x="293" y="469"/>
      <point x="287" y="474" type="curve"/>
      <point x="266" y="490"/>
      <point x="222" y="502"/>
      <point x="182" y="502" type="curve" smooth="yes"/>
      <point x="119" y="502"/>
      <point x="58" y="468"/>
      <point x="58" y="410" type="curve" smooth="yes"/>
      <point x="58" y="365"/>
      <point x="109" y="335"/>
      <point x="149" y="313" type="curve" smooth="yes"/>
      <point x="216" y="277"/>
      <point x="246" y="257"/>
      <point x="246" y="210" type="curve" smooth="yes"/>
      <point x="246" y="181"/>
      <point x="223" y="155"/>
      <point x="197" y="154" type="curve"/>
    </contour>
  </outline>
</glyph>
<glyph name="dieresis" format="2">
  <advance width="279"/>
  <unicode hex="00A8"/>
  <anchor x="140" y="491" name="U"/>
  <outline>
    <contour>
      <point x="114" y="442" type="curve"/>
      <point x="114" y="470"/>
      <point x="98" y="484"/>
      <point x="72" y="484" type="curve" smooth="yes"/>
      <point x="44" y="484"/>
      <point x="18" y="457"/>
      <point x="18" y="422" type="curve" smooth="yes"/>
      <point x="18" y="395"/>
      <point x="32" y="380"/>
      <point x="59" y="380" type="curve" smooth="yes"/>
      <point x="89" y="380"/>
      <point x="114" y="408"/>
    </contour>
    <contour>
      <point x="261" y="442" type="curve"/>
      <point x="261" y="470"/>
      <point x="246" y="484"/>
      <point x="220" y="484" type="curve" smooth="yes"/>
      <point x="191" y="484"/>
      <point x="165" y="457"/>
      <point x="165" y="422" type="curve" smooth="yes"/>
      <point x="165" y="395"/>
      <point x="180" y="380"/>
      <point x="207" y="380" type="curve" smooth="yes"/>
      <point x="236" y="380"/>
      <point x="261" y="408"/>
    </contour>
  </outline>
</glyph>
<glyph name="copyright" format="2">
  <advance width="521"/>
  <unicode hex="00A9"/>
  <outline>
    <contour>
      <point x="260" y="-10" type="curve" smooth="yes"/>
      <point x="394" y="-10"/>
      <point x="492" y="98"/>
      <point x="492" y="232" type="curve" smooth="yes"/>
      <point x="492" y="365"/>
      <point x="394" y="473"/>
      <point x="260" y="473" type="curve" smooth="yes"/>
      <point x="126" y="473"/>
      <point x="29" y="365"/>
      <point x="29" y="232" type="curve" smooth="yes"/>
      <point x="29" y="98"/>
      <point x="126" y="-10"/>
    </contour>
    <contour>
      <point x="252" y="81" type="curve" smooth="yes"/>
      <point x="289" y="81"/>
      <point x="323" y="90"/>
      <point x="372" y="143" type="curve"/>
      <point x="356" y="162" type="line"/>
      <point x="317" y="133"/>
      <point x="301" y="129"/>
      <point x="279" y="129" type="curve" smooth="yes"/>
      <point x="238" y="129"/>
      <point x="195" y="168"/>
      <point x="195" y="233" type="curve" smooth="yes"/>
      <point x="195" y="311"/>
      <point x="228" y="344"/>
      <point x="267" y="344" type="curve" smooth="yes"/>
      <point x="300" y="344"/>
      <point x="314" y="314"/>
      <point x="323" y="283" type="curve"/>
      <point x="342" y="280" type="line"/>
      <point x="350" y="290"/>
      <point x="370" y="346"/>
      <point x="367" y="354" type="curve"/>
      <point x="353" y="368"/>
      <point x="317" y="380"/>
      <point x="287" y="380" type="curve" smooth="yes"/>
      <point x="194" y="380"/>
      <point x="125" y="309"/>
      <point x="125" y="222" type="curve" smooth="yes"/>
      <point x="125" y="135"/>
      <point x="187" y="81"/>
    </contour>
    <contour>
      <point x="260" y="31" type="curve" smooth="yes"/>
      <point x="150" y="31"/>
      <point x="71" y="121"/>
      <point x="71" y="232" type="curve" smooth="yes"/>
      <point x="71" y="341"/>
      <point x="150" y="431"/>
      <point x="260" y="431" type="curve" smooth="yes"/>
      <point x="371" y="431"/>
      <point x="450" y="341"/>
      <point x="450" y="232" type="curve" smooth="yes"/>
      <point x="450" y="121"/>
      <point x="371" y="31"/>
    </contour>
  </outline>
</glyph>
<glyph name="ordfeminine" format="2">
  <advance width="196"/>
  <unicode hex="00AA"/>
  <outline>
    <contour>
      <point x="191" y="279" type="curve"/>
      <point x="187" y="293" type="line"/>
      <point x="174" y="287"/>
      <point x="170" y="287"/>
      <point x="167" y="288" type="curve" smooth="yes"/>
      <point x="165" y="291"/>
      <point x="163" y="296"/>
      <point x="163" y="309" type="curve" smooth="yes"/>
      <point x="163" y="377" type="line" smooth="yes"/>
      <point x="163" y="426"/>
      <point x="146" y="440"/>
      <point x="112" y="440" type="curve" smooth="yes"/>
      <point x="75" y="440"/>
      <point x="30" y="418"/>
      <point x="18" y="386" type="curve"/>
      <point x="22" y="376" type="line"/>
      <point x="28" y="375"/>
      <point x="72" y="386"/>
      <point x="71" y="391" type="curve" smooth="yes"/>
      <point x="67" y="407"/>
      <point x="80" y="415"/>
      <point x="93" y="415" type="curve" smooth="yes"/>
      <point x="116" y="415"/>
      <point x="117" y="400"/>
      <point x="117" y="371" type="curve" smooth="yes"/>
      <point x="117" y="310" type="line" smooth="yes"/>
      <point x="117" y="264"/>
      <point x="125" y="253"/>
      <point x="133" y="253" type="curve" smooth="yes"/>
      <point x="148" y="253"/>
      <point x="170" y="264"/>
    </contour>
    <contour>
      <point x="100" y="345" type="curve"/>
      <point x="140" y="354" type="line"/>
      <point x="140" y="372" type="line"/>
      <point x="81" y="359" type="line" smooth="yes"/>
      <point x="33" y="349"/>
      <point x="14" y="321"/>
      <point x="14" y="292" type="curve" smooth="yes"/>
      <point x="14" y="263"/>
      <point x="38" y="253"/>
      <point x="56" y="253" type="curve" smooth="yes"/>
      <point x="73" y="253"/>
      <point x="97" y="260"/>
      <point x="121" y="285" type="curve"/>
      <point x="120" y="306" type="line"/>
      <point x="100" y="289"/>
      <point x="89" y="285"/>
      <point x="79" y="285" type="curve" smooth="yes"/>
      <point x="72" y="285"/>
      <point x="62" y="289"/>
      <point x="62" y="306" type="curve" smooth="yes"/>
      <point x="62" y="326"/>
      <point x="76" y="339"/>
    </contour>
    <contour>
      <point x="15" y="204" type="line"/>
      <point x="182" y="204" type="line"/>
      <point x="182" y="235" type="line"/>
      <point x="15" y="235" type="line"/>
    </contour>
  </outline>
</glyph>
<glyph name="guillemetleft" format="2">
  <advance width="378"/>
  <unicode hex="00AB"/>
  <outline>
    <contour>
      <point x="170" y="157" type="curve"/>
      <point x="311" y="2" type="line"/>
      <point x="331" y="17" type="line"/>
      <point x="253" y="171" type="line"/>
      <point x="252" y="170"/>
      <point x="331" y="323"/>
      <point x="330" y="323" type="curve"/>
      <point x="311" y="338" type="line"/>
      <point x="171" y="184" type="line"/>
      <point x="170" y="183"/>
      <point x="170" y="157"/>
    </contour>
    <contour>
      <point x="25" y="157" type="curve"/>
      <point x="166" y="2" type="line"/>
      <point x="186" y="17" type="line"/>
      <point x="109" y="171" type="line"/>
      <point x="108" y="170"/>
      <point x="186" y="323"/>
      <point x="186" y="323" type="curve"/>
      <point x="166" y="338" type="line"/>
      <point x="26" y="184" type="line"/>
      <point x="25" y="183"/>
      <point x="25" y="157"/>
    </contour>
  </outline>
</glyph>
<glyph name="guillemotleft" format="2">
  <advance width="367"/>
  <unicode hex="00AB"/>
  <outline>
    <contour>
      <point x="164" y="149" type="curve"/>
      <point x="303" y="0" type="line"/>
      <point x="324" y="16" type="line"/>
      <point x="253" y="162" type="line"/>
      <point x="252" y="162"/>
      <point x="324" y="307"/>
      <point x="323" y="307" type="curve"/>
      <point x="303" y="323" type="line"/>
      <point x="165" y="175" type="line"/>
      <point x="164" y="174"/>
      <point x="164" y="149"/>
    </contour>
    <contour>
      <point x="22" y="149" type="curve"/>
      <point x="161" y="0" type="line"/>
      <point x="181" y="16" type="line"/>
      <point x="111" y="162" type="line"/>
      <point x="110" y="162"/>
      <point x="181" y="307"/>
      <point x="181" y="307" type="curve"/>
      <point x="161" y="323" type="line"/>
      <point x="23" y="175" type="line"/>
      <point x="22" y="174"/>
      <point x="22" y="149"/>
    </contour>
  </outline>
</glyph>
<glyph name="logicalnot" format="2">
  <advance width="361"/>
  <unicode hex="00AC"/>
  <outline>
    <contour>
      <point x="331" y="81" type="curve"/>
      <point x="331" y="210" type="line"/>
      <point x="318" y="220" type="line"/>
      <point x="318" y="220"/>
      <point x="316" y="220"/>
      <point x="42" y="220" type="curve"/>
      <point x="38" y="211"/>
      <point x="28" y="191"/>
      <point x="26" y="182" type="curve"/>
      <point x="37" y="171" type="line"/>
      <point x="279" y="171" type="line"/>
      <point x="279" y="69" type="line"/>
      <point x="291" y="58" type="line"/>
      <point x="302" y="62"/>
      <point x="322" y="74"/>
    </contour>
  </outline>
</glyph>
<glyph name="registered" format="2">
  <advance width="254"/>
  <unicode hex="00AE"/>
  <outline>
    <contour>
      <point x="247" y="378" type="curve"/>
      <point x="247" y="447"/>
      <point x="196" y="503"/>
      <point x="126" y="503" type="curve" smooth="yes"/>
      <point x="57" y="503"/>
      <point x="6" y="447"/>
      <point x="6" y="378" type="curve" smooth="yes"/>
      <point x="6" y="308"/>
      <point x="57" y="252"/>
      <point x="126" y="252" type="curve" smooth="yes"/>
      <point x="196" y="252"/>
      <point x="247" y="308"/>
    </contour>
    <contour>
      <point x="222" y="378" type="curve"/>
      <point x="222" y="322"/>
      <point x="182" y="277"/>
      <point x="126" y="277" type="curve" smooth="yes"/>
      <point x="72" y="277"/>
      <point x="32" y="322"/>
      <point x="32" y="378" type="curve" smooth="yes"/>
      <point x="32" y="433"/>
      <point x="72" y="478"/>
      <point x="126" y="478" type="curve" smooth="yes"/>
      <point x="182" y="478"/>
      <point x="222" y="433"/>
    </contour>
    <contour>
      <point x="179" y="417" type="curve"/>
      <point x="179" y="435"/>
      <point x="162" y="451"/>
      <point x="122" y="451" type="curve" smooth="yes"/>
      <point x="103" y="451"/>
      <point x="85" y="448"/>
      <point x="71" y="445" type="curve"/>
      <point x="72" y="433" type="line"/>
      <point x="87" y="435"/>
      <point x="105" y="438"/>
      <point x="118" y="438" type="curve" smooth="yes"/>
      <point x="140" y="438"/>
      <point x="150" y="427"/>
      <point x="150" y="413" type="curve" smooth="yes"/>
      <point x="150" y="396"/>
      <point x="141" y="386"/>
      <point x="118" y="386" type="curve" smooth="yes"/>
      <point x="114" y="386"/>
      <point x="111" y="386"/>
      <point x="106" y="388" type="curve"/>
      <point x="107" y="373" type="line"/>
      <point x="111" y="372"/>
      <point x="116" y="372"/>
      <point x="119" y="372" type="curve" smooth="yes"/>
      <point x="158" y="372"/>
      <point x="179" y="389"/>
    </contour>
    <contour>
      <point x="195" y="313" type="curve"/>
      <point x="194" y="321" type="line"/>
      <point x="184" y="321"/>
      <point x="180" y="322"/>
      <point x="177" y="327" type="curve" smooth="yes"/>
      <point x="139" y="382" type="line"/>
      <point x="119" y="377" type="line"/>
      <point x="153" y="312" type="line" smooth="yes"/>
      <point x="155" y="309"/>
      <point x="159" y="306"/>
      <point x="163" y="306" type="curve" smooth="yes"/>
      <point x="168" y="306"/>
      <point x="185" y="310"/>
    </contour>
    <contour>
      <point x="72" y="308" type="line"/>
      <point x="124" y="308" type="line"/>
      <point x="124" y="316" type="line"/>
      <point x="113" y="318"/>
      <point x="111" y="320"/>
      <point x="111" y="322" type="curve" smooth="yes"/>
      <point x="111" y="444" type="line"/>
      <point x="86" y="444" type="line"/>
      <point x="86" y="322" type="line" smooth="yes"/>
      <point x="86" y="320"/>
      <point x="82" y="318"/>
      <point x="72" y="316" type="curve"/>
    </contour>
  </outline>
</glyph>
<glyph name="macron" format="2">
  <advance width="369"/>
  <unicode hex="00AF"/>
  <outline>
    <contour>
      <point x="330" y="475" type="curve"/>
      <point x="319" y="485" type="line"/>
      <point x="58" y="485" type="line"/>
      <point x="53" y="476"/>
      <point x="42" y="451"/>
      <point x="39" y="441" type="curve"/>
      <point x="50" y="430" type="line"/>
      <point x="311" y="430" type="line"/>
      <point x="315" y="438"/>
      <point x="327" y="464"/>
    </contour>
  </outline>
</glyph>
<glyph name="degree" format="2">
  <advance width="255"/>
  <unicode hex="00B0"/>
  <outline>
    <contour>
      <point x="215" y="366" type="curve"/>
      <point x="215" y="405"/>
      <point x="182" y="440"/>
      <point x="142" y="440" type="curve" smooth="yes"/>
      <point x="93" y="440"/>
      <point x="39" y="393"/>
      <point x="39" y="328" type="curve" smooth="yes"/>
      <point x="39" y="288"/>
      <point x="70" y="255"/>
      <point x="113" y="255" type="curve" smooth="yes"/>
      <point x="161" y="255"/>
      <point x="215" y="302"/>
    </contour>
    <contour>
      <point x="162" y="347" type="curve"/>
      <point x="162" y="319"/>
      <point x="143" y="304"/>
      <point x="124" y="304" type="curve" smooth="yes"/>
      <point x="104" y="304"/>
      <point x="93" y="325"/>
      <point x="93" y="348" type="curve" smooth="yes"/>
      <point x="93" y="374"/>
      <point x="111" y="390"/>
      <point x="131" y="390" type="curve" smooth="yes"/>
      <point x="150" y="390"/>
      <point x="162" y="370"/>
    </contour>
  </outline>
</glyph>
<glyph name="plusminus" format="2">
  <advance width="300"/>
  <unicode hex="00B1"/>
  <outline>
    <contour>
      <point x="282" y="252" type="curve"/>
      <point x="271" y="263" type="line"/>
      <point x="34" y="263" type="line"/>
      <point x="30" y="254"/>
      <point x="20" y="234"/>
      <point x="18" y="224" type="curve"/>
      <point x="29" y="213" type="line"/>
      <point x="266" y="213" type="line"/>
      <point x="269" y="221"/>
      <point x="279" y="243"/>
    </contour>
    <contour>
      <point x="176" y="121" type="curve"/>
      <point x="176" y="359" type="line"/>
      <point x="165" y="369" type="line"/>
      <point x="155" y="367"/>
      <point x="134" y="359"/>
      <point x="125" y="356" type="curve"/>
      <point x="125" y="118" type="line"/>
      <point x="137" y="108" type="line"/>
      <point x="147" y="110"/>
      <point x="167" y="117"/>
    </contour>
    <contour>
      <point x="282" y="78" type="curve"/>
      <point x="271" y="89" type="line"/>
      <point x="34" y="89" type="line"/>
      <point x="30" y="80"/>
      <point x="20" y="60"/>
      <point x="18" y="50" type="curve"/>
      <point x="29" y="39" type="line"/>
      <point x="266" y="39" type="line"/>
      <point x="269" y="46"/>
      <point x="279" y="68"/>
    </contour>
  </outline>
</glyph>
<glyph name="twosuperior" format="2">
  <advance width="259"/>
  <unicode hex="00B2"/>
  <anchor x="129" y="522" name="U"/>
  <outline>
    <contour>
      <point x="227" y="227" type="line"/>
      <point x="231" y="299" type="line"/>
      <point x="211" y="303" type="line"/>
      <point x="211" y="303"/>
      <point x="208" y="263"/>
      <point x="185" y="263" type="curve" smooth="yes"/>
      <point x="85" y="263" type="line"/>
      <point x="193" y="367"/>
      <point x="227" y="401"/>
      <point x="227" y="440" type="curve" smooth="yes"/>
      <point x="227" y="479"/>
      <point x="194" y="498"/>
      <point x="143" y="498" type="curve" smooth="yes"/>
      <point x="81" y="498"/>
      <point x="27" y="459"/>
      <point x="27" y="429" type="curve"/>
      <point x="35" y="417" type="line"/>
      <point x="51" y="418"/>
      <point x="76" y="424"/>
      <point x="87" y="429" type="curve"/>
      <point x="85" y="451"/>
      <point x="99" y="473"/>
      <point x="126" y="473" type="curve" smooth="yes"/>
      <point x="156" y="473"/>
      <point x="168" y="455"/>
      <point x="168" y="429" type="curve" smooth="yes"/>
      <point x="168" y="397"/>
      <point x="141" y="364"/>
      <point x="20" y="243" type="curve"/>
      <point x="28" y="227" type="line"/>
    </contour>
  </outline>
</glyph>
<glyph name="threesuperior" format="2">
  <advance width="259"/>
  <unicode hex="00B3"/>
  <anchor x="129" y="522" name="U"/>
  <outline>
    <contour>
      <point x="228" y="310" type="curve"/>
      <point x="228" y="346"/>
      <point x="200" y="376"/>
      <point x="159" y="380" type="curve"/>
      <point x="192" y="389"/>
      <point x="213" y="415"/>
      <point x="213" y="437" type="curve" smooth="yes"/>
      <point x="213" y="467"/>
      <point x="189" y="498"/>
      <point x="130" y="498" type="curve" smooth="yes"/>
      <point x="70" y="498"/>
      <point x="25" y="461"/>
      <point x="25" y="436" type="curve"/>
      <point x="33" y="425" type="line"/>
      <point x="50" y="427"/>
      <point x="73" y="432"/>
      <point x="86" y="438" type="curve"/>
      <point x="80" y="458"/>
      <point x="95" y="473"/>
      <point x="115" y="473" type="curve" smooth="yes"/>
      <point x="143" y="473"/>
      <point x="152" y="453"/>
      <point x="152" y="433" type="curve" smooth="yes"/>
      <point x="152" y="415"/>
      <point x="145" y="391"/>
      <point x="86" y="377" type="curve"/>
      <point x="90" y="358" type="line"/>
      <point x="100" y="359"/>
      <point x="100" y="359"/>
      <point x="110" y="359" type="curve" smooth="yes"/>
      <point x="134" y="359"/>
      <point x="167" y="346"/>
      <point x="167" y="304" type="curve" smooth="yes"/>
      <point x="167" y="267"/>
      <point x="141" y="249"/>
      <point x="107" y="249" type="curve" smooth="yes"/>
      <point x="81" y="249"/>
      <point x="57" y="256"/>
      <point x="26" y="276" type="curve"/>
      <point x="17" y="257" type="line"/>
      <point x="47" y="231"/>
      <point x="86" y="220"/>
      <point x="114" y="220" type="curve" smooth="yes"/>
      <point x="183" y="220"/>
      <point x="228" y="261"/>
    </contour>
  </outline>
</glyph>
<glyph name="acute" format="2">
  <advance width="227"/>
  <unicode hex="00B4"/>
  <outline>
    <contour>
      <point x="100" y="362" type="curve"/>
      <point x="234" y="495" type="line"/>
      <point x="223" y="513" type="line"/>
      <point x="213" y="516"/>
      <point x="155" y="526"/>
      <point x="144" y="527" type="curve"/>
      <point x="70" y="377" type="line"/>
      <point x="75" y="373"/>
      <point x="92" y="364"/>
    </contour>
  </outline>
</glyph>
<glyph name="mu" format="2">
  <advance width="406"/>
  <unicode hex="00B5"/>
  <outline>
    <contour>
      <point x="404" y="33" type="curve"/>
      <point x="395" y="59" type="line"/>
      <point x="380" y="52"/>
      <point x="371" y="50"/>
      <point x="361" y="50" type="curve" smooth="yes"/>
      <point x="351" y="50"/>
      <point x="347" y="60"/>
      <point x="347" y="103" type="curve" smooth="yes"/>
      <point x="347" y="117"/>
      <point x="347" y="256"/>
      <point x="347" y="264" type="curve"/>
      <point x="348" y="293"/>
      <point x="351" y="306"/>
      <point x="353" y="318" type="curve"/>
      <point x="341" y="334" type="line"/>
      <point x="314" y="326"/>
      <point x="276" y="318"/>
      <point x="250" y="313" type="curve"/>
      <point x="257" y="305"/>
      <point x="264" y="275"/>
      <point x="264" y="260" type="curve" smooth="yes"/>
      <point x="264" y="249"/>
      <point x="264" y="85"/>
      <point x="264" y="75" type="curve" smooth="yes"/>
      <point x="264" y="30"/>
      <point x="277" y="-10"/>
      <point x="306" y="-10" type="curve" smooth="yes"/>
      <point x="329" y="-10"/>
      <point x="377" y="13"/>
    </contour>
    <contour>
      <point x="285" y="84" type="curve"/>
      <point x="280" y="128" type="line"/>
      <point x="237" y="67"/>
      <point x="215" y="58"/>
      <point x="195" y="58" type="curve" smooth="yes"/>
      <point x="173" y="58"/>
      <point x="142" y="91"/>
      <point x="142" y="132" type="curve" smooth="yes"/>
      <point x="142" y="137"/>
      <point x="142" y="314"/>
      <point x="142" y="317" type="curve"/>
      <point x="138" y="322"/>
      <point x="126" y="334"/>
      <point x="126" y="334" type="curve"/>
      <point x="91" y="322"/>
      <point x="57" y="315"/>
      <point x="16" y="311" type="curve"/>
      <point x="16" y="287" type="line"/>
      <point x="59" y="282"/>
      <point x="58" y="277"/>
      <point x="58" y="241" type="curve" smooth="yes"/>
      <point x="58" y="237"/>
      <point x="58" y="166"/>
      <point x="58" y="159" type="curve" smooth="yes"/>
      <point x="58" y="70"/>
      <point x="131" y="-10"/>
      <point x="173" y="-10" type="curve" smooth="yes"/>
      <point x="208" y="-10"/>
      <point x="240" y="16"/>
    </contour>
    <contour>
      <point x="102" y="160" type="curve"/>
      <point x="99" y="178"/>
      <point x="58" y="214"/>
      <point x="58" y="214" type="curve"/>
      <point x="58" y="189"/>
      <point x="58" y="-151"/>
      <point x="58" y="-161" type="curve"/>
      <point x="74" y="-174" type="line"/>
      <point x="85" y="-168"/>
      <point x="148" y="-143"/>
      <point x="161" y="-139" type="curve"/>
      <point x="133" y="-109"/>
      <point x="102" y="-54"/>
      <point x="103" y="29" type="curve"/>
      <point x="103" y="84"/>
      <point x="99" y="117"/>
    </contour>
  </outline>
</glyph>
<glyph name="paragraph" format="2">
  <advance width="432"/>
  <unicode hex="00B6"/>
  <outline>
    <contour>
      <point x="384" y="439" type="curve"/>
      <point x="384" y="439"/>
      <point x="228" y="449"/>
      <point x="187" y="449" type="curve" smooth="yes"/>
      <point x="80" y="449"/>
      <point x="12" y="394"/>
      <point x="12" y="314" type="curve" smooth="yes"/>
      <point x="12" y="227"/>
      <point x="86" y="180"/>
      <point x="186" y="180" type="curve" smooth="yes"/>
      <point x="233" y="180"/>
      <point x="246" y="193"/>
      <point x="246" y="193" type="curve"/>
      <point x="243" y="223" type="line"/>
      <point x="243" y="223"/>
      <point x="231" y="220"/>
      <point x="201" y="220" type="curve" smooth="yes"/>
      <point x="132" y="220"/>
      <point x="104" y="276"/>
      <point x="104" y="327" type="curve" smooth="yes"/>
      <point x="104" y="379"/>
      <point x="149" y="410"/>
      <point x="194" y="410" type="curve" smooth="yes"/>
      <point x="219" y="410"/>
      <point x="288" y="406"/>
      <point x="333" y="389" type="curve"/>
      <point x="337" y="386"/>
      <point x="384" y="439"/>
    </contour>
    <contour>
      <point x="168" y="-87" type="line"/>
      <point x="407" y="-87" type="line"/>
      <point x="407" y="-61" type="line"/>
      <point x="373" y="-55"/>
      <point x="359" y="-46"/>
      <point x="359" y="-40" type="curve" smooth="yes"/>
      <point x="359" y="392" type="line" smooth="yes"/>
      <point x="359" y="398"/>
      <point x="376" y="407"/>
      <point x="407" y="413" type="curve"/>
      <point x="407" y="439" type="line"/>
      <point x="166" y="439" type="line"/>
      <point x="166" y="413" type="line"/>
      <point x="200" y="407"/>
      <point x="217" y="420"/>
      <point x="217" y="415" type="curve" smooth="yes"/>
      <point x="216" y="-40" type="line" smooth="yes"/>
      <point x="216" y="-46"/>
      <point x="199" y="-55"/>
      <point x="168" y="-61" type="curve"/>
    </contour>
    <contour>
      <point x="302" y="409" type="line"/>
      <point x="302" y="-40" type="line"/>
      <point x="302" y="-45"/>
      <point x="293" y="-49"/>
      <point x="287" y="-50" type="curve"/>
      <point x="283" y="-49"/>
      <point x="274" y="-45"/>
      <point x="274" y="-40" type="curve" smooth="yes"/>
      <point x="274" y="416" type="line"/>
    </contour>
  </outline>
</glyph>
<glyph name="periodcentered" format="2">
  <advance width="146"/>
  <unicode hex="00B7"/>
  <outline>
    <contour>
      <point x="128" y="246" type="curve"/>
      <point x="128" y="278"/>
      <point x="104" y="292"/>
      <point x="79" y="292" type="curve" smooth="yes"/>
      <point x="46" y="292"/>
      <point x="17" y="270"/>
      <point x="17" y="235" type="curve" smooth="yes"/>
      <point x="17" y="203"/>
      <point x="40" y="189"/>
      <point x="66" y="189" type="curve" smooth="yes"/>
      <point x="100" y="189"/>
      <point x="128" y="210"/>
    </contour>
  </outline>
</glyph>
<glyph name="cedilla" format="2">
  <advance width="163"/>
  <unicode hex="00B8"/>
  <outline>
    <contour>
      <point x="158" y="-79" type="curve"/>
      <point x="158" y="-53"/>
      <point x="137" y="-37"/>
      <point x="101" y="-31" type="curve"/>
      <point x="119" y="17" type="line"/>
      <point x="76" y="18" type="line"/>
      <point x="52" y="-59"/>
      <point x="44" y="-70"/>
      <point x="44" y="-70" type="curve"/>
      <point x="64" y="-72"/>
      <point x="76" y="-77"/>
      <point x="76" y="-93" type="curve" smooth="yes"/>
      <point x="76" y="-108"/>
      <point x="59" y="-123"/>
      <point x="19" y="-129" type="curve"/>
      <point x="32" y="-154" type="line"/>
      <point x="105" y="-147"/>
      <point x="158" y="-114"/>
    </contour>
  </outline>
</glyph>
<glyph name="onesuperior" format="2">
  <advance width="259"/>
  <unicode hex="00B9"/>
  <anchor x="133" y="522" name="U"/>
  <outline>
    <contour>
      <point x="41" y="227" type="line"/>
      <point x="228" y="227" type="line"/>
      <point x="228" y="244" type="line"/>
      <point x="176" y="250"/>
      <point x="165" y="258"/>
      <point x="165" y="264" type="curve" smooth="yes"/>
      <point x="165" y="491" type="line"/>
      <point x="155" y="500" type="line"/>
      <point x="131" y="490"/>
      <point x="62" y="469"/>
      <point x="32" y="463" type="curve"/>
      <point x="39" y="445" type="line"/>
      <point x="84" y="454"/>
      <point x="99" y="452"/>
      <point x="103" y="448" type="curve" smooth="yes"/>
      <point x="108" y="444"/>
      <point x="108" y="439"/>
      <point x="108" y="427" type="curve" smooth="yes"/>
      <point x="108" y="264" type="line" smooth="yes"/>
      <point x="108" y="258"/>
      <point x="94" y="250"/>
      <point x="41" y="244" type="curve"/>
    </contour>
  </outline>
</glyph>
<glyph name="ordmasculine" format="2">
  <advance width="200"/>
  <unicode hex="00BA"/>
  <outline>
    <contour>
      <point x="188" y="349" type="curve"/>
      <point x="188" y="400"/>
      <point x="154" y="440"/>
      <point x="104" y="440" type="curve" smooth="yes"/>
      <point x="49" y="440"/>
      <point x="12" y="390"/>
      <point x="12" y="342" type="curve" smooth="yes"/>
      <point x="12" y="291"/>
      <point x="44" y="253"/>
      <point x="96" y="253" type="curve" smooth="yes"/>
      <point x="145" y="253"/>
      <point x="188" y="301"/>
    </contour>
    <contour>
      <point x="15" y="204" type="line"/>
      <point x="184" y="204" type="line"/>
      <point x="184" y="235" type="line"/>
      <point x="15" y="235" type="line"/>
    </contour>
    <contour>
      <point x="140" y="341" type="curve"/>
      <point x="140" y="302"/>
      <point x="130" y="276"/>
      <point x="102" y="276" type="curve" smooth="yes"/>
      <point x="79" y="276"/>
      <point x="59" y="311"/>
      <point x="59" y="350" type="curve" smooth="yes"/>
      <point x="59" y="389"/>
      <point x="69" y="417"/>
      <point x="97" y="417" type="curve" smooth="yes"/>
      <point x="125" y="417"/>
      <point x="140" y="380"/>
    </contour>
  </outline>
</glyph>
<glyph name="guillemetright" format="2">
  <advance width="378"/>
  <unicode hex="00BB"/>
  <outline>
    <contour>
      <point x="208" y="156" type="line"/>
      <point x="208" y="183" type="line"/>
      <point x="67" y="338" type="line"/>
      <point x="47" y="323" type="line"/>
      <point x="124" y="170" type="line"/>
      <point x="47" y="17" type="line"/>
      <point x="67" y="2" type="line"/>
    </contour>
    <contour>
      <point x="352" y="156" type="line"/>
      <point x="352" y="183" type="line"/>
      <point x="211" y="338" type="line"/>
      <point x="192" y="323" type="line"/>
      <point x="269" y="170" type="line"/>
      <point x="192" y="17" type="line"/>
      <point x="211" y="2" type="line"/>
    </contour>
  </outline>
</glyph>
<glyph name="guillemotright" format="2">
  <advance width="367"/>
  <unicode hex="00BB"/>
  <outline>
    <contour>
      <point x="202" y="149" type="line"/>
      <point x="202" y="174" type="line"/>
      <point x="63" y="323" type="line"/>
      <point x="43" y="307" type="line"/>
      <point x="113" y="161" type="line"/>
      <point x="43" y="16" type="line"/>
      <point x="63" y="0" type="line"/>
    </contour>
    <contour>
      <point x="344" y="149" type="line"/>
      <point x="344" y="174" type="line"/>
      <point x="205" y="323" type="line"/>
      <point x="185" y="307" type="line"/>
      <point x="255" y="161" type="line"/>
      <point x="185" y="16" type="line"/>
      <point x="205" y="0" type="line"/>
    </contour>
  </outline>
</glyph>
<glyph name="onequarter" format="2">
  <advance width="444"/>
  <unicode hex="00BC"/>
  <outline>
    <contour>
      <point x="108" y="1" type="curve"/>
      <point x="417" y="420" type="line"/>
      <point x="408" y="430" type="line"/>
      <point x="398" y="428"/>
      <point x="373" y="423"/>
      <point x="364" y="419" type="curve"/>
      <point x="54" y="0" type="line"/>
      <point x="62" y="-10" type="line"/>
      <point x="75" y="-7"/>
      <point x="97" y="-4"/>
    </contour>
    <contour>
      <point x="424" y="74" type="curve"/>
      <point x="419" y="80" type="line"/>
      <point x="394" y="80" type="line"/>
      <point x="394" y="201" type="line"/>
      <point x="385" y="208" type="line"/>
      <point x="374" y="204"/>
      <point x="353" y="198"/>
      <point x="341" y="195" type="curve"/>
      <point x="245" y="62" type="line"/>
      <point x="253" y="55" type="line"/>
      <point x="347" y="55" type="line"/>
      <point x="347" y="24" type="line" smooth="yes"/>
      <point x="347" y="21"/>
      <point x="341" y="17"/>
      <point x="306" y="12" type="curve"/>
      <point x="306" y="0" type="line"/>
      <point x="421" y="0" type="line"/>
      <point x="421" y="12" type="line"/>
      <point x="399" y="17"/>
      <point x="394" y="19"/>
      <point x="394" y="23" type="curve" smooth="yes"/>
      <point x="394" y="55" type="line"/>
      <point x="404" y="55" type="line"/>
      <point x="410" y="59"/>
      <point x="419" y="67"/>
    </contour>
    <contour>
      <point x="347" y="163" type="line"/>
      <point x="347" y="80" type="line"/>
      <point x="285" y="80" type="line"/>
    </contour>
    <contour>
      <point x="30" y="222" type="line"/>
      <point x="181" y="222" type="line"/>
      <point x="181" y="236" type="line"/>
      <point x="141" y="241"/>
      <point x="132" y="247"/>
      <point x="132" y="251" type="curve" smooth="yes"/>
      <point x="132" y="423" type="line"/>
      <point x="123" y="430" type="line"/>
      <point x="104" y="423"/>
      <point x="47" y="406"/>
      <point x="24" y="402" type="curve"/>
      <point x="30" y="387" type="line"/>
      <point x="65" y="394"/>
      <point x="76" y="392"/>
      <point x="79" y="390" type="curve" smooth="yes"/>
      <point x="83" y="387"/>
      <point x="83" y="382"/>
      <point x="83" y="373" type="curve" smooth="yes"/>
      <point x="83" y="251" type="line" smooth="yes"/>
      <point x="83" y="247"/>
      <point x="72" y="241"/>
      <point x="30" y="236" type="curve"/>
    </contour>
  </outline>
</glyph>
<glyph name="onehalf" format="2">
  <advance width="457"/>
  <unicode hex="00BD"/>
  <outline>
    <contour>
      <point x="114" y="1" type="curve"/>
      <point x="422" y="442" type="line"/>
      <point x="413" y="452" type="line"/>
      <point x="403" y="450"/>
      <point x="381" y="444"/>
      <point x="371" y="440" type="curve"/>
      <point x="61" y="0" type="line"/>
      <point x="70" y="-10" type="line"/>
      <point x="84" y="-7"/>
      <point x="102" y="-4"/>
    </contour>
    <contour>
      <point x="33" y="233" type="line"/>
      <point x="184" y="233" type="line"/>
      <point x="184" y="247" type="line"/>
      <point x="143" y="252"/>
      <point x="134" y="258"/>
      <point x="134" y="263" type="curve" smooth="yes"/>
      <point x="134" y="445" type="line"/>
      <point x="125" y="452" type="line"/>
      <point x="106" y="444"/>
      <point x="50" y="427"/>
      <point x="27" y="422" type="curve"/>
      <point x="32" y="408" type="line"/>
      <point x="68" y="414"/>
      <point x="80" y="413"/>
      <point x="84" y="410" type="curve" smooth="yes"/>
      <point x="87" y="407"/>
      <point x="87" y="402"/>
      <point x="87" y="393" type="curve" smooth="yes"/>
      <point x="87" y="263" type="line" smooth="yes"/>
      <point x="87" y="258"/>
      <point x="76" y="252"/>
      <point x="33" y="247" type="curve"/>
    </contour>
    <contour>
      <point x="428" y="0" type="line"/>
      <point x="431" y="58" type="line"/>
      <point x="415" y="61" type="line"/>
      <point x="415" y="61"/>
      <point x="413" y="28"/>
      <point x="394" y="28" type="curve" smooth="yes"/>
      <point x="313" y="28" type="line"/>
      <point x="400" y="112"/>
      <point x="428" y="139"/>
      <point x="428" y="170" type="curve" smooth="yes"/>
      <point x="428" y="201"/>
      <point x="401" y="217"/>
      <point x="360" y="217" type="curve" smooth="yes"/>
      <point x="310" y="217"/>
      <point x="266" y="186"/>
      <point x="266" y="161" type="curve"/>
      <point x="273" y="152" type="line"/>
      <point x="286" y="153"/>
      <point x="306" y="157"/>
      <point x="315" y="162" type="curve"/>
      <point x="313" y="179"/>
      <point x="324" y="196"/>
      <point x="346" y="196" type="curve" smooth="yes"/>
      <point x="370" y="196"/>
      <point x="380" y="182"/>
      <point x="380" y="162" type="curve" smooth="yes"/>
      <point x="380" y="136"/>
      <point x="358" y="109"/>
      <point x="261" y="13" type="curve"/>
      <point x="267" y="0" type="line"/>
    </contour>
  </outline>
</glyph>
<glyph name="threequarters" format="2">
  <advance width="457"/>
  <unicode hex="00BE"/>
  <outline>
    <contour>
      <point x="113" y="1" type="curve"/>
      <point x="422" y="442" type="line"/>
      <point x="413" y="452" type="line"/>
      <point x="402" y="450"/>
      <point x="381" y="444"/>
      <point x="371" y="440" type="curve"/>
      <point x="61" y="0" type="line"/>
      <point x="70" y="-10" type="line"/>
      <point x="83" y="-7"/>
      <point x="102" y="-4"/>
    </contour>
    <contour>
      <point x="193" y="300" type="curve" smooth="yes"/>
      <point x="193" y="328"/>
      <point x="171" y="353"/>
      <point x="138" y="356" type="curve"/>
      <point x="164" y="363"/>
      <point x="181" y="384"/>
      <point x="181" y="401" type="curve" smooth="yes"/>
      <point x="181" y="425"/>
      <point x="162" y="450"/>
      <point x="114" y="450" type="curve" smooth="yes"/>
      <point x="65" y="450"/>
      <point x="29" y="420"/>
      <point x="29" y="401" type="curve"/>
      <point x="35" y="392" type="line"/>
      <point x="49" y="393"/>
      <point x="68" y="397"/>
      <point x="78" y="402" type="curve"/>
      <point x="74" y="418"/>
      <point x="86" y="429"/>
      <point x="102" y="429" type="curve" smooth="yes"/>
      <point x="124" y="429"/>
      <point x="132" y="414"/>
      <point x="132" y="398" type="curve" smooth="yes"/>
      <point x="132" y="384"/>
      <point x="126" y="364"/>
      <point x="78" y="353" type="curve"/>
      <point x="81" y="338" type="line"/>
      <point x="90" y="339"/>
      <point x="90" y="339"/>
      <point x="97" y="339" type="curve" smooth="yes"/>
      <point x="117" y="339"/>
      <point x="144" y="328"/>
      <point x="144" y="295" type="curve" smooth="yes"/>
      <point x="144" y="265"/>
      <point x="123" y="251"/>
      <point x="95" y="251" type="curve" smooth="yes"/>
      <point x="75" y="251"/>
      <point x="55" y="257"/>
      <point x="30" y="272" type="curve"/>
      <point x="22" y="257" type="line"/>
      <point x="47" y="237"/>
      <point x="78" y="228"/>
      <point x="101" y="228" type="curve" smooth="yes"/>
      <point x="156" y="228"/>
      <point x="193" y="260"/>
    </contour>
    <contour>
      <point x="434" y="78" type="curve"/>
      <point x="428" y="83" type="line"/>
      <point x="403" y="83" type="line"/>
      <point x="403" y="211" type="line"/>
      <point x="394" y="218" type="line"/>
      <point x="384" y="215"/>
      <point x="365" y="209"/>
      <point x="352" y="205" type="curve"/>
      <point x="251" y="65" type="line"/>
      <point x="259" y="58" type="line"/>
      <point x="359" y="58" type="line"/>
      <point x="359" y="25" type="line" smooth="yes"/>
      <point x="359" y="21"/>
      <point x="353" y="17"/>
      <point x="317" y="12" type="curve"/>
      <point x="317" y="0" type="line"/>
      <point x="430" y="0" type="line"/>
      <point x="430" y="12" type="line"/>
      <point x="408" y="17"/>
      <point x="403" y="19"/>
      <point x="403" y="23" type="curve" smooth="yes"/>
      <point x="403" y="58" type="line"/>
      <point x="414" y="58" type="line"/>
      <point x="420" y="62"/>
      <point x="428" y="70"/>
    </contour>
    <contour>
      <point x="359" y="174" type="line"/>
      <point x="359" y="83" type="line"/>
      <point x="290" y="83" type="line"/>
    </contour>
  </outline>
</glyph>
<glyph name="questiondown" format="2">
  <advance width="335"/>
  <unicode hex="00BF"/>
  <outline>
    <contour>
      <point x="230" y="305" type="curve" smooth="yes"/>
      <point x="230" y="336"/>
      <point x="210" y="351"/>
      <point x="182" y="351" type="curve" smooth="yes"/>
      <point x="149" y="351"/>
      <point x="121" y="327"/>
      <point x="121" y="290" type="curve" smooth="yes"/>
      <point x="121" y="258"/>
      <point x="142" y="243"/>
      <point x="168" y="243" type="curve" smooth="yes"/>
      <point x="201" y="243"/>
      <point x="230" y="268"/>
    </contour>
    <contour>
      <point x="157" y="188" type="curve"/>
      <point x="154" y="153" type="line"/>
      <point x="148" y="62"/>
      <point x="25" y="20"/>
      <point x="25" y="-89" type="curve" smooth="yes"/>
      <point x="25" y="-157"/>
      <point x="68" y="-204"/>
      <point x="146" y="-204" type="curve" smooth="yes"/>
      <point x="233" y="-204"/>
      <point x="310" y="-152"/>
      <point x="310" y="-83" type="curve" smooth="yes"/>
      <point x="310" y="-79"/>
      <point x="310" y="-71"/>
      <point x="309" y="-67" type="curve"/>
      <point x="297" y="-54" type="line"/>
      <point x="276" y="-56"/>
      <point x="237" y="-65"/>
      <point x="221" y="-74" type="curve"/>
      <point x="224" y="-81"/>
      <point x="226" y="-90"/>
      <point x="226" y="-97" type="curve" smooth="yes"/>
      <point x="226" y="-135"/>
      <point x="201" y="-164"/>
      <point x="173" y="-164" type="curve" smooth="yes"/>
      <point x="133" y="-164"/>
      <point x="110" y="-133"/>
      <point x="110" y="-73" type="curve" smooth="yes"/>
      <point x="110" y="-3"/>
      <point x="208" y="69"/>
      <point x="203" y="153" type="curve"/>
      <point x="201" y="194" type="line"/>
      <point x="190" y="203" type="line"/>
      <point x="176" y="200"/>
      <point x="165" y="195"/>
    </contour>
  </outline>
</glyph>
<glyph name="AE" format="2">
  <advance width="598"/>
  <unicode hex="00C6"/>
  <anchor x="348" y="501" name="U"/>
  <outline>
    <contour>
      <point x="580" y="104" type="curve"/>
      <point x="557" y="112" type="line"/>
      <point x="536" y="55"/>
      <point x="520" y="40"/>
      <point x="475" y="40" type="curve" smooth="yes"/>
      <point x="436" y="40" type="line" smooth="yes"/>
      <point x="371" y="40"/>
      <point x="360" y="49"/>
      <point x="360" y="63" type="curve" smooth="yes"/>
      <point x="360" y="231" type="line"/>
      <point x="430" y="231" type="line" smooth="yes"/>
      <point x="445" y="231"/>
      <point x="470" y="225"/>
      <point x="484" y="211" type="curve"/>
      <point x="494" y="219"/>
      <point x="510" y="243"/>
      <point x="518" y="257" type="curve"/>
      <point x="506" y="269" type="line"/>
      <point x="360" y="269" type="line"/>
      <point x="360" y="421" type="line"/>
      <point x="487" y="421" type="line" smooth="yes"/>
      <point x="506" y="421"/>
      <point x="514" y="400"/>
      <point x="517" y="355" type="curve"/>
      <point x="540" y="355" type="line"/>
      <point x="547" y="373"/>
      <point x="554" y="425"/>
      <point x="555" y="450" type="curve"/>
      <point x="543" y="461" type="line"/>
      <point x="395" y="461" type="line"/>
      <point x="333" y="461" type="line"/>
      <point x="139" y="461" type="line"/>
      <point x="139" y="438" type="line"/>
      <point x="187" y="429"/>
      <point x="206" y="424"/>
      <point x="199" y="407" type="curve" smooth="yes"/>
      <point x="54" y="47" type="line" smooth="yes"/>
      <point x="48" y="33"/>
      <point x="30" y="28"/>
      <point x="0" y="23" type="curve"/>
      <point x="0" y="0" type="line"/>
      <point x="152" y="0" type="line"/>
      <point x="152" y="23" type="line"/>
      <point x="114" y="27"/>
      <point x="103" y="33"/>
      <point x="109" y="47" type="curve" smooth="yes"/>
      <point x="184" y="231" type="line"/>
      <point x="279" y="231" type="line"/>
      <point x="279" y="45" type="line" smooth="yes"/>
      <point x="279" y="38"/>
      <point x="262" y="29"/>
      <point x="229" y="23" type="curve"/>
      <point x="229" y="0" type="line"/>
      <point x="565" y="0" type="line"/>
      <point x="568" y="14"/>
      <point x="575" y="61"/>
    </contour>
    <contour>
      <point x="279" y="413" type="curve" smooth="yes"/>
      <point x="279" y="269" type="line"/>
      <point x="199" y="269" type="line"/>
      <point x="254" y="406" type="line" smooth="yes"/>
      <point x="261" y="423"/>
      <point x="279" y="423"/>
    </contour>
  </outline>
</glyph>
<glyph name="Eth" format="2">
  <advance width="466"/>
  <unicode hex="00D0"/>
  <anchor x="222" y="501" name="U"/>
  <outline>
    <component base="D"/>
    <contour>
      <point x="236" y="225" type="line"/>
      <point x="247" y="257" type="line"/>
      <point x="238" y="265" type="line"/>
      <point x="20" y="265" type="line"/>
      <point x="17" y="257"/>
      <point x="12" y="241"/>
      <point x="10" y="234" type="curve"/>
      <point x="18" y="225" type="line"/>
    </contour>
  </outline>
</glyph>
<glyph name="multiply" format="2">
  <advance width="307"/>
  <unicode hex="00D7"/>
  <outline>
    <contour>
      <point x="275" y="104" type="curve"/>
      <point x="275" y="118" type="line"/>
      <point x="73" y="319" type="line"/>
      <point x="63" y="317"/>
      <point x="41" y="312"/>
      <point x="31" y="307" type="curve"/>
      <point x="32" y="292" type="line"/>
      <point x="233" y="90" type="line"/>
      <point x="242" y="93"/>
      <point x="265" y="100"/>
    </contour>
    <contour>
      <point x="32" y="118" type="line"/>
      <point x="32" y="104" type="line"/>
      <point x="43" y="98"/>
      <point x="64" y="93"/>
      <point x="73" y="90" type="curve"/>
      <point x="274" y="291" type="line"/>
      <point x="274" y="306" type="line"/>
      <point x="265" y="311"/>
      <point x="243" y="317"/>
      <point x="233" y="319" type="curve"/>
    </contour>
  </outline>
</glyph>
<glyph name="Oslash" format="2">
  <advance width="461"/>
  <unicode hex="00D8"/>
  <anchor x="226" y="501" name="U"/>
  <outline>
    <contour>
      <point x="431" y="236" type="curve"/>
      <point x="431" y="356"/>
      <point x="363" y="472"/>
      <point x="237" y="472" type="curve" smooth="yes"/>
      <point x="113" y="472"/>
      <point x="21" y="357"/>
      <point x="21" y="224" type="curve" smooth="yes"/>
      <point x="21" y="101"/>
      <point x="94" y="-10"/>
      <point x="216" y="-10" type="curve" smooth="yes"/>
      <point x="332" y="-10"/>
      <point x="431" y="104"/>
    </contour>
    <contour>
      <point x="350" y="230" type="curve"/>
      <point x="350" y="101"/>
      <point x="300" y="36"/>
      <point x="230" y="36" type="curve" smooth="yes"/>
      <point x="160" y="36"/>
      <point x="102" y="125"/>
      <point x="102" y="234" type="curve" smooth="yes"/>
      <point x="102" y="354"/>
      <point x="145" y="426"/>
      <point x="221" y="426" type="curve" smooth="yes"/>
      <point x="298" y="426"/>
      <point x="350" y="331"/>
    </contour>
    <contour>
      <point x="91" y="0" type="curve"/>
      <point x="428" y="467" type="line"/>
      <point x="416" y="480" type="line"/>
      <point x="401" y="478"/>
      <point x="375" y="470"/>
      <point x="362" y="462" type="curve"/>
      <point x="24" y="-6" type="line"/>
      <point x="36" y="-19" type="line"/>
      <point x="48" y="-16"/>
      <point x="82" y="-8"/>
    </contour>
  </outline>
</glyph>
<glyph name="Thorn" format="2">
  <advance width="414"/>
  <unicode hex="00DE"/>
  <anchor x="200" y="501" name="U"/>
  <outline>
    <contour>
      <point x="385" y="245" type="curve"/>
      <point x="385" y="329"/>
      <point x="312" y="375"/>
      <point x="201" y="375" type="curve" smooth="yes"/>
      <point x="158" y="375"/>
      <point x="122" y="372"/>
      <point x="89" y="367" type="curve"/>
      <point x="93" y="333" type="line"/>
      <point x="123" y="336"/>
      <point x="154" y="338"/>
      <point x="180" y="338" type="curve" smooth="yes"/>
      <point x="252" y="338"/>
      <point x="305" y="303"/>
      <point x="305" y="230" type="curve" smooth="yes"/>
      <point x="305" y="161"/>
      <point x="257" y="130"/>
      <point x="213" y="130" type="curve" smooth="yes"/>
      <point x="196" y="130"/>
      <point x="181" y="131"/>
      <point x="161" y="140" type="curve"/>
      <point x="171" y="106" type="line"/>
      <point x="187" y="98"/>
      <point x="209" y="95"/>
      <point x="232" y="95" type="curve" smooth="yes"/>
      <point x="294" y="95"/>
      <point x="385" y="144"/>
    </contour>
    <contour>
      <point x="16" y="0" type="line"/>
      <point x="210" y="0" type="line"/>
      <point x="210" y="23" type="line"/>
      <point x="160" y="31"/>
      <point x="148" y="39"/>
      <point x="148" y="45" type="curve" smooth="yes"/>
      <point x="148" y="415" type="line" smooth="yes"/>
      <point x="148" y="422"/>
      <point x="160" y="429"/>
      <point x="210" y="438" type="curve"/>
      <point x="210" y="461" type="line"/>
      <point x="16" y="461" type="line"/>
      <point x="16" y="438" type="line"/>
      <point x="51" y="431"/>
      <point x="68" y="421"/>
      <point x="68" y="415" type="curve" smooth="yes"/>
      <point x="68" y="45" type="line" smooth="yes"/>
      <point x="68" y="38"/>
      <point x="49" y="29"/>
      <point x="16" y="23" type="curve"/>
    </contour>
  </outline>
</glyph>
<glyph name="germandbls" format="2">
  <advance width="449"/>
  <unicode hex="00DF"/>
  <anchor x="219" y="589" name="U"/>
  <outline>
    <contour>
      <point x="430" y="98" type="curve"/>
      <point x="430" y="209"/>
      <point x="272" y="203"/>
      <point x="272" y="268" type="curve" smooth="yes"/>
      <point x="272" y="324"/>
      <point x="392" y="300"/>
      <point x="392" y="415" type="curve" smooth="yes"/>
      <point x="392" y="474"/>
      <point x="340" y="540"/>
      <point x="251" y="540" type="curve" smooth="yes"/>
      <point x="212" y="540"/>
      <point x="174" y="526"/>
      <point x="147" y="508" type="curve" smooth="yes"/>
      <point x="111" y="483"/>
      <point x="62" y="441"/>
      <point x="62" y="329" type="curve" smooth="yes"/>
      <point x="62" y="46" type="line" smooth="yes"/>
      <point x="62" y="40"/>
      <point x="47" y="31"/>
      <point x="16" y="25" type="curve"/>
      <point x="16" y="0" type="line"/>
      <point x="146" y="0" type="line"/>
      <point x="146" y="349" type="line" smooth="yes"/>
      <point x="146" y="464"/>
      <point x="178" y="489"/>
      <point x="217" y="489" type="curve" smooth="yes"/>
      <point x="272" y="489"/>
      <point x="307" y="448"/>
      <point x="307" y="391" type="curve" smooth="yes"/>
      <point x="307" y="324"/>
      <point x="194" y="340"/>
      <point x="194" y="254" type="curve" smooth="yes"/>
      <point x="194" y="150"/>
      <point x="354" y="161"/>
      <point x="354" y="73" type="curve" smooth="yes"/>
      <point x="354" y="46"/>
      <point x="334" y="32"/>
      <point x="304" y="32" type="curve" smooth="yes"/>
      <point x="268" y="32"/>
      <point x="235" y="59"/>
      <point x="225" y="113" type="curve"/>
      <point x="197" y="117" type="line"/>
      <point x="190" y="107"/>
      <point x="187" y="24"/>
      <point x="194" y="15" type="curve" smooth="yes"/>
      <point x="201" y="6"/>
      <point x="255" y="-10"/>
      <point x="293" y="-10" type="curve" smooth="yes"/>
      <point x="385" y="-10"/>
      <point x="430" y="39"/>
    </contour>
  </outline>
</glyph>
<glyph name="ae" format="2">
  <advance width="539"/>
  <unicode hex="00E6"/>
  <anchor x="281" y="0" name="H"/>
  <anchor x="281" y="384" name="U"/>
  <outline>
    <contour>
      <point x="107" y="-10" type="curve" smooth="yes"/>
      <point x="147" y="-10"/>
      <point x="202" y="12"/>
      <point x="246" y="65" type="curve"/>
      <point x="271" y="17"/>
      <point x="318" y="-10"/>
      <point x="360" y="-10" type="curve" smooth="yes"/>
      <point x="415" y="-10"/>
      <point x="452" y="5"/>
      <point x="510" y="71" type="curve"/>
      <point x="508" y="75"/>
      <point x="499" y="88"/>
      <point x="493" y="91" type="curve"/>
      <point x="445" y="54"/>
      <point x="420" y="46"/>
      <point x="389" y="46" type="curve" smooth="yes"/>
      <point x="333" y="46"/>
      <point x="303" y="109"/>
      <point x="303" y="158" type="curve" smooth="yes"/>
      <point x="303" y="163"/>
      <point x="303" y="169"/>
      <point x="304" y="173" type="curve"/>
      <point x="467" y="173" type="line"/>
      <point x="483" y="179"/>
      <point x="504" y="192"/>
      <point x="513" y="202" type="curve"/>
      <point x="513" y="275"/>
      <point x="475" y="351"/>
      <point x="388" y="351" type="curve" smooth="yes"/>
      <point x="359" y="351"/>
      <point x="320" y="340"/>
      <point x="288" y="308" type="curve"/>
      <point x="273" y="338"/>
      <point x="247" y="351"/>
      <point x="208" y="351" type="curve" smooth="yes"/>
      <point x="158" y="351"/>
      <point x="56" y="312"/>
      <point x="34" y="242" type="curve"/>
      <point x="41" y="225" type="line"/>
      <point x="53" y="221"/>
      <point x="126" y="241"/>
      <point x="124" y="251" type="curve"/>
      <point x="113" y="284"/>
      <point x="153" y="307"/>
      <point x="180" y="307" type="curve" smooth="yes"/>
      <point x="217" y="307"/>
      <point x="230" y="282"/>
      <point x="230" y="240" type="curve" smooth="yes"/>
      <point x="230" y="210" type="line"/>
      <point x="206" y="209"/>
      <point x="182" y="207"/>
      <point x="167" y="203" type="curve" smooth="yes"/>
      <point x="68" y="178"/>
      <point x="25" y="129"/>
      <point x="25" y="71" type="curve" smooth="yes"/>
      <point x="25" y="11"/>
      <point x="72" y="-10"/>
    </contour>
    <contour>
      <point x="143" y="47" type="curve" smooth="yes"/>
      <point x="128" y="47"/>
      <point x="105" y="57"/>
      <point x="105" y="91" type="curve" smooth="yes"/>
      <point x="105" y="127"/>
      <point x="133" y="156"/>
      <point x="189" y="168" type="curve" smooth="yes"/>
      <point x="198" y="170"/>
      <point x="214" y="171"/>
      <point x="230" y="172" type="curve"/>
      <point x="230" y="137" type="line" smooth="yes"/>
      <point x="230" y="119"/>
      <point x="231" y="108"/>
      <point x="235" y="94" type="curve"/>
      <point x="201" y="60"/>
      <point x="167" y="47"/>
    </contour>
    <contour>
      <point x="306" y="212" type="line"/>
      <point x="318" y="298"/>
      <point x="355" y="311"/>
      <point x="377" y="311" type="curve" smooth="yes"/>
      <point x="416" y="311"/>
      <point x="438" y="275"/>
      <point x="438" y="225" type="curve" smooth="yes"/>
      <point x="438" y="215"/>
      <point x="434" y="212"/>
      <point x="424" y="212" type="curve" smooth="yes"/>
    </contour>
  </outline>
</glyph>
